G04 MADE WITH FRITZING*
G04 WWW.FRITZING.ORG*
G04 DOUBLE SIDED*
G04 HOLES PLATED*
G04 CONTOUR ON CENTER OF CONTOUR VECTOR*
%ASAXBY*%
%FSLAX23Y23*%
%MOIN*%
%OFA0B0*%
%SFA1.0B1.0*%
%ADD10R,0.778933X1.311941X0.756711X1.289719*%
%ADD11C,0.011111*%
%ADD12C,0.008051*%
%ADD13C,0.010000*%
%ADD14C,0.005000*%
%ADD15R,0.001000X0.001000*%
%LNSILK1*%
G90*
G70*
G54D11*
X26Y1334D02*
X794Y1334D01*
X794Y33D01*
X26Y33D01*
X26Y1334D01*
D02*
G54D12*
X1321Y1088D02*
X1296Y1113D01*
D02*
X1246Y1113D02*
X1221Y1088D01*
D02*
X1221Y1088D02*
X1195Y1113D01*
D02*
X1145Y1113D02*
X1120Y1088D01*
D02*
X1120Y1088D02*
X1095Y1113D01*
D02*
X1044Y1113D02*
X1019Y1088D01*
D02*
X1321Y1088D02*
X1321Y938D01*
D02*
X1296Y913D02*
X1246Y913D01*
D02*
X1221Y938D02*
X1195Y913D01*
D02*
X1195Y913D02*
X1145Y913D01*
D02*
X1145Y913D02*
X1120Y938D01*
D02*
X1120Y938D02*
X1095Y913D01*
D02*
X1095Y913D02*
X1044Y913D01*
D02*
X1044Y913D02*
X1019Y938D01*
D02*
X1095Y1113D02*
X1044Y1113D01*
D02*
X1195Y1113D02*
X1145Y1113D01*
D02*
X1296Y1113D02*
X1246Y1113D01*
D02*
X944Y1113D02*
X919Y1088D01*
D02*
X994Y913D02*
X944Y913D01*
D02*
X919Y938D02*
X919Y1088D01*
D02*
X994Y1113D02*
X944Y1113D01*
D02*
X1019Y1088D02*
X994Y1113D01*
G54D13*
D02*
X1245Y1351D02*
X959Y1351D01*
D02*
X959Y1351D02*
X959Y1135D01*
D02*
X959Y1135D02*
X1245Y1135D01*
D02*
X1245Y1135D02*
X1245Y1351D01*
G54D14*
D02*
X959Y1175D02*
X1245Y1175D01*
G54D13*
D02*
X934Y487D02*
X934Y687D01*
D02*
X934Y687D02*
X1000Y687D01*
D02*
X1000Y687D02*
X1000Y487D01*
D02*
X1000Y487D02*
X934Y487D01*
D02*
X882Y34D02*
X1306Y34D01*
D02*
X1306Y34D02*
X1306Y250D01*
D02*
X1306Y250D02*
X882Y250D01*
D02*
X882Y250D02*
X882Y34D01*
G54D14*
D02*
X1306Y210D02*
X882Y210D01*
G54D15*
X0Y1378D02*
X1376Y1378D01*
X0Y1377D02*
X1376Y1377D01*
X0Y1376D02*
X1376Y1376D01*
X0Y1375D02*
X1376Y1375D01*
X0Y1374D02*
X1376Y1374D01*
X0Y1373D02*
X1376Y1373D01*
X0Y1372D02*
X1376Y1372D01*
X0Y1371D02*
X1376Y1371D01*
X0Y1370D02*
X7Y1370D01*
X1369Y1370D02*
X1376Y1370D01*
X0Y1369D02*
X7Y1369D01*
X1369Y1369D02*
X1376Y1369D01*
X0Y1368D02*
X7Y1368D01*
X1369Y1368D02*
X1376Y1368D01*
X0Y1367D02*
X7Y1367D01*
X1369Y1367D02*
X1376Y1367D01*
X0Y1366D02*
X7Y1366D01*
X1369Y1366D02*
X1376Y1366D01*
X0Y1365D02*
X7Y1365D01*
X1369Y1365D02*
X1376Y1365D01*
X0Y1364D02*
X7Y1364D01*
X1369Y1364D02*
X1376Y1364D01*
X0Y1363D02*
X7Y1363D01*
X1369Y1363D02*
X1376Y1363D01*
X0Y1362D02*
X7Y1362D01*
X1369Y1362D02*
X1376Y1362D01*
X0Y1361D02*
X7Y1361D01*
X1369Y1361D02*
X1376Y1361D01*
X0Y1360D02*
X7Y1360D01*
X1369Y1360D02*
X1376Y1360D01*
X0Y1359D02*
X7Y1359D01*
X1369Y1359D02*
X1376Y1359D01*
X0Y1358D02*
X7Y1358D01*
X1369Y1358D02*
X1376Y1358D01*
X0Y1357D02*
X7Y1357D01*
X1369Y1357D02*
X1376Y1357D01*
X0Y1356D02*
X7Y1356D01*
X1369Y1356D02*
X1376Y1356D01*
X0Y1355D02*
X7Y1355D01*
X1369Y1355D02*
X1376Y1355D01*
X0Y1354D02*
X7Y1354D01*
X1369Y1354D02*
X1376Y1354D01*
X0Y1353D02*
X7Y1353D01*
X1369Y1353D02*
X1376Y1353D01*
X0Y1352D02*
X7Y1352D01*
X1369Y1352D02*
X1376Y1352D01*
X0Y1351D02*
X7Y1351D01*
X1369Y1351D02*
X1376Y1351D01*
X0Y1350D02*
X7Y1350D01*
X1369Y1350D02*
X1376Y1350D01*
X0Y1349D02*
X7Y1349D01*
X1369Y1349D02*
X1376Y1349D01*
X0Y1348D02*
X7Y1348D01*
X1369Y1348D02*
X1376Y1348D01*
X0Y1347D02*
X7Y1347D01*
X1369Y1347D02*
X1376Y1347D01*
X0Y1346D02*
X7Y1346D01*
X1369Y1346D02*
X1376Y1346D01*
X0Y1345D02*
X7Y1345D01*
X1369Y1345D02*
X1376Y1345D01*
X0Y1344D02*
X7Y1344D01*
X1369Y1344D02*
X1376Y1344D01*
X0Y1343D02*
X7Y1343D01*
X1369Y1343D02*
X1376Y1343D01*
X0Y1342D02*
X7Y1342D01*
X1369Y1342D02*
X1376Y1342D01*
X0Y1341D02*
X7Y1341D01*
X1369Y1341D02*
X1376Y1341D01*
X0Y1340D02*
X7Y1340D01*
X1369Y1340D02*
X1376Y1340D01*
X0Y1339D02*
X7Y1339D01*
X1369Y1339D02*
X1376Y1339D01*
X0Y1338D02*
X7Y1338D01*
X1369Y1338D02*
X1376Y1338D01*
X0Y1337D02*
X7Y1337D01*
X1369Y1337D02*
X1376Y1337D01*
X0Y1336D02*
X7Y1336D01*
X1369Y1336D02*
X1376Y1336D01*
X0Y1335D02*
X7Y1335D01*
X1369Y1335D02*
X1376Y1335D01*
X0Y1334D02*
X7Y1334D01*
X1369Y1334D02*
X1376Y1334D01*
X0Y1333D02*
X7Y1333D01*
X1369Y1333D02*
X1376Y1333D01*
X0Y1332D02*
X7Y1332D01*
X1369Y1332D02*
X1376Y1332D01*
X0Y1331D02*
X7Y1331D01*
X1369Y1331D02*
X1376Y1331D01*
X0Y1330D02*
X7Y1330D01*
X1369Y1330D02*
X1376Y1330D01*
X0Y1329D02*
X7Y1329D01*
X1369Y1329D02*
X1376Y1329D01*
X0Y1328D02*
X7Y1328D01*
X1369Y1328D02*
X1376Y1328D01*
X0Y1327D02*
X7Y1327D01*
X1369Y1327D02*
X1376Y1327D01*
X0Y1326D02*
X7Y1326D01*
X1369Y1326D02*
X1376Y1326D01*
X0Y1325D02*
X7Y1325D01*
X1369Y1325D02*
X1376Y1325D01*
X0Y1324D02*
X7Y1324D01*
X1369Y1324D02*
X1376Y1324D01*
X0Y1323D02*
X7Y1323D01*
X1369Y1323D02*
X1376Y1323D01*
X0Y1322D02*
X7Y1322D01*
X1369Y1322D02*
X1376Y1322D01*
X0Y1321D02*
X7Y1321D01*
X1369Y1321D02*
X1376Y1321D01*
X0Y1320D02*
X7Y1320D01*
X1369Y1320D02*
X1376Y1320D01*
X0Y1319D02*
X7Y1319D01*
X1369Y1319D02*
X1376Y1319D01*
X0Y1318D02*
X7Y1318D01*
X1369Y1318D02*
X1376Y1318D01*
X0Y1317D02*
X7Y1317D01*
X1369Y1317D02*
X1376Y1317D01*
X0Y1316D02*
X7Y1316D01*
X1369Y1316D02*
X1376Y1316D01*
X0Y1315D02*
X7Y1315D01*
X1369Y1315D02*
X1376Y1315D01*
X0Y1314D02*
X7Y1314D01*
X1369Y1314D02*
X1376Y1314D01*
X0Y1313D02*
X7Y1313D01*
X1369Y1313D02*
X1376Y1313D01*
X0Y1312D02*
X7Y1312D01*
X1369Y1312D02*
X1376Y1312D01*
X0Y1311D02*
X7Y1311D01*
X1369Y1311D02*
X1376Y1311D01*
X0Y1310D02*
X7Y1310D01*
X1369Y1310D02*
X1376Y1310D01*
X0Y1309D02*
X7Y1309D01*
X1369Y1309D02*
X1376Y1309D01*
X0Y1308D02*
X7Y1308D01*
X1369Y1308D02*
X1376Y1308D01*
X0Y1307D02*
X7Y1307D01*
X1369Y1307D02*
X1376Y1307D01*
X0Y1306D02*
X7Y1306D01*
X1369Y1306D02*
X1376Y1306D01*
X0Y1305D02*
X7Y1305D01*
X1369Y1305D02*
X1376Y1305D01*
X0Y1304D02*
X7Y1304D01*
X62Y1304D02*
X62Y1304D01*
X119Y1304D02*
X120Y1304D01*
X1369Y1304D02*
X1376Y1304D01*
X0Y1303D02*
X7Y1303D01*
X60Y1303D02*
X64Y1303D01*
X117Y1303D02*
X122Y1303D01*
X1369Y1303D02*
X1376Y1303D01*
X0Y1302D02*
X7Y1302D01*
X59Y1302D02*
X65Y1302D01*
X116Y1302D02*
X123Y1302D01*
X1369Y1302D02*
X1376Y1302D01*
X0Y1301D02*
X7Y1301D01*
X58Y1301D02*
X65Y1301D01*
X116Y1301D02*
X123Y1301D01*
X1369Y1301D02*
X1376Y1301D01*
X0Y1300D02*
X7Y1300D01*
X58Y1300D02*
X66Y1300D01*
X116Y1300D02*
X123Y1300D01*
X1369Y1300D02*
X1376Y1300D01*
X0Y1299D02*
X7Y1299D01*
X58Y1299D02*
X66Y1299D01*
X116Y1299D02*
X123Y1299D01*
X1369Y1299D02*
X1376Y1299D01*
X0Y1298D02*
X7Y1298D01*
X58Y1298D02*
X66Y1298D01*
X116Y1298D02*
X123Y1298D01*
X844Y1298D02*
X860Y1298D01*
X1369Y1298D02*
X1376Y1298D01*
X0Y1297D02*
X7Y1297D01*
X58Y1297D02*
X66Y1297D01*
X116Y1297D02*
X123Y1297D01*
X842Y1297D02*
X861Y1297D01*
X1369Y1297D02*
X1376Y1297D01*
X0Y1296D02*
X7Y1296D01*
X58Y1296D02*
X66Y1296D01*
X115Y1296D02*
X123Y1296D01*
X841Y1296D02*
X861Y1296D01*
X1369Y1296D02*
X1376Y1296D01*
X0Y1295D02*
X7Y1295D01*
X58Y1295D02*
X123Y1295D01*
X840Y1295D02*
X861Y1295D01*
X1369Y1295D02*
X1376Y1295D01*
X0Y1294D02*
X7Y1294D01*
X58Y1294D02*
X123Y1294D01*
X839Y1294D02*
X861Y1294D01*
X1369Y1294D02*
X1376Y1294D01*
X0Y1293D02*
X7Y1293D01*
X58Y1293D02*
X123Y1293D01*
X839Y1293D02*
X860Y1293D01*
X1369Y1293D02*
X1376Y1293D01*
X0Y1292D02*
X7Y1292D01*
X58Y1292D02*
X123Y1292D01*
X838Y1292D02*
X859Y1292D01*
X1369Y1292D02*
X1376Y1292D01*
X0Y1291D02*
X7Y1291D01*
X58Y1291D02*
X123Y1291D01*
X838Y1291D02*
X845Y1291D01*
X1369Y1291D02*
X1376Y1291D01*
X0Y1290D02*
X7Y1290D01*
X58Y1290D02*
X123Y1290D01*
X838Y1290D02*
X844Y1290D01*
X1369Y1290D02*
X1376Y1290D01*
X0Y1289D02*
X7Y1289D01*
X58Y1289D02*
X123Y1289D01*
X838Y1289D02*
X844Y1289D01*
X1369Y1289D02*
X1376Y1289D01*
X0Y1288D02*
X7Y1288D01*
X58Y1288D02*
X123Y1288D01*
X838Y1288D02*
X844Y1288D01*
X1369Y1288D02*
X1376Y1288D01*
X0Y1287D02*
X7Y1287D01*
X58Y1287D02*
X66Y1287D01*
X115Y1287D02*
X123Y1287D01*
X838Y1287D02*
X844Y1287D01*
X1369Y1287D02*
X1376Y1287D01*
X0Y1286D02*
X7Y1286D01*
X58Y1286D02*
X66Y1286D01*
X116Y1286D02*
X123Y1286D01*
X838Y1286D02*
X844Y1286D01*
X1369Y1286D02*
X1376Y1286D01*
X0Y1285D02*
X7Y1285D01*
X58Y1285D02*
X66Y1285D01*
X116Y1285D02*
X123Y1285D01*
X838Y1285D02*
X844Y1285D01*
X1369Y1285D02*
X1376Y1285D01*
X0Y1284D02*
X7Y1284D01*
X58Y1284D02*
X66Y1284D01*
X116Y1284D02*
X123Y1284D01*
X838Y1284D02*
X844Y1284D01*
X1369Y1284D02*
X1376Y1284D01*
X0Y1283D02*
X7Y1283D01*
X58Y1283D02*
X66Y1283D01*
X115Y1283D02*
X123Y1283D01*
X838Y1283D02*
X844Y1283D01*
X1369Y1283D02*
X1376Y1283D01*
X0Y1282D02*
X7Y1282D01*
X58Y1282D02*
X66Y1282D01*
X115Y1282D02*
X123Y1282D01*
X838Y1282D02*
X844Y1282D01*
X1369Y1282D02*
X1376Y1282D01*
X0Y1281D02*
X7Y1281D01*
X59Y1281D02*
X67Y1281D01*
X114Y1281D02*
X123Y1281D01*
X838Y1281D02*
X844Y1281D01*
X1369Y1281D02*
X1376Y1281D01*
X0Y1280D02*
X7Y1280D01*
X59Y1280D02*
X69Y1280D01*
X112Y1280D02*
X122Y1280D01*
X838Y1280D02*
X844Y1280D01*
X1369Y1280D02*
X1376Y1280D01*
X0Y1279D02*
X7Y1279D01*
X59Y1279D02*
X71Y1279D01*
X110Y1279D02*
X122Y1279D01*
X838Y1279D02*
X845Y1279D01*
X1369Y1279D02*
X1376Y1279D01*
X0Y1278D02*
X7Y1278D01*
X60Y1278D02*
X73Y1278D01*
X109Y1278D02*
X122Y1278D01*
X838Y1278D02*
X888Y1278D01*
X1369Y1278D02*
X1376Y1278D01*
X0Y1277D02*
X7Y1277D01*
X60Y1277D02*
X75Y1277D01*
X107Y1277D02*
X121Y1277D01*
X839Y1277D02*
X890Y1277D01*
X1369Y1277D02*
X1376Y1277D01*
X0Y1276D02*
X7Y1276D01*
X61Y1276D02*
X77Y1276D01*
X105Y1276D02*
X120Y1276D01*
X839Y1276D02*
X890Y1276D01*
X1369Y1276D02*
X1376Y1276D01*
X0Y1275D02*
X7Y1275D01*
X62Y1275D02*
X79Y1275D01*
X103Y1275D02*
X119Y1275D01*
X840Y1275D02*
X891Y1275D01*
X1369Y1275D02*
X1376Y1275D01*
X0Y1274D02*
X7Y1274D01*
X63Y1274D02*
X81Y1274D01*
X101Y1274D02*
X118Y1274D01*
X841Y1274D02*
X891Y1274D01*
X1369Y1274D02*
X1376Y1274D01*
X0Y1273D02*
X7Y1273D01*
X64Y1273D02*
X83Y1273D01*
X99Y1273D02*
X117Y1273D01*
X842Y1273D02*
X890Y1273D01*
X1369Y1273D02*
X1376Y1273D01*
X0Y1272D02*
X7Y1272D01*
X66Y1272D02*
X85Y1272D01*
X97Y1272D02*
X115Y1272D01*
X844Y1272D02*
X889Y1272D01*
X1369Y1272D02*
X1376Y1272D01*
X0Y1271D02*
X7Y1271D01*
X68Y1271D02*
X87Y1271D01*
X94Y1271D02*
X113Y1271D01*
X1369Y1271D02*
X1376Y1271D01*
X0Y1270D02*
X7Y1270D01*
X70Y1270D02*
X111Y1270D01*
X1369Y1270D02*
X1376Y1270D01*
X0Y1269D02*
X7Y1269D01*
X72Y1269D02*
X109Y1269D01*
X1369Y1269D02*
X1376Y1269D01*
X0Y1268D02*
X7Y1268D01*
X75Y1268D02*
X107Y1268D01*
X1369Y1268D02*
X1376Y1268D01*
X0Y1267D02*
X7Y1267D01*
X77Y1267D02*
X105Y1267D01*
X1369Y1267D02*
X1376Y1267D01*
X0Y1266D02*
X7Y1266D01*
X79Y1266D02*
X103Y1266D01*
X1369Y1266D02*
X1376Y1266D01*
X0Y1265D02*
X7Y1265D01*
X81Y1265D02*
X101Y1265D01*
X1369Y1265D02*
X1376Y1265D01*
X0Y1264D02*
X7Y1264D01*
X83Y1264D02*
X99Y1264D01*
X1369Y1264D02*
X1376Y1264D01*
X0Y1263D02*
X7Y1263D01*
X85Y1263D02*
X96Y1263D01*
X1369Y1263D02*
X1376Y1263D01*
X0Y1262D02*
X7Y1262D01*
X90Y1262D02*
X91Y1262D01*
X1369Y1262D02*
X1376Y1262D01*
X0Y1261D02*
X7Y1261D01*
X1369Y1261D02*
X1376Y1261D01*
X0Y1260D02*
X7Y1260D01*
X1369Y1260D02*
X1376Y1260D01*
X0Y1259D02*
X7Y1259D01*
X1369Y1259D02*
X1376Y1259D01*
X0Y1258D02*
X7Y1258D01*
X1369Y1258D02*
X1376Y1258D01*
X0Y1257D02*
X7Y1257D01*
X1369Y1257D02*
X1376Y1257D01*
X0Y1256D02*
X7Y1256D01*
X1369Y1256D02*
X1376Y1256D01*
X0Y1255D02*
X7Y1255D01*
X1369Y1255D02*
X1376Y1255D01*
X0Y1254D02*
X7Y1254D01*
X1369Y1254D02*
X1376Y1254D01*
X0Y1253D02*
X7Y1253D01*
X1369Y1253D02*
X1376Y1253D01*
X0Y1252D02*
X7Y1252D01*
X840Y1252D02*
X841Y1252D01*
X887Y1252D02*
X889Y1252D01*
X1369Y1252D02*
X1376Y1252D01*
X0Y1251D02*
X7Y1251D01*
X838Y1251D02*
X843Y1251D01*
X886Y1251D02*
X890Y1251D01*
X1369Y1251D02*
X1376Y1251D01*
X0Y1250D02*
X7Y1250D01*
X838Y1250D02*
X843Y1250D01*
X885Y1250D02*
X890Y1250D01*
X1369Y1250D02*
X1376Y1250D01*
X0Y1249D02*
X7Y1249D01*
X838Y1249D02*
X844Y1249D01*
X885Y1249D02*
X891Y1249D01*
X1369Y1249D02*
X1376Y1249D01*
X0Y1248D02*
X7Y1248D01*
X838Y1248D02*
X844Y1248D01*
X885Y1248D02*
X891Y1248D01*
X1369Y1248D02*
X1376Y1248D01*
X0Y1247D02*
X7Y1247D01*
X838Y1247D02*
X844Y1247D01*
X885Y1247D02*
X891Y1247D01*
X1369Y1247D02*
X1376Y1247D01*
X0Y1246D02*
X7Y1246D01*
X838Y1246D02*
X844Y1246D01*
X885Y1246D02*
X891Y1246D01*
X1369Y1246D02*
X1376Y1246D01*
X0Y1245D02*
X7Y1245D01*
X838Y1245D02*
X844Y1245D01*
X885Y1245D02*
X891Y1245D01*
X1369Y1245D02*
X1376Y1245D01*
X0Y1244D02*
X7Y1244D01*
X838Y1244D02*
X844Y1244D01*
X885Y1244D02*
X891Y1244D01*
X1369Y1244D02*
X1376Y1244D01*
X0Y1243D02*
X7Y1243D01*
X72Y1243D02*
X91Y1243D01*
X838Y1243D02*
X844Y1243D01*
X885Y1243D02*
X891Y1243D01*
X1369Y1243D02*
X1376Y1243D01*
X0Y1242D02*
X7Y1242D01*
X68Y1242D02*
X95Y1242D01*
X838Y1242D02*
X844Y1242D01*
X885Y1242D02*
X891Y1242D01*
X1369Y1242D02*
X1376Y1242D01*
X0Y1241D02*
X7Y1241D01*
X66Y1241D02*
X97Y1241D01*
X838Y1241D02*
X844Y1241D01*
X885Y1241D02*
X891Y1241D01*
X1369Y1241D02*
X1376Y1241D01*
X0Y1240D02*
X7Y1240D01*
X65Y1240D02*
X98Y1240D01*
X838Y1240D02*
X844Y1240D01*
X885Y1240D02*
X891Y1240D01*
X1369Y1240D02*
X1376Y1240D01*
X0Y1239D02*
X7Y1239D01*
X64Y1239D02*
X99Y1239D01*
X838Y1239D02*
X844Y1239D01*
X885Y1239D02*
X891Y1239D01*
X1369Y1239D02*
X1376Y1239D01*
X0Y1238D02*
X7Y1238D01*
X63Y1238D02*
X100Y1238D01*
X838Y1238D02*
X891Y1238D01*
X1369Y1238D02*
X1376Y1238D01*
X0Y1237D02*
X7Y1237D01*
X62Y1237D02*
X101Y1237D01*
X838Y1237D02*
X891Y1237D01*
X1369Y1237D02*
X1376Y1237D01*
X0Y1236D02*
X7Y1236D01*
X61Y1236D02*
X102Y1236D01*
X838Y1236D02*
X891Y1236D01*
X1369Y1236D02*
X1376Y1236D01*
X0Y1235D02*
X7Y1235D01*
X61Y1235D02*
X103Y1235D01*
X838Y1235D02*
X891Y1235D01*
X1369Y1235D02*
X1376Y1235D01*
X0Y1234D02*
X7Y1234D01*
X60Y1234D02*
X70Y1234D01*
X93Y1234D02*
X103Y1234D01*
X838Y1234D02*
X891Y1234D01*
X1369Y1234D02*
X1376Y1234D01*
X0Y1233D02*
X7Y1233D01*
X60Y1233D02*
X69Y1233D01*
X94Y1233D02*
X104Y1233D01*
X838Y1233D02*
X891Y1233D01*
X1369Y1233D02*
X1376Y1233D01*
X0Y1232D02*
X7Y1232D01*
X59Y1232D02*
X68Y1232D01*
X95Y1232D02*
X104Y1232D01*
X838Y1232D02*
X891Y1232D01*
X1369Y1232D02*
X1376Y1232D01*
X0Y1231D02*
X7Y1231D01*
X59Y1231D02*
X67Y1231D01*
X96Y1231D02*
X105Y1231D01*
X838Y1231D02*
X844Y1231D01*
X1369Y1231D02*
X1376Y1231D01*
X0Y1230D02*
X7Y1230D01*
X58Y1230D02*
X67Y1230D01*
X97Y1230D02*
X105Y1230D01*
X838Y1230D02*
X844Y1230D01*
X1369Y1230D02*
X1376Y1230D01*
X0Y1229D02*
X7Y1229D01*
X58Y1229D02*
X66Y1229D01*
X97Y1229D02*
X105Y1229D01*
X838Y1229D02*
X844Y1229D01*
X1369Y1229D02*
X1376Y1229D01*
X0Y1228D02*
X7Y1228D01*
X58Y1228D02*
X66Y1228D01*
X98Y1228D02*
X105Y1228D01*
X838Y1228D02*
X844Y1228D01*
X1369Y1228D02*
X1376Y1228D01*
X0Y1227D02*
X7Y1227D01*
X58Y1227D02*
X66Y1227D01*
X98Y1227D02*
X105Y1227D01*
X838Y1227D02*
X844Y1227D01*
X1369Y1227D02*
X1376Y1227D01*
X0Y1226D02*
X7Y1226D01*
X58Y1226D02*
X66Y1226D01*
X98Y1226D02*
X105Y1226D01*
X838Y1226D02*
X844Y1226D01*
X1369Y1226D02*
X1376Y1226D01*
X0Y1225D02*
X7Y1225D01*
X58Y1225D02*
X66Y1225D01*
X98Y1225D02*
X105Y1225D01*
X838Y1225D02*
X844Y1225D01*
X1369Y1225D02*
X1376Y1225D01*
X0Y1224D02*
X7Y1224D01*
X58Y1224D02*
X66Y1224D01*
X98Y1224D02*
X105Y1224D01*
X838Y1224D02*
X860Y1224D01*
X1369Y1224D02*
X1376Y1224D01*
X0Y1223D02*
X7Y1223D01*
X58Y1223D02*
X66Y1223D01*
X98Y1223D02*
X105Y1223D01*
X838Y1223D02*
X861Y1223D01*
X1369Y1223D02*
X1376Y1223D01*
X0Y1222D02*
X7Y1222D01*
X58Y1222D02*
X66Y1222D01*
X98Y1222D02*
X105Y1222D01*
X838Y1222D02*
X861Y1222D01*
X1369Y1222D02*
X1376Y1222D01*
X0Y1221D02*
X7Y1221D01*
X58Y1221D02*
X66Y1221D01*
X98Y1221D02*
X105Y1221D01*
X838Y1221D02*
X861Y1221D01*
X1369Y1221D02*
X1376Y1221D01*
X0Y1220D02*
X7Y1220D01*
X58Y1220D02*
X66Y1220D01*
X98Y1220D02*
X105Y1220D01*
X838Y1220D02*
X861Y1220D01*
X1369Y1220D02*
X1376Y1220D01*
X0Y1219D02*
X7Y1219D01*
X58Y1219D02*
X66Y1219D01*
X98Y1219D02*
X105Y1219D01*
X839Y1219D02*
X860Y1219D01*
X1369Y1219D02*
X1376Y1219D01*
X0Y1218D02*
X7Y1218D01*
X58Y1218D02*
X66Y1218D01*
X98Y1218D02*
X105Y1218D01*
X840Y1218D02*
X859Y1218D01*
X1369Y1218D02*
X1376Y1218D01*
X0Y1217D02*
X7Y1217D01*
X58Y1217D02*
X66Y1217D01*
X98Y1217D02*
X105Y1217D01*
X1369Y1217D02*
X1376Y1217D01*
X0Y1216D02*
X7Y1216D01*
X58Y1216D02*
X66Y1216D01*
X98Y1216D02*
X105Y1216D01*
X1369Y1216D02*
X1376Y1216D01*
X0Y1215D02*
X7Y1215D01*
X58Y1215D02*
X66Y1215D01*
X97Y1215D02*
X105Y1215D01*
X1369Y1215D02*
X1376Y1215D01*
X0Y1214D02*
X7Y1214D01*
X58Y1214D02*
X67Y1214D01*
X97Y1214D02*
X105Y1214D01*
X1369Y1214D02*
X1376Y1214D01*
X0Y1213D02*
X7Y1213D01*
X59Y1213D02*
X68Y1213D01*
X96Y1213D02*
X105Y1213D01*
X481Y1213D02*
X482Y1213D01*
X1369Y1213D02*
X1376Y1213D01*
X0Y1212D02*
X7Y1212D01*
X59Y1212D02*
X68Y1212D01*
X95Y1212D02*
X104Y1212D01*
X482Y1212D02*
X485Y1212D01*
X1369Y1212D02*
X1376Y1212D01*
X0Y1211D02*
X7Y1211D01*
X60Y1211D02*
X69Y1211D01*
X94Y1211D02*
X104Y1211D01*
X286Y1211D02*
X286Y1211D01*
X482Y1211D02*
X482Y1211D01*
X485Y1211D02*
X486Y1211D01*
X1369Y1211D02*
X1376Y1211D01*
X0Y1210D02*
X7Y1210D01*
X60Y1210D02*
X71Y1210D01*
X93Y1210D02*
X103Y1210D01*
X287Y1210D02*
X290Y1210D01*
X481Y1210D02*
X483Y1210D01*
X1369Y1210D02*
X1376Y1210D01*
X0Y1209D02*
X7Y1209D01*
X61Y1209D02*
X103Y1209D01*
X287Y1209D02*
X287Y1209D01*
X290Y1209D02*
X291Y1209D01*
X1369Y1209D02*
X1376Y1209D01*
X0Y1208D02*
X7Y1208D01*
X62Y1208D02*
X102Y1208D01*
X287Y1208D02*
X289Y1208D01*
X1369Y1208D02*
X1376Y1208D01*
X0Y1207D02*
X7Y1207D01*
X62Y1207D02*
X101Y1207D01*
X483Y1207D02*
X484Y1207D01*
X1369Y1207D02*
X1376Y1207D01*
X0Y1206D02*
X7Y1206D01*
X63Y1206D02*
X100Y1206D01*
X481Y1206D02*
X482Y1206D01*
X486Y1206D02*
X486Y1206D01*
X1369Y1206D02*
X1376Y1206D01*
X0Y1205D02*
X7Y1205D01*
X64Y1205D02*
X99Y1205D01*
X288Y1205D02*
X289Y1205D01*
X481Y1205D02*
X481Y1205D01*
X1369Y1205D02*
X1376Y1205D01*
X0Y1204D02*
X7Y1204D01*
X65Y1204D02*
X98Y1204D01*
X287Y1204D02*
X287Y1204D01*
X290Y1204D02*
X291Y1204D01*
X481Y1204D02*
X481Y1204D01*
X1369Y1204D02*
X1376Y1204D01*
X0Y1203D02*
X7Y1203D01*
X67Y1203D02*
X97Y1203D01*
X286Y1203D02*
X286Y1203D01*
X1369Y1203D02*
X1376Y1203D01*
X0Y1202D02*
X7Y1202D01*
X68Y1202D02*
X95Y1202D01*
X286Y1202D02*
X286Y1202D01*
X1369Y1202D02*
X1376Y1202D01*
X0Y1201D02*
X7Y1201D01*
X73Y1201D02*
X91Y1201D01*
X1369Y1201D02*
X1376Y1201D01*
X0Y1200D02*
X7Y1200D01*
X1369Y1200D02*
X1376Y1200D01*
X0Y1199D02*
X7Y1199D01*
X1369Y1199D02*
X1376Y1199D01*
X0Y1198D02*
X7Y1198D01*
X1369Y1198D02*
X1376Y1198D01*
X0Y1197D02*
X7Y1197D01*
X1369Y1197D02*
X1376Y1197D01*
X0Y1196D02*
X7Y1196D01*
X1369Y1196D02*
X1376Y1196D01*
X0Y1195D02*
X7Y1195D01*
X1369Y1195D02*
X1376Y1195D01*
X0Y1194D02*
X7Y1194D01*
X1369Y1194D02*
X1376Y1194D01*
X0Y1193D02*
X7Y1193D01*
X1369Y1193D02*
X1376Y1193D01*
X0Y1192D02*
X7Y1192D01*
X1369Y1192D02*
X1376Y1192D01*
X0Y1191D02*
X7Y1191D01*
X1369Y1191D02*
X1376Y1191D01*
X0Y1190D02*
X7Y1190D01*
X1369Y1190D02*
X1376Y1190D01*
X0Y1189D02*
X7Y1189D01*
X1369Y1189D02*
X1376Y1189D01*
X0Y1188D02*
X7Y1188D01*
X1369Y1188D02*
X1376Y1188D01*
X0Y1187D02*
X7Y1187D01*
X1369Y1187D02*
X1376Y1187D01*
X0Y1186D02*
X7Y1186D01*
X1369Y1186D02*
X1376Y1186D01*
X0Y1185D02*
X7Y1185D01*
X1369Y1185D02*
X1376Y1185D01*
X0Y1184D02*
X7Y1184D01*
X1369Y1184D02*
X1376Y1184D01*
X0Y1183D02*
X7Y1183D01*
X1369Y1183D02*
X1376Y1183D01*
X0Y1182D02*
X7Y1182D01*
X72Y1182D02*
X91Y1182D01*
X1369Y1182D02*
X1376Y1182D01*
X0Y1181D02*
X7Y1181D01*
X68Y1181D02*
X95Y1181D01*
X1369Y1181D02*
X1376Y1181D01*
X0Y1180D02*
X7Y1180D01*
X66Y1180D02*
X97Y1180D01*
X1369Y1180D02*
X1376Y1180D01*
X0Y1179D02*
X7Y1179D01*
X65Y1179D02*
X98Y1179D01*
X1369Y1179D02*
X1376Y1179D01*
X0Y1178D02*
X7Y1178D01*
X64Y1178D02*
X99Y1178D01*
X1369Y1178D02*
X1376Y1178D01*
X0Y1177D02*
X7Y1177D01*
X63Y1177D02*
X100Y1177D01*
X1369Y1177D02*
X1376Y1177D01*
X0Y1176D02*
X7Y1176D01*
X62Y1176D02*
X101Y1176D01*
X1369Y1176D02*
X1376Y1176D01*
X0Y1175D02*
X7Y1175D01*
X61Y1175D02*
X102Y1175D01*
X1369Y1175D02*
X1376Y1175D01*
X0Y1174D02*
X7Y1174D01*
X61Y1174D02*
X103Y1174D01*
X1369Y1174D02*
X1376Y1174D01*
X0Y1173D02*
X7Y1173D01*
X60Y1173D02*
X70Y1173D01*
X93Y1173D02*
X103Y1173D01*
X1369Y1173D02*
X1376Y1173D01*
X0Y1172D02*
X7Y1172D01*
X60Y1172D02*
X69Y1172D01*
X94Y1172D02*
X104Y1172D01*
X1369Y1172D02*
X1376Y1172D01*
X0Y1171D02*
X7Y1171D01*
X59Y1171D02*
X68Y1171D01*
X95Y1171D02*
X104Y1171D01*
X1369Y1171D02*
X1376Y1171D01*
X0Y1170D02*
X7Y1170D01*
X59Y1170D02*
X67Y1170D01*
X96Y1170D02*
X105Y1170D01*
X1369Y1170D02*
X1376Y1170D01*
X0Y1169D02*
X7Y1169D01*
X58Y1169D02*
X67Y1169D01*
X97Y1169D02*
X105Y1169D01*
X1369Y1169D02*
X1376Y1169D01*
X0Y1168D02*
X7Y1168D01*
X58Y1168D02*
X66Y1168D01*
X97Y1168D02*
X105Y1168D01*
X1369Y1168D02*
X1376Y1168D01*
X0Y1167D02*
X7Y1167D01*
X58Y1167D02*
X66Y1167D01*
X98Y1167D02*
X105Y1167D01*
X1369Y1167D02*
X1376Y1167D01*
X0Y1166D02*
X7Y1166D01*
X58Y1166D02*
X66Y1166D01*
X98Y1166D02*
X105Y1166D01*
X1369Y1166D02*
X1376Y1166D01*
X0Y1165D02*
X7Y1165D01*
X58Y1165D02*
X66Y1165D01*
X98Y1165D02*
X105Y1165D01*
X1369Y1165D02*
X1376Y1165D01*
X0Y1164D02*
X7Y1164D01*
X58Y1164D02*
X66Y1164D01*
X98Y1164D02*
X105Y1164D01*
X1369Y1164D02*
X1376Y1164D01*
X0Y1163D02*
X7Y1163D01*
X58Y1163D02*
X66Y1163D01*
X98Y1163D02*
X105Y1163D01*
X1369Y1163D02*
X1376Y1163D01*
X0Y1162D02*
X7Y1162D01*
X58Y1162D02*
X66Y1162D01*
X98Y1162D02*
X105Y1162D01*
X1369Y1162D02*
X1376Y1162D01*
X0Y1161D02*
X7Y1161D01*
X58Y1161D02*
X66Y1161D01*
X98Y1161D02*
X105Y1161D01*
X1369Y1161D02*
X1376Y1161D01*
X0Y1160D02*
X7Y1160D01*
X58Y1160D02*
X66Y1160D01*
X98Y1160D02*
X105Y1160D01*
X1369Y1160D02*
X1376Y1160D01*
X0Y1159D02*
X7Y1159D01*
X58Y1159D02*
X66Y1159D01*
X98Y1159D02*
X105Y1159D01*
X1369Y1159D02*
X1376Y1159D01*
X0Y1158D02*
X7Y1158D01*
X58Y1158D02*
X66Y1158D01*
X98Y1158D02*
X105Y1158D01*
X1369Y1158D02*
X1376Y1158D01*
X0Y1157D02*
X7Y1157D01*
X58Y1157D02*
X66Y1157D01*
X98Y1157D02*
X105Y1157D01*
X1369Y1157D02*
X1376Y1157D01*
X0Y1156D02*
X7Y1156D01*
X58Y1156D02*
X66Y1156D01*
X98Y1156D02*
X105Y1156D01*
X1369Y1156D02*
X1376Y1156D01*
X0Y1155D02*
X7Y1155D01*
X58Y1155D02*
X66Y1155D01*
X98Y1155D02*
X105Y1155D01*
X1369Y1155D02*
X1376Y1155D01*
X0Y1154D02*
X7Y1154D01*
X58Y1154D02*
X66Y1154D01*
X97Y1154D02*
X105Y1154D01*
X1369Y1154D02*
X1376Y1154D01*
X0Y1153D02*
X7Y1153D01*
X58Y1153D02*
X67Y1153D01*
X97Y1153D02*
X105Y1153D01*
X1369Y1153D02*
X1376Y1153D01*
X0Y1152D02*
X7Y1152D01*
X59Y1152D02*
X68Y1152D01*
X96Y1152D02*
X105Y1152D01*
X1369Y1152D02*
X1376Y1152D01*
X0Y1151D02*
X7Y1151D01*
X59Y1151D02*
X68Y1151D01*
X95Y1151D02*
X104Y1151D01*
X1369Y1151D02*
X1376Y1151D01*
X0Y1150D02*
X7Y1150D01*
X60Y1150D02*
X69Y1150D01*
X94Y1150D02*
X104Y1150D01*
X1369Y1150D02*
X1376Y1150D01*
X0Y1149D02*
X7Y1149D01*
X60Y1149D02*
X71Y1149D01*
X93Y1149D02*
X103Y1149D01*
X1369Y1149D02*
X1376Y1149D01*
X0Y1148D02*
X7Y1148D01*
X61Y1148D02*
X103Y1148D01*
X1369Y1148D02*
X1376Y1148D01*
X0Y1147D02*
X7Y1147D01*
X62Y1147D02*
X102Y1147D01*
X1369Y1147D02*
X1376Y1147D01*
X0Y1146D02*
X7Y1146D01*
X62Y1146D02*
X101Y1146D01*
X1369Y1146D02*
X1376Y1146D01*
X0Y1145D02*
X7Y1145D01*
X63Y1145D02*
X100Y1145D01*
X1369Y1145D02*
X1376Y1145D01*
X0Y1144D02*
X7Y1144D01*
X64Y1144D02*
X99Y1144D01*
X1369Y1144D02*
X1376Y1144D01*
X0Y1143D02*
X7Y1143D01*
X65Y1143D02*
X98Y1143D01*
X1369Y1143D02*
X1376Y1143D01*
X0Y1142D02*
X7Y1142D01*
X67Y1142D02*
X97Y1142D01*
X1369Y1142D02*
X1376Y1142D01*
X0Y1141D02*
X7Y1141D01*
X68Y1141D02*
X95Y1141D01*
X1369Y1141D02*
X1376Y1141D01*
X0Y1140D02*
X7Y1140D01*
X72Y1140D02*
X91Y1140D01*
X1369Y1140D02*
X1376Y1140D01*
X0Y1139D02*
X7Y1139D01*
X1369Y1139D02*
X1376Y1139D01*
X0Y1138D02*
X7Y1138D01*
X1369Y1138D02*
X1376Y1138D01*
X0Y1137D02*
X7Y1137D01*
X1369Y1137D02*
X1376Y1137D01*
X0Y1136D02*
X7Y1136D01*
X1369Y1136D02*
X1376Y1136D01*
X0Y1135D02*
X7Y1135D01*
X1369Y1135D02*
X1376Y1135D01*
X0Y1134D02*
X7Y1134D01*
X1369Y1134D02*
X1376Y1134D01*
X0Y1133D02*
X7Y1133D01*
X1369Y1133D02*
X1376Y1133D01*
X0Y1132D02*
X7Y1132D01*
X1369Y1132D02*
X1376Y1132D01*
X0Y1131D02*
X7Y1131D01*
X1369Y1131D02*
X1376Y1131D01*
X0Y1130D02*
X7Y1130D01*
X1369Y1130D02*
X1376Y1130D01*
X0Y1129D02*
X7Y1129D01*
X1369Y1129D02*
X1376Y1129D01*
X0Y1128D02*
X7Y1128D01*
X1369Y1128D02*
X1376Y1128D01*
X0Y1127D02*
X7Y1127D01*
X1369Y1127D02*
X1376Y1127D01*
X0Y1126D02*
X7Y1126D01*
X1369Y1126D02*
X1376Y1126D01*
X0Y1125D02*
X7Y1125D01*
X1369Y1125D02*
X1376Y1125D01*
X0Y1124D02*
X7Y1124D01*
X1369Y1124D02*
X1376Y1124D01*
X0Y1123D02*
X7Y1123D01*
X1369Y1123D02*
X1376Y1123D01*
X0Y1122D02*
X7Y1122D01*
X1369Y1122D02*
X1376Y1122D01*
X0Y1121D02*
X7Y1121D01*
X62Y1121D02*
X102Y1121D01*
X1369Y1121D02*
X1376Y1121D01*
X0Y1120D02*
X7Y1120D01*
X60Y1120D02*
X104Y1120D01*
X1369Y1120D02*
X1376Y1120D01*
X0Y1119D02*
X7Y1119D01*
X59Y1119D02*
X105Y1119D01*
X1369Y1119D02*
X1376Y1119D01*
X0Y1118D02*
X7Y1118D01*
X58Y1118D02*
X105Y1118D01*
X1369Y1118D02*
X1376Y1118D01*
X0Y1117D02*
X7Y1117D01*
X58Y1117D02*
X105Y1117D01*
X1369Y1117D02*
X1376Y1117D01*
X0Y1116D02*
X7Y1116D01*
X58Y1116D02*
X105Y1116D01*
X1369Y1116D02*
X1376Y1116D01*
X0Y1115D02*
X7Y1115D01*
X59Y1115D02*
X105Y1115D01*
X1369Y1115D02*
X1376Y1115D01*
X0Y1114D02*
X7Y1114D01*
X59Y1114D02*
X104Y1114D01*
X1369Y1114D02*
X1376Y1114D01*
X0Y1113D02*
X7Y1113D01*
X61Y1113D02*
X103Y1113D01*
X1369Y1113D02*
X1376Y1113D01*
X0Y1112D02*
X7Y1112D01*
X86Y1112D02*
X96Y1112D01*
X1369Y1112D02*
X1376Y1112D01*
X0Y1111D02*
X7Y1111D01*
X87Y1111D02*
X97Y1111D01*
X1369Y1111D02*
X1376Y1111D01*
X0Y1110D02*
X7Y1110D01*
X88Y1110D02*
X98Y1110D01*
X1369Y1110D02*
X1376Y1110D01*
X0Y1109D02*
X7Y1109D01*
X89Y1109D02*
X99Y1109D01*
X1369Y1109D02*
X1376Y1109D01*
X0Y1108D02*
X7Y1108D01*
X90Y1108D02*
X100Y1108D01*
X1369Y1108D02*
X1376Y1108D01*
X0Y1107D02*
X7Y1107D01*
X90Y1107D02*
X101Y1107D01*
X1369Y1107D02*
X1376Y1107D01*
X0Y1106D02*
X7Y1106D01*
X91Y1106D02*
X102Y1106D01*
X1369Y1106D02*
X1376Y1106D01*
X0Y1105D02*
X7Y1105D01*
X92Y1105D02*
X102Y1105D01*
X1369Y1105D02*
X1376Y1105D01*
X0Y1104D02*
X7Y1104D01*
X93Y1104D02*
X103Y1104D01*
X1369Y1104D02*
X1376Y1104D01*
X0Y1103D02*
X7Y1103D01*
X94Y1103D02*
X104Y1103D01*
X1369Y1103D02*
X1376Y1103D01*
X0Y1102D02*
X7Y1102D01*
X95Y1102D02*
X105Y1102D01*
X1369Y1102D02*
X1376Y1102D01*
X0Y1101D02*
X7Y1101D01*
X96Y1101D02*
X105Y1101D01*
X1369Y1101D02*
X1376Y1101D01*
X0Y1100D02*
X7Y1100D01*
X96Y1100D02*
X105Y1100D01*
X1369Y1100D02*
X1376Y1100D01*
X0Y1099D02*
X7Y1099D01*
X97Y1099D02*
X105Y1099D01*
X1369Y1099D02*
X1376Y1099D01*
X0Y1098D02*
X7Y1098D01*
X98Y1098D02*
X105Y1098D01*
X1369Y1098D02*
X1376Y1098D01*
X0Y1097D02*
X7Y1097D01*
X98Y1097D02*
X105Y1097D01*
X1369Y1097D02*
X1376Y1097D01*
X0Y1096D02*
X7Y1096D01*
X98Y1096D02*
X105Y1096D01*
X1369Y1096D02*
X1376Y1096D01*
X0Y1095D02*
X7Y1095D01*
X98Y1095D02*
X105Y1095D01*
X1369Y1095D02*
X1376Y1095D01*
X0Y1094D02*
X7Y1094D01*
X98Y1094D02*
X105Y1094D01*
X1369Y1094D02*
X1376Y1094D01*
X0Y1093D02*
X7Y1093D01*
X98Y1093D02*
X105Y1093D01*
X1369Y1093D02*
X1376Y1093D01*
X0Y1092D02*
X7Y1092D01*
X98Y1092D02*
X105Y1092D01*
X1369Y1092D02*
X1376Y1092D01*
X0Y1091D02*
X7Y1091D01*
X98Y1091D02*
X105Y1091D01*
X1369Y1091D02*
X1376Y1091D01*
X0Y1090D02*
X7Y1090D01*
X97Y1090D02*
X105Y1090D01*
X1369Y1090D02*
X1376Y1090D01*
X0Y1089D02*
X7Y1089D01*
X97Y1089D02*
X105Y1089D01*
X1369Y1089D02*
X1376Y1089D01*
X0Y1088D02*
X7Y1088D01*
X95Y1088D02*
X105Y1088D01*
X1369Y1088D02*
X1376Y1088D01*
X0Y1087D02*
X7Y1087D01*
X89Y1087D02*
X104Y1087D01*
X1369Y1087D02*
X1376Y1087D01*
X0Y1086D02*
X7Y1086D01*
X88Y1086D02*
X104Y1086D01*
X1369Y1086D02*
X1376Y1086D01*
X0Y1085D02*
X7Y1085D01*
X87Y1085D02*
X103Y1085D01*
X1369Y1085D02*
X1376Y1085D01*
X0Y1084D02*
X7Y1084D01*
X87Y1084D02*
X103Y1084D01*
X1369Y1084D02*
X1376Y1084D01*
X0Y1083D02*
X7Y1083D01*
X87Y1083D02*
X102Y1083D01*
X1369Y1083D02*
X1376Y1083D01*
X0Y1082D02*
X7Y1082D01*
X87Y1082D02*
X101Y1082D01*
X1369Y1082D02*
X1376Y1082D01*
X0Y1081D02*
X7Y1081D01*
X88Y1081D02*
X99Y1081D01*
X1369Y1081D02*
X1376Y1081D01*
X0Y1080D02*
X7Y1080D01*
X88Y1080D02*
X98Y1080D01*
X1369Y1080D02*
X1376Y1080D01*
X0Y1079D02*
X7Y1079D01*
X91Y1079D02*
X93Y1079D01*
X1369Y1079D02*
X1376Y1079D01*
X0Y1078D02*
X7Y1078D01*
X1369Y1078D02*
X1376Y1078D01*
X0Y1077D02*
X7Y1077D01*
X1369Y1077D02*
X1376Y1077D01*
X0Y1076D02*
X7Y1076D01*
X1369Y1076D02*
X1376Y1076D01*
X0Y1075D02*
X7Y1075D01*
X1369Y1075D02*
X1376Y1075D01*
X0Y1074D02*
X7Y1074D01*
X1369Y1074D02*
X1376Y1074D01*
X0Y1073D02*
X7Y1073D01*
X1369Y1073D02*
X1376Y1073D01*
X0Y1072D02*
X7Y1072D01*
X1369Y1072D02*
X1376Y1072D01*
X0Y1071D02*
X7Y1071D01*
X1369Y1071D02*
X1376Y1071D01*
X0Y1070D02*
X7Y1070D01*
X1369Y1070D02*
X1376Y1070D01*
X0Y1069D02*
X7Y1069D01*
X1369Y1069D02*
X1376Y1069D01*
X0Y1068D02*
X7Y1068D01*
X1369Y1068D02*
X1376Y1068D01*
X0Y1067D02*
X7Y1067D01*
X1369Y1067D02*
X1376Y1067D01*
X0Y1066D02*
X7Y1066D01*
X1369Y1066D02*
X1376Y1066D01*
X0Y1065D02*
X7Y1065D01*
X1369Y1065D02*
X1376Y1065D01*
X0Y1064D02*
X7Y1064D01*
X1369Y1064D02*
X1376Y1064D01*
X0Y1063D02*
X7Y1063D01*
X1369Y1063D02*
X1376Y1063D01*
X0Y1062D02*
X7Y1062D01*
X1369Y1062D02*
X1376Y1062D01*
X0Y1061D02*
X7Y1061D01*
X1369Y1061D02*
X1376Y1061D01*
X0Y1060D02*
X7Y1060D01*
X58Y1060D02*
X123Y1060D01*
X1369Y1060D02*
X1376Y1060D01*
X0Y1059D02*
X7Y1059D01*
X58Y1059D02*
X123Y1059D01*
X1369Y1059D02*
X1376Y1059D01*
X0Y1058D02*
X7Y1058D01*
X58Y1058D02*
X123Y1058D01*
X1369Y1058D02*
X1376Y1058D01*
X0Y1057D02*
X7Y1057D01*
X58Y1057D02*
X123Y1057D01*
X1369Y1057D02*
X1376Y1057D01*
X0Y1056D02*
X7Y1056D01*
X58Y1056D02*
X123Y1056D01*
X1369Y1056D02*
X1376Y1056D01*
X0Y1055D02*
X7Y1055D01*
X58Y1055D02*
X123Y1055D01*
X1369Y1055D02*
X1376Y1055D01*
X0Y1054D02*
X7Y1054D01*
X58Y1054D02*
X123Y1054D01*
X1369Y1054D02*
X1376Y1054D01*
X0Y1053D02*
X7Y1053D01*
X58Y1053D02*
X123Y1053D01*
X1369Y1053D02*
X1376Y1053D01*
X0Y1052D02*
X7Y1052D01*
X58Y1052D02*
X123Y1052D01*
X1369Y1052D02*
X1376Y1052D01*
X0Y1051D02*
X7Y1051D01*
X58Y1051D02*
X66Y1051D01*
X87Y1051D02*
X95Y1051D01*
X116Y1051D02*
X123Y1051D01*
X1369Y1051D02*
X1376Y1051D01*
X0Y1050D02*
X7Y1050D01*
X58Y1050D02*
X66Y1050D01*
X87Y1050D02*
X95Y1050D01*
X116Y1050D02*
X123Y1050D01*
X1369Y1050D02*
X1376Y1050D01*
X0Y1049D02*
X7Y1049D01*
X58Y1049D02*
X66Y1049D01*
X87Y1049D02*
X95Y1049D01*
X116Y1049D02*
X123Y1049D01*
X1369Y1049D02*
X1376Y1049D01*
X0Y1048D02*
X7Y1048D01*
X58Y1048D02*
X66Y1048D01*
X87Y1048D02*
X95Y1048D01*
X116Y1048D02*
X123Y1048D01*
X1369Y1048D02*
X1376Y1048D01*
X0Y1047D02*
X7Y1047D01*
X58Y1047D02*
X66Y1047D01*
X87Y1047D02*
X95Y1047D01*
X116Y1047D02*
X123Y1047D01*
X1369Y1047D02*
X1376Y1047D01*
X0Y1046D02*
X7Y1046D01*
X58Y1046D02*
X66Y1046D01*
X87Y1046D02*
X95Y1046D01*
X116Y1046D02*
X123Y1046D01*
X1369Y1046D02*
X1376Y1046D01*
X0Y1045D02*
X7Y1045D01*
X58Y1045D02*
X66Y1045D01*
X87Y1045D02*
X95Y1045D01*
X116Y1045D02*
X123Y1045D01*
X1369Y1045D02*
X1376Y1045D01*
X0Y1044D02*
X7Y1044D01*
X58Y1044D02*
X66Y1044D01*
X87Y1044D02*
X95Y1044D01*
X116Y1044D02*
X123Y1044D01*
X1369Y1044D02*
X1376Y1044D01*
X0Y1043D02*
X7Y1043D01*
X58Y1043D02*
X66Y1043D01*
X87Y1043D02*
X95Y1043D01*
X116Y1043D02*
X123Y1043D01*
X1369Y1043D02*
X1376Y1043D01*
X0Y1042D02*
X7Y1042D01*
X58Y1042D02*
X66Y1042D01*
X87Y1042D02*
X95Y1042D01*
X116Y1042D02*
X123Y1042D01*
X1369Y1042D02*
X1376Y1042D01*
X0Y1041D02*
X7Y1041D01*
X58Y1041D02*
X66Y1041D01*
X87Y1041D02*
X95Y1041D01*
X116Y1041D02*
X123Y1041D01*
X1369Y1041D02*
X1376Y1041D01*
X0Y1040D02*
X7Y1040D01*
X58Y1040D02*
X66Y1040D01*
X87Y1040D02*
X95Y1040D01*
X116Y1040D02*
X123Y1040D01*
X1369Y1040D02*
X1376Y1040D01*
X0Y1039D02*
X7Y1039D01*
X58Y1039D02*
X66Y1039D01*
X87Y1039D02*
X95Y1039D01*
X116Y1039D02*
X123Y1039D01*
X1369Y1039D02*
X1376Y1039D01*
X0Y1038D02*
X7Y1038D01*
X58Y1038D02*
X66Y1038D01*
X87Y1038D02*
X95Y1038D01*
X116Y1038D02*
X123Y1038D01*
X1369Y1038D02*
X1376Y1038D01*
X0Y1037D02*
X7Y1037D01*
X58Y1037D02*
X66Y1037D01*
X87Y1037D02*
X95Y1037D01*
X116Y1037D02*
X123Y1037D01*
X1369Y1037D02*
X1376Y1037D01*
X0Y1036D02*
X7Y1036D01*
X58Y1036D02*
X66Y1036D01*
X87Y1036D02*
X95Y1036D01*
X116Y1036D02*
X123Y1036D01*
X1369Y1036D02*
X1376Y1036D01*
X0Y1035D02*
X7Y1035D01*
X58Y1035D02*
X66Y1035D01*
X87Y1035D02*
X95Y1035D01*
X116Y1035D02*
X123Y1035D01*
X1369Y1035D02*
X1376Y1035D01*
X0Y1034D02*
X7Y1034D01*
X58Y1034D02*
X66Y1034D01*
X87Y1034D02*
X95Y1034D01*
X116Y1034D02*
X123Y1034D01*
X1369Y1034D02*
X1376Y1034D01*
X0Y1033D02*
X7Y1033D01*
X58Y1033D02*
X66Y1033D01*
X87Y1033D02*
X95Y1033D01*
X115Y1033D02*
X123Y1033D01*
X1369Y1033D02*
X1376Y1033D01*
X0Y1032D02*
X7Y1032D01*
X58Y1032D02*
X66Y1032D01*
X86Y1032D02*
X95Y1032D01*
X115Y1032D02*
X123Y1032D01*
X1369Y1032D02*
X1376Y1032D01*
X0Y1031D02*
X7Y1031D01*
X59Y1031D02*
X67Y1031D01*
X86Y1031D02*
X96Y1031D01*
X115Y1031D02*
X123Y1031D01*
X1369Y1031D02*
X1376Y1031D01*
X0Y1030D02*
X7Y1030D01*
X59Y1030D02*
X67Y1030D01*
X85Y1030D02*
X96Y1030D01*
X114Y1030D02*
X122Y1030D01*
X1369Y1030D02*
X1376Y1030D01*
X0Y1029D02*
X7Y1029D01*
X59Y1029D02*
X68Y1029D01*
X84Y1029D02*
X97Y1029D01*
X113Y1029D02*
X122Y1029D01*
X1369Y1029D02*
X1376Y1029D01*
X0Y1028D02*
X7Y1028D01*
X60Y1028D02*
X70Y1028D01*
X83Y1028D02*
X98Y1028D01*
X112Y1028D02*
X122Y1028D01*
X1369Y1028D02*
X1376Y1028D01*
X0Y1027D02*
X7Y1027D01*
X60Y1027D02*
X71Y1027D01*
X81Y1027D02*
X100Y1027D01*
X110Y1027D02*
X121Y1027D01*
X1369Y1027D02*
X1376Y1027D01*
X0Y1026D02*
X7Y1026D01*
X61Y1026D02*
X121Y1026D01*
X1369Y1026D02*
X1376Y1026D01*
X0Y1025D02*
X7Y1025D01*
X62Y1025D02*
X120Y1025D01*
X1369Y1025D02*
X1376Y1025D01*
X0Y1024D02*
X7Y1024D01*
X62Y1024D02*
X119Y1024D01*
X1369Y1024D02*
X1376Y1024D01*
X0Y1023D02*
X7Y1023D01*
X63Y1023D02*
X89Y1023D01*
X92Y1023D02*
X118Y1023D01*
X1369Y1023D02*
X1376Y1023D01*
X0Y1022D02*
X7Y1022D01*
X64Y1022D02*
X88Y1022D01*
X93Y1022D02*
X117Y1022D01*
X1369Y1022D02*
X1376Y1022D01*
X0Y1021D02*
X7Y1021D01*
X66Y1021D02*
X87Y1021D01*
X94Y1021D02*
X116Y1021D01*
X1369Y1021D02*
X1376Y1021D01*
X0Y1020D02*
X7Y1020D01*
X67Y1020D02*
X85Y1020D01*
X96Y1020D02*
X114Y1020D01*
X1369Y1020D02*
X1376Y1020D01*
X0Y1019D02*
X7Y1019D01*
X69Y1019D02*
X83Y1019D01*
X98Y1019D02*
X112Y1019D01*
X1369Y1019D02*
X1376Y1019D01*
X0Y1018D02*
X7Y1018D01*
X74Y1018D02*
X78Y1018D01*
X103Y1018D02*
X107Y1018D01*
X1369Y1018D02*
X1376Y1018D01*
X0Y1017D02*
X7Y1017D01*
X1369Y1017D02*
X1376Y1017D01*
X0Y1016D02*
X7Y1016D01*
X1369Y1016D02*
X1376Y1016D01*
X0Y1015D02*
X7Y1015D01*
X1369Y1015D02*
X1376Y1015D01*
X0Y1014D02*
X7Y1014D01*
X1369Y1014D02*
X1376Y1014D01*
X0Y1013D02*
X7Y1013D01*
X1369Y1013D02*
X1376Y1013D01*
X0Y1012D02*
X7Y1012D01*
X1369Y1012D02*
X1376Y1012D01*
X0Y1011D02*
X7Y1011D01*
X1369Y1011D02*
X1376Y1011D01*
X0Y1010D02*
X7Y1010D01*
X1369Y1010D02*
X1376Y1010D01*
X0Y1009D02*
X7Y1009D01*
X1369Y1009D02*
X1376Y1009D01*
X0Y1008D02*
X7Y1008D01*
X1369Y1008D02*
X1376Y1008D01*
X0Y1007D02*
X7Y1007D01*
X1369Y1007D02*
X1376Y1007D01*
X0Y1006D02*
X7Y1006D01*
X1369Y1006D02*
X1376Y1006D01*
X0Y1005D02*
X7Y1005D01*
X1369Y1005D02*
X1376Y1005D01*
X0Y1004D02*
X7Y1004D01*
X1369Y1004D02*
X1376Y1004D01*
X0Y1003D02*
X7Y1003D01*
X1369Y1003D02*
X1376Y1003D01*
X0Y1002D02*
X7Y1002D01*
X1369Y1002D02*
X1376Y1002D01*
X0Y1001D02*
X7Y1001D01*
X1369Y1001D02*
X1376Y1001D01*
X0Y1000D02*
X7Y1000D01*
X1369Y1000D02*
X1376Y1000D01*
X0Y999D02*
X7Y999D01*
X72Y999D02*
X91Y999D01*
X1369Y999D02*
X1376Y999D01*
X0Y998D02*
X7Y998D01*
X68Y998D02*
X95Y998D01*
X1369Y998D02*
X1376Y998D01*
X0Y997D02*
X7Y997D01*
X66Y997D02*
X97Y997D01*
X1369Y997D02*
X1376Y997D01*
X0Y996D02*
X7Y996D01*
X65Y996D02*
X98Y996D01*
X1369Y996D02*
X1376Y996D01*
X0Y995D02*
X7Y995D01*
X64Y995D02*
X99Y995D01*
X1369Y995D02*
X1376Y995D01*
X0Y994D02*
X7Y994D01*
X63Y994D02*
X100Y994D01*
X1369Y994D02*
X1376Y994D01*
X0Y993D02*
X7Y993D01*
X62Y993D02*
X101Y993D01*
X1369Y993D02*
X1376Y993D01*
X0Y992D02*
X7Y992D01*
X61Y992D02*
X102Y992D01*
X1369Y992D02*
X1376Y992D01*
X0Y991D02*
X7Y991D01*
X61Y991D02*
X103Y991D01*
X1369Y991D02*
X1376Y991D01*
X0Y990D02*
X7Y990D01*
X60Y990D02*
X71Y990D01*
X76Y990D02*
X84Y990D01*
X93Y990D02*
X103Y990D01*
X1369Y990D02*
X1376Y990D01*
X0Y989D02*
X7Y989D01*
X59Y989D02*
X69Y989D01*
X76Y989D02*
X84Y989D01*
X94Y989D02*
X104Y989D01*
X1369Y989D02*
X1376Y989D01*
X0Y988D02*
X7Y988D01*
X59Y988D02*
X68Y988D01*
X76Y988D02*
X84Y988D01*
X95Y988D02*
X104Y988D01*
X1369Y988D02*
X1376Y988D01*
X0Y987D02*
X7Y987D01*
X59Y987D02*
X67Y987D01*
X76Y987D02*
X84Y987D01*
X96Y987D02*
X105Y987D01*
X1369Y987D02*
X1376Y987D01*
X0Y986D02*
X7Y986D01*
X58Y986D02*
X67Y986D01*
X76Y986D02*
X84Y986D01*
X97Y986D02*
X105Y986D01*
X1369Y986D02*
X1376Y986D01*
X0Y985D02*
X7Y985D01*
X58Y985D02*
X66Y985D01*
X76Y985D02*
X84Y985D01*
X97Y985D02*
X105Y985D01*
X1369Y985D02*
X1376Y985D01*
X0Y984D02*
X7Y984D01*
X58Y984D02*
X66Y984D01*
X76Y984D02*
X84Y984D01*
X98Y984D02*
X105Y984D01*
X1369Y984D02*
X1376Y984D01*
X0Y983D02*
X7Y983D01*
X58Y983D02*
X66Y983D01*
X76Y983D02*
X84Y983D01*
X98Y983D02*
X105Y983D01*
X1369Y983D02*
X1376Y983D01*
X0Y982D02*
X7Y982D01*
X58Y982D02*
X66Y982D01*
X76Y982D02*
X84Y982D01*
X98Y982D02*
X105Y982D01*
X1369Y982D02*
X1376Y982D01*
X0Y981D02*
X7Y981D01*
X58Y981D02*
X66Y981D01*
X76Y981D02*
X84Y981D01*
X98Y981D02*
X105Y981D01*
X1369Y981D02*
X1376Y981D01*
X0Y980D02*
X7Y980D01*
X58Y980D02*
X66Y980D01*
X76Y980D02*
X84Y980D01*
X98Y980D02*
X105Y980D01*
X1369Y980D02*
X1376Y980D01*
X0Y979D02*
X7Y979D01*
X58Y979D02*
X66Y979D01*
X76Y979D02*
X84Y979D01*
X98Y979D02*
X105Y979D01*
X1369Y979D02*
X1376Y979D01*
X0Y978D02*
X7Y978D01*
X58Y978D02*
X66Y978D01*
X76Y978D02*
X84Y978D01*
X98Y978D02*
X105Y978D01*
X1369Y978D02*
X1376Y978D01*
X0Y977D02*
X7Y977D01*
X58Y977D02*
X66Y977D01*
X76Y977D02*
X84Y977D01*
X98Y977D02*
X105Y977D01*
X1369Y977D02*
X1376Y977D01*
X0Y976D02*
X7Y976D01*
X58Y976D02*
X66Y976D01*
X76Y976D02*
X84Y976D01*
X98Y976D02*
X105Y976D01*
X1369Y976D02*
X1376Y976D01*
X0Y975D02*
X7Y975D01*
X58Y975D02*
X66Y975D01*
X76Y975D02*
X84Y975D01*
X98Y975D02*
X105Y975D01*
X1369Y975D02*
X1376Y975D01*
X0Y974D02*
X7Y974D01*
X58Y974D02*
X66Y974D01*
X76Y974D02*
X84Y974D01*
X98Y974D02*
X105Y974D01*
X1369Y974D02*
X1376Y974D01*
X0Y973D02*
X7Y973D01*
X58Y973D02*
X66Y973D01*
X76Y973D02*
X84Y973D01*
X98Y973D02*
X105Y973D01*
X1369Y973D02*
X1376Y973D01*
X0Y972D02*
X7Y972D01*
X58Y972D02*
X66Y972D01*
X76Y972D02*
X84Y972D01*
X98Y972D02*
X105Y972D01*
X1369Y972D02*
X1376Y972D01*
X0Y971D02*
X7Y971D01*
X58Y971D02*
X66Y971D01*
X76Y971D02*
X84Y971D01*
X97Y971D02*
X105Y971D01*
X1369Y971D02*
X1376Y971D01*
X0Y970D02*
X7Y970D01*
X58Y970D02*
X66Y970D01*
X76Y970D02*
X84Y970D01*
X97Y970D02*
X105Y970D01*
X1369Y970D02*
X1376Y970D01*
X0Y969D02*
X7Y969D01*
X58Y969D02*
X66Y969D01*
X76Y969D02*
X84Y969D01*
X96Y969D02*
X105Y969D01*
X1369Y969D02*
X1376Y969D01*
X0Y968D02*
X7Y968D01*
X58Y968D02*
X66Y968D01*
X76Y968D02*
X84Y968D01*
X95Y968D02*
X104Y968D01*
X1369Y968D02*
X1376Y968D01*
X0Y967D02*
X7Y967D01*
X58Y967D02*
X66Y967D01*
X76Y967D02*
X84Y967D01*
X94Y967D02*
X104Y967D01*
X1369Y967D02*
X1376Y967D01*
X0Y966D02*
X7Y966D01*
X58Y966D02*
X66Y966D01*
X76Y966D02*
X84Y966D01*
X93Y966D02*
X103Y966D01*
X1369Y966D02*
X1376Y966D01*
X0Y965D02*
X7Y965D01*
X58Y965D02*
X66Y965D01*
X76Y965D02*
X103Y965D01*
X1369Y965D02*
X1376Y965D01*
X0Y964D02*
X7Y964D01*
X58Y964D02*
X66Y964D01*
X76Y964D02*
X102Y964D01*
X1369Y964D02*
X1376Y964D01*
X0Y963D02*
X7Y963D01*
X58Y963D02*
X66Y963D01*
X76Y963D02*
X101Y963D01*
X1369Y963D02*
X1376Y963D01*
X0Y962D02*
X7Y962D01*
X58Y962D02*
X66Y962D01*
X76Y962D02*
X100Y962D01*
X1369Y962D02*
X1376Y962D01*
X0Y961D02*
X7Y961D01*
X58Y961D02*
X66Y961D01*
X76Y961D02*
X99Y961D01*
X1369Y961D02*
X1376Y961D01*
X0Y960D02*
X7Y960D01*
X58Y960D02*
X65Y960D01*
X76Y960D02*
X98Y960D01*
X1369Y960D02*
X1376Y960D01*
X0Y959D02*
X7Y959D01*
X59Y959D02*
X65Y959D01*
X77Y959D02*
X97Y959D01*
X1369Y959D02*
X1376Y959D01*
X0Y958D02*
X7Y958D01*
X60Y958D02*
X64Y958D01*
X78Y958D02*
X95Y958D01*
X1369Y958D02*
X1376Y958D01*
X0Y957D02*
X7Y957D01*
X62Y957D02*
X62Y957D01*
X80Y957D02*
X91Y957D01*
X1369Y957D02*
X1376Y957D01*
X0Y956D02*
X7Y956D01*
X1369Y956D02*
X1376Y956D01*
X0Y955D02*
X7Y955D01*
X1369Y955D02*
X1376Y955D01*
X0Y954D02*
X7Y954D01*
X1369Y954D02*
X1376Y954D01*
X0Y953D02*
X7Y953D01*
X1369Y953D02*
X1376Y953D01*
X0Y952D02*
X7Y952D01*
X1369Y952D02*
X1376Y952D01*
X0Y951D02*
X7Y951D01*
X1369Y951D02*
X1376Y951D01*
X0Y950D02*
X7Y950D01*
X1369Y950D02*
X1376Y950D01*
X0Y949D02*
X7Y949D01*
X1369Y949D02*
X1376Y949D01*
X0Y948D02*
X7Y948D01*
X1369Y948D02*
X1376Y948D01*
X0Y947D02*
X7Y947D01*
X1323Y947D02*
X1323Y947D01*
X1369Y947D02*
X1376Y947D01*
X0Y946D02*
X7Y946D01*
X1322Y946D02*
X1323Y946D01*
X1369Y946D02*
X1376Y946D01*
X0Y945D02*
X7Y945D01*
X1321Y945D02*
X1323Y945D01*
X1369Y945D02*
X1376Y945D01*
X0Y944D02*
X7Y944D01*
X1320Y944D02*
X1323Y944D01*
X1369Y944D02*
X1376Y944D01*
X0Y943D02*
X7Y943D01*
X1319Y943D02*
X1323Y943D01*
X1369Y943D02*
X1376Y943D01*
X0Y942D02*
X7Y942D01*
X916Y942D02*
X919Y942D01*
X1017Y942D02*
X1019Y942D01*
X1218Y942D02*
X1221Y942D01*
X1318Y942D02*
X1323Y942D01*
X1369Y942D02*
X1376Y942D01*
X0Y941D02*
X7Y941D01*
X915Y941D02*
X920Y941D01*
X1015Y941D02*
X1021Y941D01*
X1217Y941D02*
X1222Y941D01*
X1317Y941D02*
X1323Y941D01*
X1369Y941D02*
X1376Y941D01*
X0Y940D02*
X7Y940D01*
X914Y940D02*
X921Y940D01*
X1014Y940D02*
X1021Y940D01*
X1216Y940D02*
X1223Y940D01*
X1316Y940D02*
X1323Y940D01*
X1369Y940D02*
X1376Y940D01*
X0Y939D02*
X7Y939D01*
X914Y939D02*
X922Y939D01*
X1013Y939D02*
X1022Y939D01*
X1216Y939D02*
X1224Y939D01*
X1315Y939D02*
X1323Y939D01*
X1369Y939D02*
X1376Y939D01*
X0Y938D02*
X7Y938D01*
X914Y938D02*
X923Y938D01*
X1012Y938D02*
X1022Y938D01*
X1216Y938D02*
X1225Y938D01*
X1314Y938D02*
X1323Y938D01*
X1369Y938D02*
X1376Y938D01*
X0Y937D02*
X7Y937D01*
X914Y937D02*
X924Y937D01*
X1011Y937D02*
X1021Y937D01*
X1216Y937D02*
X1226Y937D01*
X1313Y937D02*
X1323Y937D01*
X1369Y937D02*
X1376Y937D01*
X0Y936D02*
X7Y936D01*
X915Y936D02*
X925Y936D01*
X1011Y936D02*
X1021Y936D01*
X1217Y936D02*
X1227Y936D01*
X1312Y936D02*
X1323Y936D01*
X1369Y936D02*
X1376Y936D01*
X0Y935D02*
X7Y935D01*
X916Y935D02*
X925Y935D01*
X1011Y935D02*
X1020Y935D01*
X1218Y935D02*
X1227Y935D01*
X1312Y935D02*
X1323Y935D01*
X1369Y935D02*
X1376Y935D01*
X0Y934D02*
X7Y934D01*
X917Y934D02*
X925Y934D01*
X1011Y934D02*
X1019Y934D01*
X1219Y934D02*
X1227Y934D01*
X1312Y934D02*
X1323Y934D01*
X1369Y934D02*
X1376Y934D01*
X0Y933D02*
X7Y933D01*
X60Y933D02*
X64Y933D01*
X117Y933D02*
X121Y933D01*
X918Y933D02*
X925Y933D01*
X1011Y933D02*
X1018Y933D01*
X1220Y933D02*
X1227Y933D01*
X1312Y933D02*
X1323Y933D01*
X1369Y933D02*
X1376Y933D01*
X0Y932D02*
X7Y932D01*
X59Y932D02*
X65Y932D01*
X116Y932D02*
X122Y932D01*
X919Y932D02*
X925Y932D01*
X1011Y932D02*
X1017Y932D01*
X1221Y932D02*
X1227Y932D01*
X1312Y932D02*
X1323Y932D01*
X1369Y932D02*
X1376Y932D01*
X0Y931D02*
X7Y931D01*
X58Y931D02*
X65Y931D01*
X116Y931D02*
X123Y931D01*
X920Y931D02*
X925Y931D01*
X1011Y931D02*
X1016Y931D01*
X1222Y931D02*
X1227Y931D01*
X1312Y931D02*
X1323Y931D01*
X1369Y931D02*
X1376Y931D01*
X0Y930D02*
X7Y930D01*
X58Y930D02*
X66Y930D01*
X116Y930D02*
X123Y930D01*
X921Y930D02*
X925Y930D01*
X1011Y930D02*
X1015Y930D01*
X1223Y930D02*
X1227Y930D01*
X1312Y930D02*
X1323Y930D01*
X1369Y930D02*
X1376Y930D01*
X0Y929D02*
X7Y929D01*
X58Y929D02*
X66Y929D01*
X116Y929D02*
X123Y929D01*
X922Y929D02*
X925Y929D01*
X1011Y929D02*
X1014Y929D01*
X1224Y929D02*
X1227Y929D01*
X1312Y929D02*
X1323Y929D01*
X1369Y929D02*
X1376Y929D01*
X0Y928D02*
X7Y928D01*
X58Y928D02*
X66Y928D01*
X116Y928D02*
X123Y928D01*
X923Y928D02*
X925Y928D01*
X1011Y928D02*
X1013Y928D01*
X1225Y928D02*
X1227Y928D01*
X1312Y928D02*
X1323Y928D01*
X1369Y928D02*
X1376Y928D01*
X0Y927D02*
X7Y927D01*
X58Y927D02*
X66Y927D01*
X116Y927D02*
X123Y927D01*
X924Y927D02*
X925Y927D01*
X1011Y927D02*
X1012Y927D01*
X1226Y927D02*
X1227Y927D01*
X1312Y927D02*
X1323Y927D01*
X1369Y927D02*
X1376Y927D01*
X0Y926D02*
X7Y926D01*
X58Y926D02*
X66Y926D01*
X116Y926D02*
X123Y926D01*
X925Y926D02*
X925Y926D01*
X1011Y926D02*
X1011Y926D01*
X1227Y926D02*
X1227Y926D01*
X1312Y926D02*
X1323Y926D01*
X1369Y926D02*
X1376Y926D01*
X0Y925D02*
X7Y925D01*
X58Y925D02*
X66Y925D01*
X116Y925D02*
X123Y925D01*
X1312Y925D02*
X1323Y925D01*
X1369Y925D02*
X1376Y925D01*
X0Y924D02*
X7Y924D01*
X58Y924D02*
X66Y924D01*
X116Y924D02*
X123Y924D01*
X1312Y924D02*
X1323Y924D01*
X1369Y924D02*
X1376Y924D01*
X0Y923D02*
X7Y923D01*
X58Y923D02*
X66Y923D01*
X116Y923D02*
X123Y923D01*
X1312Y923D02*
X1323Y923D01*
X1369Y923D02*
X1376Y923D01*
X0Y922D02*
X7Y922D01*
X58Y922D02*
X66Y922D01*
X116Y922D02*
X123Y922D01*
X1312Y922D02*
X1323Y922D01*
X1369Y922D02*
X1376Y922D01*
X0Y921D02*
X7Y921D01*
X58Y921D02*
X123Y921D01*
X930Y921D02*
X940Y921D01*
X995Y921D02*
X1006Y921D01*
X1232Y921D02*
X1242Y921D01*
X1297Y921D02*
X1323Y921D01*
X1369Y921D02*
X1376Y921D01*
X0Y920D02*
X7Y920D01*
X58Y920D02*
X123Y920D01*
X931Y920D02*
X941Y920D01*
X994Y920D02*
X1005Y920D01*
X1233Y920D02*
X1243Y920D01*
X1296Y920D02*
X1323Y920D01*
X1369Y920D02*
X1376Y920D01*
X0Y919D02*
X7Y919D01*
X58Y919D02*
X123Y919D01*
X932Y919D02*
X942Y919D01*
X993Y919D02*
X1004Y919D01*
X1234Y919D02*
X1244Y919D01*
X1295Y919D02*
X1323Y919D01*
X1369Y919D02*
X1376Y919D01*
X0Y918D02*
X7Y918D01*
X58Y918D02*
X123Y918D01*
X933Y918D02*
X943Y918D01*
X992Y918D02*
X1003Y918D01*
X1235Y918D02*
X1245Y918D01*
X1294Y918D02*
X1323Y918D01*
X1369Y918D02*
X1376Y918D01*
X0Y917D02*
X7Y917D01*
X58Y917D02*
X123Y917D01*
X934Y917D02*
X944Y917D01*
X991Y917D02*
X1002Y917D01*
X1236Y917D02*
X1246Y917D01*
X1293Y917D02*
X1323Y917D01*
X1369Y917D02*
X1376Y917D01*
X0Y916D02*
X7Y916D01*
X58Y916D02*
X123Y916D01*
X935Y916D02*
X945Y916D01*
X990Y916D02*
X1001Y916D01*
X1237Y916D02*
X1247Y916D01*
X1292Y916D02*
X1323Y916D01*
X1369Y916D02*
X1376Y916D01*
X0Y915D02*
X7Y915D01*
X58Y915D02*
X123Y915D01*
X936Y915D02*
X946Y915D01*
X990Y915D02*
X1000Y915D01*
X1238Y915D02*
X1248Y915D01*
X1291Y915D02*
X1323Y915D01*
X1369Y915D02*
X1376Y915D01*
X0Y914D02*
X7Y914D01*
X58Y914D02*
X122Y914D01*
X937Y914D02*
X946Y914D01*
X990Y914D02*
X999Y914D01*
X1239Y914D02*
X1248Y914D01*
X1290Y914D02*
X1323Y914D01*
X1369Y914D02*
X1376Y914D01*
X0Y913D02*
X7Y913D01*
X58Y913D02*
X120Y913D01*
X938Y913D02*
X946Y913D01*
X990Y913D02*
X998Y913D01*
X1240Y913D02*
X1248Y913D01*
X1289Y913D02*
X1323Y913D01*
X1369Y913D02*
X1376Y913D01*
X0Y912D02*
X7Y912D01*
X58Y912D02*
X66Y912D01*
X939Y912D02*
X946Y912D01*
X990Y912D02*
X997Y912D01*
X1241Y912D02*
X1248Y912D01*
X1288Y912D02*
X1323Y912D01*
X1369Y912D02*
X1376Y912D01*
X0Y911D02*
X7Y911D01*
X58Y911D02*
X66Y911D01*
X940Y911D02*
X945Y911D01*
X990Y911D02*
X996Y911D01*
X1242Y911D02*
X1247Y911D01*
X1287Y911D02*
X1323Y911D01*
X1369Y911D02*
X1376Y911D01*
X0Y910D02*
X7Y910D01*
X58Y910D02*
X66Y910D01*
X941Y910D02*
X944Y910D01*
X992Y910D02*
X994Y910D01*
X1243Y910D02*
X1246Y910D01*
X1286Y910D02*
X1323Y910D01*
X1369Y910D02*
X1376Y910D01*
X0Y909D02*
X7Y909D01*
X58Y909D02*
X66Y909D01*
X1369Y909D02*
X1376Y909D01*
X0Y908D02*
X7Y908D01*
X58Y908D02*
X66Y908D01*
X1369Y908D02*
X1376Y908D01*
X0Y907D02*
X7Y907D01*
X58Y907D02*
X66Y907D01*
X1369Y907D02*
X1376Y907D01*
X0Y906D02*
X7Y906D01*
X58Y906D02*
X66Y906D01*
X1369Y906D02*
X1376Y906D01*
X0Y905D02*
X7Y905D01*
X58Y905D02*
X66Y905D01*
X1369Y905D02*
X1376Y905D01*
X0Y904D02*
X7Y904D01*
X58Y904D02*
X66Y904D01*
X1369Y904D02*
X1376Y904D01*
X0Y903D02*
X7Y903D01*
X58Y903D02*
X65Y903D01*
X1369Y903D02*
X1376Y903D01*
X0Y902D02*
X7Y902D01*
X59Y902D02*
X65Y902D01*
X1369Y902D02*
X1376Y902D01*
X0Y901D02*
X7Y901D01*
X60Y901D02*
X64Y901D01*
X1369Y901D02*
X1376Y901D01*
X0Y900D02*
X7Y900D01*
X1369Y900D02*
X1376Y900D01*
X0Y899D02*
X7Y899D01*
X1369Y899D02*
X1376Y899D01*
X0Y898D02*
X7Y898D01*
X1369Y898D02*
X1376Y898D01*
X0Y897D02*
X7Y897D01*
X1369Y897D02*
X1376Y897D01*
X0Y896D02*
X7Y896D01*
X1369Y896D02*
X1376Y896D01*
X0Y895D02*
X7Y895D01*
X1369Y895D02*
X1376Y895D01*
X0Y894D02*
X7Y894D01*
X1369Y894D02*
X1376Y894D01*
X0Y893D02*
X7Y893D01*
X1369Y893D02*
X1376Y893D01*
X0Y892D02*
X7Y892D01*
X1369Y892D02*
X1376Y892D01*
X0Y891D02*
X7Y891D01*
X1369Y891D02*
X1376Y891D01*
X0Y890D02*
X7Y890D01*
X1369Y890D02*
X1376Y890D01*
X0Y889D02*
X7Y889D01*
X1369Y889D02*
X1376Y889D01*
X0Y888D02*
X7Y888D01*
X1369Y888D02*
X1376Y888D01*
X0Y887D02*
X7Y887D01*
X1369Y887D02*
X1376Y887D01*
X0Y886D02*
X7Y886D01*
X1369Y886D02*
X1376Y886D01*
X0Y885D02*
X7Y885D01*
X1369Y885D02*
X1376Y885D01*
X0Y884D02*
X7Y884D01*
X1369Y884D02*
X1376Y884D01*
X0Y883D02*
X7Y883D01*
X1369Y883D02*
X1376Y883D01*
X0Y882D02*
X7Y882D01*
X1369Y882D02*
X1376Y882D01*
X0Y881D02*
X7Y881D01*
X1369Y881D02*
X1376Y881D01*
X0Y880D02*
X7Y880D01*
X1369Y880D02*
X1376Y880D01*
X0Y879D02*
X7Y879D01*
X1369Y879D02*
X1376Y879D01*
X0Y878D02*
X7Y878D01*
X1369Y878D02*
X1376Y878D01*
X0Y877D02*
X7Y877D01*
X1369Y877D02*
X1376Y877D01*
X0Y876D02*
X7Y876D01*
X1369Y876D02*
X1376Y876D01*
X0Y875D02*
X7Y875D01*
X1369Y875D02*
X1376Y875D01*
X0Y874D02*
X7Y874D01*
X1369Y874D02*
X1376Y874D01*
X0Y873D02*
X7Y873D01*
X1369Y873D02*
X1376Y873D01*
X0Y872D02*
X7Y872D01*
X60Y872D02*
X64Y872D01*
X117Y872D02*
X121Y872D01*
X1369Y872D02*
X1376Y872D01*
X0Y871D02*
X7Y871D01*
X59Y871D02*
X65Y871D01*
X116Y871D02*
X122Y871D01*
X1369Y871D02*
X1376Y871D01*
X0Y870D02*
X7Y870D01*
X58Y870D02*
X65Y870D01*
X116Y870D02*
X123Y870D01*
X1369Y870D02*
X1376Y870D01*
X0Y869D02*
X7Y869D01*
X58Y869D02*
X66Y869D01*
X116Y869D02*
X123Y869D01*
X1369Y869D02*
X1376Y869D01*
X0Y868D02*
X7Y868D01*
X58Y868D02*
X66Y868D01*
X116Y868D02*
X123Y868D01*
X1369Y868D02*
X1376Y868D01*
X0Y867D02*
X7Y867D01*
X58Y867D02*
X66Y867D01*
X116Y867D02*
X123Y867D01*
X1369Y867D02*
X1376Y867D01*
X0Y866D02*
X7Y866D01*
X58Y866D02*
X66Y866D01*
X116Y866D02*
X123Y866D01*
X1369Y866D02*
X1376Y866D01*
X0Y865D02*
X7Y865D01*
X58Y865D02*
X66Y865D01*
X116Y865D02*
X123Y865D01*
X1369Y865D02*
X1376Y865D01*
X0Y864D02*
X7Y864D01*
X58Y864D02*
X66Y864D01*
X116Y864D02*
X123Y864D01*
X1369Y864D02*
X1376Y864D01*
X0Y863D02*
X7Y863D01*
X58Y863D02*
X66Y863D01*
X116Y863D02*
X123Y863D01*
X1369Y863D02*
X1376Y863D01*
X0Y862D02*
X7Y862D01*
X58Y862D02*
X66Y862D01*
X116Y862D02*
X123Y862D01*
X1369Y862D02*
X1376Y862D01*
X0Y861D02*
X7Y861D01*
X58Y861D02*
X66Y861D01*
X116Y861D02*
X123Y861D01*
X1369Y861D02*
X1376Y861D01*
X0Y860D02*
X7Y860D01*
X58Y860D02*
X123Y860D01*
X1369Y860D02*
X1376Y860D01*
X0Y859D02*
X7Y859D01*
X58Y859D02*
X123Y859D01*
X1369Y859D02*
X1376Y859D01*
X0Y858D02*
X7Y858D01*
X58Y858D02*
X123Y858D01*
X1369Y858D02*
X1376Y858D01*
X0Y857D02*
X7Y857D01*
X58Y857D02*
X123Y857D01*
X1369Y857D02*
X1376Y857D01*
X0Y856D02*
X7Y856D01*
X58Y856D02*
X123Y856D01*
X1369Y856D02*
X1376Y856D01*
X0Y855D02*
X7Y855D01*
X58Y855D02*
X123Y855D01*
X1369Y855D02*
X1376Y855D01*
X0Y854D02*
X7Y854D01*
X58Y854D02*
X123Y854D01*
X1369Y854D02*
X1376Y854D01*
X0Y853D02*
X7Y853D01*
X58Y853D02*
X122Y853D01*
X1369Y853D02*
X1376Y853D01*
X0Y852D02*
X7Y852D01*
X58Y852D02*
X120Y852D01*
X1369Y852D02*
X1376Y852D01*
X0Y851D02*
X7Y851D01*
X58Y851D02*
X66Y851D01*
X1369Y851D02*
X1376Y851D01*
X0Y850D02*
X7Y850D01*
X58Y850D02*
X66Y850D01*
X1369Y850D02*
X1376Y850D01*
X0Y849D02*
X7Y849D01*
X58Y849D02*
X66Y849D01*
X1369Y849D02*
X1376Y849D01*
X0Y848D02*
X7Y848D01*
X58Y848D02*
X66Y848D01*
X1369Y848D02*
X1376Y848D01*
X0Y847D02*
X7Y847D01*
X58Y847D02*
X66Y847D01*
X1369Y847D02*
X1376Y847D01*
X0Y846D02*
X7Y846D01*
X58Y846D02*
X66Y846D01*
X1369Y846D02*
X1376Y846D01*
X0Y845D02*
X7Y845D01*
X58Y845D02*
X66Y845D01*
X1369Y845D02*
X1376Y845D01*
X0Y844D02*
X7Y844D01*
X58Y844D02*
X66Y844D01*
X1369Y844D02*
X1376Y844D01*
X0Y843D02*
X7Y843D01*
X58Y843D02*
X66Y843D01*
X1369Y843D02*
X1376Y843D01*
X0Y842D02*
X7Y842D01*
X58Y842D02*
X65Y842D01*
X1369Y842D02*
X1376Y842D01*
X0Y841D02*
X7Y841D01*
X59Y841D02*
X65Y841D01*
X1369Y841D02*
X1376Y841D01*
X0Y840D02*
X7Y840D01*
X60Y840D02*
X64Y840D01*
X1369Y840D02*
X1376Y840D01*
X0Y839D02*
X7Y839D01*
X1369Y839D02*
X1376Y839D01*
X0Y838D02*
X7Y838D01*
X1369Y838D02*
X1376Y838D01*
X0Y837D02*
X7Y837D01*
X1369Y837D02*
X1376Y837D01*
X0Y836D02*
X7Y836D01*
X1369Y836D02*
X1376Y836D01*
X0Y835D02*
X7Y835D01*
X1369Y835D02*
X1376Y835D01*
X0Y834D02*
X7Y834D01*
X1369Y834D02*
X1376Y834D01*
X0Y833D02*
X7Y833D01*
X1369Y833D02*
X1376Y833D01*
X0Y832D02*
X7Y832D01*
X1369Y832D02*
X1376Y832D01*
X0Y831D02*
X7Y831D01*
X397Y831D02*
X448Y831D01*
X1369Y831D02*
X1376Y831D01*
X0Y830D02*
X7Y830D01*
X397Y830D02*
X449Y830D01*
X1369Y830D02*
X1376Y830D01*
X0Y829D02*
X7Y829D01*
X396Y829D02*
X449Y829D01*
X1369Y829D02*
X1376Y829D01*
X0Y828D02*
X7Y828D01*
X396Y828D02*
X449Y828D01*
X1369Y828D02*
X1376Y828D01*
X0Y827D02*
X7Y827D01*
X397Y827D02*
X449Y827D01*
X1369Y827D02*
X1376Y827D01*
X0Y826D02*
X7Y826D01*
X397Y826D02*
X448Y826D01*
X1369Y826D02*
X1376Y826D01*
X0Y825D02*
X7Y825D01*
X400Y825D02*
X446Y825D01*
X1369Y825D02*
X1376Y825D01*
X0Y824D02*
X7Y824D01*
X420Y824D02*
X426Y824D01*
X1369Y824D02*
X1376Y824D01*
X0Y823D02*
X7Y823D01*
X420Y823D02*
X426Y823D01*
X1369Y823D02*
X1376Y823D01*
X0Y822D02*
X7Y822D01*
X420Y822D02*
X426Y822D01*
X1369Y822D02*
X1376Y822D01*
X0Y821D02*
X7Y821D01*
X420Y821D02*
X426Y821D01*
X1369Y821D02*
X1376Y821D01*
X0Y820D02*
X7Y820D01*
X420Y820D02*
X426Y820D01*
X1369Y820D02*
X1376Y820D01*
X0Y819D02*
X7Y819D01*
X420Y819D02*
X426Y819D01*
X1369Y819D02*
X1376Y819D01*
X0Y818D02*
X7Y818D01*
X420Y818D02*
X426Y818D01*
X1369Y818D02*
X1376Y818D01*
X0Y817D02*
X7Y817D01*
X420Y817D02*
X426Y817D01*
X1369Y817D02*
X1376Y817D01*
X0Y816D02*
X7Y816D01*
X69Y816D02*
X69Y816D01*
X114Y816D02*
X114Y816D01*
X420Y816D02*
X426Y816D01*
X1369Y816D02*
X1376Y816D01*
X0Y815D02*
X7Y815D01*
X65Y815D02*
X71Y815D01*
X110Y815D02*
X118Y815D01*
X420Y815D02*
X426Y815D01*
X1369Y815D02*
X1376Y815D01*
X0Y814D02*
X7Y814D01*
X63Y814D02*
X72Y814D01*
X109Y814D02*
X120Y814D01*
X420Y814D02*
X426Y814D01*
X1369Y814D02*
X1376Y814D01*
X0Y813D02*
X7Y813D01*
X62Y813D02*
X73Y813D01*
X107Y813D02*
X121Y813D01*
X420Y813D02*
X426Y813D01*
X1369Y813D02*
X1376Y813D01*
X0Y812D02*
X7Y812D01*
X61Y812D02*
X73Y812D01*
X106Y812D02*
X121Y812D01*
X420Y812D02*
X426Y812D01*
X1369Y812D02*
X1376Y812D01*
X0Y811D02*
X7Y811D01*
X60Y811D02*
X73Y811D01*
X105Y811D02*
X122Y811D01*
X420Y811D02*
X426Y811D01*
X1369Y811D02*
X1376Y811D01*
X0Y810D02*
X7Y810D01*
X60Y810D02*
X72Y810D01*
X103Y810D02*
X123Y810D01*
X420Y810D02*
X426Y810D01*
X1369Y810D02*
X1376Y810D01*
X0Y809D02*
X7Y809D01*
X59Y809D02*
X72Y809D01*
X102Y809D02*
X123Y809D01*
X420Y809D02*
X426Y809D01*
X1369Y809D02*
X1376Y809D01*
X0Y808D02*
X7Y808D01*
X59Y808D02*
X70Y808D01*
X101Y808D02*
X123Y808D01*
X420Y808D02*
X426Y808D01*
X1369Y808D02*
X1376Y808D01*
X0Y807D02*
X7Y807D01*
X58Y807D02*
X67Y807D01*
X99Y807D02*
X113Y807D01*
X115Y807D02*
X123Y807D01*
X420Y807D02*
X426Y807D01*
X1369Y807D02*
X1376Y807D01*
X0Y806D02*
X7Y806D01*
X58Y806D02*
X66Y806D01*
X98Y806D02*
X111Y806D01*
X116Y806D02*
X123Y806D01*
X420Y806D02*
X426Y806D01*
X1369Y806D02*
X1376Y806D01*
X0Y805D02*
X7Y805D01*
X58Y805D02*
X66Y805D01*
X97Y805D02*
X110Y805D01*
X116Y805D02*
X123Y805D01*
X420Y805D02*
X426Y805D01*
X1369Y805D02*
X1376Y805D01*
X0Y804D02*
X7Y804D01*
X58Y804D02*
X66Y804D01*
X96Y804D02*
X109Y804D01*
X116Y804D02*
X123Y804D01*
X398Y804D02*
X447Y804D01*
X1369Y804D02*
X1376Y804D01*
X0Y803D02*
X7Y803D01*
X58Y803D02*
X66Y803D01*
X94Y803D02*
X107Y803D01*
X116Y803D02*
X123Y803D01*
X397Y803D02*
X449Y803D01*
X1369Y803D02*
X1376Y803D01*
X0Y802D02*
X7Y802D01*
X58Y802D02*
X66Y802D01*
X93Y802D02*
X106Y802D01*
X116Y802D02*
X123Y802D01*
X396Y802D02*
X449Y802D01*
X1369Y802D02*
X1376Y802D01*
X0Y801D02*
X7Y801D01*
X58Y801D02*
X66Y801D01*
X92Y801D02*
X105Y801D01*
X116Y801D02*
X123Y801D01*
X396Y801D02*
X449Y801D01*
X1369Y801D02*
X1376Y801D01*
X0Y800D02*
X7Y800D01*
X58Y800D02*
X66Y800D01*
X90Y800D02*
X104Y800D01*
X116Y800D02*
X123Y800D01*
X396Y800D02*
X449Y800D01*
X1369Y800D02*
X1376Y800D01*
X0Y799D02*
X7Y799D01*
X58Y799D02*
X66Y799D01*
X89Y799D02*
X102Y799D01*
X116Y799D02*
X123Y799D01*
X397Y799D02*
X449Y799D01*
X1369Y799D02*
X1376Y799D01*
X0Y798D02*
X7Y798D01*
X58Y798D02*
X66Y798D01*
X88Y798D02*
X101Y798D01*
X116Y798D02*
X123Y798D01*
X398Y798D02*
X448Y798D01*
X1369Y798D02*
X1376Y798D01*
X0Y797D02*
X7Y797D01*
X58Y797D02*
X66Y797D01*
X87Y797D02*
X100Y797D01*
X116Y797D02*
X123Y797D01*
X1369Y797D02*
X1376Y797D01*
X0Y796D02*
X7Y796D01*
X58Y796D02*
X66Y796D01*
X85Y796D02*
X98Y796D01*
X116Y796D02*
X123Y796D01*
X1369Y796D02*
X1376Y796D01*
X0Y795D02*
X7Y795D01*
X58Y795D02*
X66Y795D01*
X84Y795D02*
X97Y795D01*
X116Y795D02*
X123Y795D01*
X1369Y795D02*
X1376Y795D01*
X0Y794D02*
X7Y794D01*
X58Y794D02*
X66Y794D01*
X83Y794D02*
X96Y794D01*
X116Y794D02*
X123Y794D01*
X1369Y794D02*
X1376Y794D01*
X0Y793D02*
X7Y793D01*
X58Y793D02*
X66Y793D01*
X81Y793D02*
X95Y793D01*
X116Y793D02*
X123Y793D01*
X1369Y793D02*
X1376Y793D01*
X0Y792D02*
X7Y792D01*
X58Y792D02*
X66Y792D01*
X80Y792D02*
X93Y792D01*
X116Y792D02*
X123Y792D01*
X1369Y792D02*
X1376Y792D01*
X0Y791D02*
X7Y791D01*
X58Y791D02*
X66Y791D01*
X79Y791D02*
X92Y791D01*
X116Y791D02*
X123Y791D01*
X1369Y791D02*
X1376Y791D01*
X0Y790D02*
X7Y790D01*
X58Y790D02*
X66Y790D01*
X78Y790D02*
X91Y790D01*
X116Y790D02*
X123Y790D01*
X1369Y790D02*
X1376Y790D01*
X0Y789D02*
X7Y789D01*
X58Y789D02*
X66Y789D01*
X76Y789D02*
X89Y789D01*
X116Y789D02*
X123Y789D01*
X1369Y789D02*
X1376Y789D01*
X0Y788D02*
X7Y788D01*
X58Y788D02*
X66Y788D01*
X75Y788D02*
X88Y788D01*
X116Y788D02*
X123Y788D01*
X1369Y788D02*
X1376Y788D01*
X0Y787D02*
X7Y787D01*
X58Y787D02*
X66Y787D01*
X74Y787D02*
X87Y787D01*
X116Y787D02*
X123Y787D01*
X1369Y787D02*
X1376Y787D01*
X0Y786D02*
X7Y786D01*
X58Y786D02*
X66Y786D01*
X72Y786D02*
X86Y786D01*
X116Y786D02*
X123Y786D01*
X1369Y786D02*
X1376Y786D01*
X0Y785D02*
X7Y785D01*
X58Y785D02*
X66Y785D01*
X71Y785D02*
X84Y785D01*
X116Y785D02*
X123Y785D01*
X1369Y785D02*
X1376Y785D01*
X0Y784D02*
X7Y784D01*
X58Y784D02*
X66Y784D01*
X70Y784D02*
X83Y784D01*
X115Y784D02*
X123Y784D01*
X1369Y784D02*
X1376Y784D01*
X0Y783D02*
X7Y783D01*
X58Y783D02*
X66Y783D01*
X69Y783D02*
X82Y783D01*
X114Y783D02*
X123Y783D01*
X1369Y783D02*
X1376Y783D01*
X0Y782D02*
X7Y782D01*
X58Y782D02*
X80Y782D01*
X111Y782D02*
X123Y782D01*
X397Y782D02*
X446Y782D01*
X1369Y782D02*
X1376Y782D01*
X0Y781D02*
X7Y781D01*
X58Y781D02*
X79Y781D01*
X110Y781D02*
X122Y781D01*
X396Y781D02*
X448Y781D01*
X1369Y781D02*
X1376Y781D01*
X0Y780D02*
X7Y780D01*
X59Y780D02*
X78Y780D01*
X109Y780D02*
X122Y780D01*
X396Y780D02*
X449Y780D01*
X1369Y780D02*
X1376Y780D01*
X0Y779D02*
X7Y779D01*
X59Y779D02*
X77Y779D01*
X109Y779D02*
X121Y779D01*
X396Y779D02*
X449Y779D01*
X1369Y779D02*
X1376Y779D01*
X0Y778D02*
X7Y778D01*
X60Y778D02*
X75Y778D01*
X109Y778D02*
X120Y778D01*
X396Y778D02*
X449Y778D01*
X1369Y778D02*
X1376Y778D01*
X0Y777D02*
X7Y777D01*
X61Y777D02*
X74Y777D01*
X109Y777D02*
X119Y777D01*
X396Y777D02*
X449Y777D01*
X1369Y777D02*
X1376Y777D01*
X0Y776D02*
X7Y776D01*
X62Y776D02*
X73Y776D01*
X109Y776D02*
X118Y776D01*
X396Y776D02*
X448Y776D01*
X1369Y776D02*
X1376Y776D01*
X0Y775D02*
X7Y775D01*
X63Y775D02*
X71Y775D01*
X110Y775D02*
X117Y775D01*
X396Y775D02*
X446Y775D01*
X1369Y775D02*
X1376Y775D01*
X0Y774D02*
X7Y774D01*
X67Y774D02*
X68Y774D01*
X112Y774D02*
X113Y774D01*
X396Y774D02*
X402Y774D01*
X1369Y774D02*
X1376Y774D01*
X0Y773D02*
X7Y773D01*
X396Y773D02*
X402Y773D01*
X1369Y773D02*
X1376Y773D01*
X0Y772D02*
X7Y772D01*
X396Y772D02*
X402Y772D01*
X1369Y772D02*
X1376Y772D01*
X0Y771D02*
X7Y771D01*
X396Y771D02*
X402Y771D01*
X1369Y771D02*
X1376Y771D01*
X0Y770D02*
X7Y770D01*
X396Y770D02*
X402Y770D01*
X1369Y770D02*
X1376Y770D01*
X0Y769D02*
X7Y769D01*
X396Y769D02*
X402Y769D01*
X1369Y769D02*
X1376Y769D01*
X0Y768D02*
X7Y768D01*
X396Y768D02*
X402Y768D01*
X1369Y768D02*
X1376Y768D01*
X0Y767D02*
X7Y767D01*
X396Y767D02*
X402Y767D01*
X1369Y767D02*
X1376Y767D01*
X0Y766D02*
X7Y766D01*
X396Y766D02*
X402Y766D01*
X1369Y766D02*
X1376Y766D01*
X0Y765D02*
X7Y765D01*
X396Y765D02*
X402Y765D01*
X1369Y765D02*
X1376Y765D01*
X0Y764D02*
X7Y764D01*
X396Y764D02*
X402Y764D01*
X1369Y764D02*
X1376Y764D01*
X0Y763D02*
X7Y763D01*
X396Y763D02*
X402Y763D01*
X1369Y763D02*
X1376Y763D01*
X0Y762D02*
X7Y762D01*
X396Y762D02*
X402Y762D01*
X1369Y762D02*
X1376Y762D01*
X0Y761D02*
X7Y761D01*
X396Y761D02*
X402Y761D01*
X1369Y761D02*
X1376Y761D01*
X0Y760D02*
X7Y760D01*
X396Y760D02*
X402Y760D01*
X1369Y760D02*
X1376Y760D01*
X0Y759D02*
X7Y759D01*
X396Y759D02*
X402Y759D01*
X1369Y759D02*
X1376Y759D01*
X0Y758D02*
X7Y758D01*
X396Y758D02*
X402Y758D01*
X1369Y758D02*
X1376Y758D01*
X0Y757D02*
X7Y757D01*
X396Y757D02*
X402Y757D01*
X1369Y757D02*
X1376Y757D01*
X0Y756D02*
X7Y756D01*
X396Y756D02*
X402Y756D01*
X1369Y756D02*
X1376Y756D01*
X0Y755D02*
X7Y755D01*
X76Y755D02*
X104Y755D01*
X396Y755D02*
X402Y755D01*
X1369Y755D02*
X1376Y755D01*
X0Y754D02*
X7Y754D01*
X73Y754D02*
X104Y754D01*
X396Y754D02*
X402Y754D01*
X1369Y754D02*
X1376Y754D01*
X0Y753D02*
X7Y753D01*
X69Y753D02*
X105Y753D01*
X396Y753D02*
X402Y753D01*
X1369Y753D02*
X1376Y753D01*
X0Y752D02*
X7Y752D01*
X66Y752D02*
X105Y752D01*
X396Y752D02*
X402Y752D01*
X1369Y752D02*
X1376Y752D01*
X0Y751D02*
X7Y751D01*
X62Y751D02*
X105Y751D01*
X396Y751D02*
X402Y751D01*
X1369Y751D02*
X1376Y751D01*
X0Y750D02*
X7Y750D01*
X60Y750D02*
X105Y750D01*
X396Y750D02*
X402Y750D01*
X1369Y750D02*
X1376Y750D01*
X0Y749D02*
X7Y749D01*
X59Y749D02*
X104Y749D01*
X397Y749D02*
X402Y749D01*
X1369Y749D02*
X1376Y749D01*
X0Y748D02*
X7Y748D01*
X58Y748D02*
X103Y748D01*
X398Y748D02*
X401Y748D01*
X1369Y748D02*
X1376Y748D01*
X0Y747D02*
X7Y747D01*
X58Y747D02*
X89Y747D01*
X1369Y747D02*
X1376Y747D01*
X0Y746D02*
X7Y746D01*
X58Y746D02*
X75Y746D01*
X1369Y746D02*
X1376Y746D01*
X0Y745D02*
X7Y745D01*
X58Y745D02*
X71Y745D01*
X1369Y745D02*
X1376Y745D01*
X0Y744D02*
X7Y744D01*
X58Y744D02*
X68Y744D01*
X1369Y744D02*
X1376Y744D01*
X0Y743D02*
X7Y743D01*
X58Y743D02*
X69Y743D01*
X1369Y743D02*
X1376Y743D01*
X0Y742D02*
X7Y742D01*
X58Y742D02*
X71Y742D01*
X1369Y742D02*
X1376Y742D01*
X0Y741D02*
X7Y741D01*
X58Y741D02*
X72Y741D01*
X1369Y741D02*
X1376Y741D01*
X0Y740D02*
X7Y740D01*
X59Y740D02*
X74Y740D01*
X1369Y740D02*
X1376Y740D01*
X0Y739D02*
X7Y739D01*
X60Y739D02*
X76Y739D01*
X1369Y739D02*
X1376Y739D01*
X0Y738D02*
X7Y738D01*
X61Y738D02*
X88Y738D01*
X1369Y738D02*
X1376Y738D01*
X0Y737D02*
X7Y737D01*
X63Y737D02*
X89Y737D01*
X1369Y737D02*
X1376Y737D01*
X0Y736D02*
X7Y736D01*
X65Y736D02*
X90Y736D01*
X962Y736D02*
X962Y736D01*
X970Y736D02*
X971Y736D01*
X1369Y736D02*
X1376Y736D01*
X0Y735D02*
X7Y735D01*
X67Y735D02*
X91Y735D01*
X962Y735D02*
X971Y735D01*
X1369Y735D02*
X1376Y735D01*
X0Y734D02*
X7Y734D01*
X68Y734D02*
X91Y734D01*
X962Y734D02*
X971Y734D01*
X1369Y734D02*
X1376Y734D01*
X0Y733D02*
X7Y733D01*
X67Y733D02*
X91Y733D01*
X962Y733D02*
X971Y733D01*
X1369Y733D02*
X1376Y733D01*
X0Y732D02*
X7Y732D01*
X65Y732D02*
X90Y732D01*
X400Y732D02*
X446Y732D01*
X962Y732D02*
X971Y732D01*
X1369Y732D02*
X1376Y732D01*
X0Y731D02*
X7Y731D01*
X63Y731D02*
X90Y731D01*
X397Y731D02*
X448Y731D01*
X962Y731D02*
X971Y731D01*
X1369Y731D02*
X1376Y731D01*
X0Y730D02*
X7Y730D01*
X61Y730D02*
X88Y730D01*
X397Y730D02*
X449Y730D01*
X962Y730D02*
X971Y730D01*
X1369Y730D02*
X1376Y730D01*
X0Y729D02*
X7Y729D01*
X60Y729D02*
X76Y729D01*
X396Y729D02*
X449Y729D01*
X962Y729D02*
X971Y729D01*
X1369Y729D02*
X1376Y729D01*
X0Y728D02*
X7Y728D01*
X59Y728D02*
X74Y728D01*
X396Y728D02*
X449Y728D01*
X962Y728D02*
X971Y728D01*
X1369Y728D02*
X1376Y728D01*
X0Y727D02*
X7Y727D01*
X58Y727D02*
X72Y727D01*
X397Y727D02*
X449Y727D01*
X962Y727D02*
X971Y727D01*
X1369Y727D02*
X1376Y727D01*
X0Y726D02*
X7Y726D01*
X58Y726D02*
X71Y726D01*
X397Y726D02*
X448Y726D01*
X962Y726D02*
X971Y726D01*
X1369Y726D02*
X1376Y726D01*
X0Y725D02*
X7Y725D01*
X58Y725D02*
X69Y725D01*
X415Y725D02*
X431Y725D01*
X962Y725D02*
X971Y725D01*
X1090Y725D02*
X1143Y725D01*
X1369Y725D02*
X1376Y725D01*
X0Y724D02*
X7Y724D01*
X58Y724D02*
X68Y724D01*
X415Y724D02*
X431Y724D01*
X962Y724D02*
X971Y724D01*
X1090Y724D02*
X1143Y724D01*
X1369Y724D02*
X1376Y724D01*
X0Y723D02*
X7Y723D01*
X58Y723D02*
X71Y723D01*
X414Y723D02*
X432Y723D01*
X962Y723D02*
X971Y723D01*
X1090Y723D02*
X1143Y723D01*
X1369Y723D02*
X1376Y723D01*
X0Y722D02*
X7Y722D01*
X58Y722D02*
X74Y722D01*
X413Y722D02*
X421Y722D01*
X424Y722D02*
X433Y722D01*
X962Y722D02*
X971Y722D01*
X1090Y722D02*
X1143Y722D01*
X1369Y722D02*
X1376Y722D01*
X0Y721D02*
X7Y721D01*
X58Y721D02*
X88Y721D01*
X412Y721D02*
X421Y721D01*
X425Y721D02*
X433Y721D01*
X962Y721D02*
X971Y721D01*
X1090Y721D02*
X1143Y721D01*
X1369Y721D02*
X1376Y721D01*
X0Y720D02*
X7Y720D01*
X58Y720D02*
X103Y720D01*
X411Y720D02*
X420Y720D01*
X426Y720D02*
X434Y720D01*
X962Y720D02*
X971Y720D01*
X1090Y720D02*
X1143Y720D01*
X1369Y720D02*
X1376Y720D01*
X0Y719D02*
X7Y719D01*
X59Y719D02*
X104Y719D01*
X411Y719D02*
X419Y719D01*
X427Y719D02*
X435Y719D01*
X962Y719D02*
X971Y719D01*
X1090Y719D02*
X1143Y719D01*
X1369Y719D02*
X1376Y719D01*
X0Y718D02*
X7Y718D01*
X60Y718D02*
X105Y718D01*
X410Y718D02*
X418Y718D01*
X428Y718D02*
X436Y718D01*
X962Y718D02*
X971Y718D01*
X1090Y718D02*
X1096Y718D01*
X1113Y718D02*
X1119Y718D01*
X1137Y718D02*
X1143Y718D01*
X1369Y718D02*
X1376Y718D01*
X0Y717D02*
X7Y717D01*
X62Y717D02*
X105Y717D01*
X409Y717D02*
X417Y717D01*
X429Y717D02*
X437Y717D01*
X962Y717D02*
X971Y717D01*
X1090Y717D02*
X1096Y717D01*
X1113Y717D02*
X1119Y717D01*
X1137Y717D02*
X1143Y717D01*
X1369Y717D02*
X1376Y717D01*
X0Y716D02*
X7Y716D01*
X65Y716D02*
X105Y716D01*
X408Y716D02*
X416Y716D01*
X429Y716D02*
X438Y716D01*
X962Y716D02*
X971Y716D01*
X1090Y716D02*
X1096Y716D01*
X1113Y716D02*
X1119Y716D01*
X1137Y716D02*
X1143Y716D01*
X1369Y716D02*
X1376Y716D01*
X0Y715D02*
X7Y715D01*
X69Y715D02*
X105Y715D01*
X407Y715D02*
X415Y715D01*
X430Y715D02*
X439Y715D01*
X962Y715D02*
X971Y715D01*
X1090Y715D02*
X1096Y715D01*
X1113Y715D02*
X1119Y715D01*
X1137Y715D02*
X1143Y715D01*
X1369Y715D02*
X1376Y715D01*
X0Y714D02*
X7Y714D01*
X72Y714D02*
X104Y714D01*
X406Y714D02*
X415Y714D01*
X431Y714D02*
X439Y714D01*
X962Y714D02*
X971Y714D01*
X1090Y714D02*
X1096Y714D01*
X1113Y714D02*
X1119Y714D01*
X1137Y714D02*
X1143Y714D01*
X1369Y714D02*
X1376Y714D01*
X0Y713D02*
X7Y713D01*
X75Y713D02*
X104Y713D01*
X405Y713D02*
X414Y713D01*
X432Y713D02*
X440Y713D01*
X851Y713D02*
X901Y713D01*
X962Y713D02*
X971Y713D01*
X1090Y713D02*
X1096Y713D01*
X1113Y713D02*
X1119Y713D01*
X1137Y713D02*
X1143Y713D01*
X1369Y713D02*
X1376Y713D01*
X0Y712D02*
X7Y712D01*
X405Y712D02*
X413Y712D01*
X433Y712D02*
X441Y712D01*
X849Y712D02*
X901Y712D01*
X962Y712D02*
X971Y712D01*
X1090Y712D02*
X1096Y712D01*
X1113Y712D02*
X1119Y712D01*
X1137Y712D02*
X1143Y712D01*
X1369Y712D02*
X1376Y712D01*
X0Y711D02*
X7Y711D01*
X404Y711D02*
X412Y711D01*
X434Y711D02*
X442Y711D01*
X848Y711D02*
X901Y711D01*
X962Y711D02*
X971Y711D01*
X1090Y711D02*
X1096Y711D01*
X1113Y711D02*
X1119Y711D01*
X1137Y711D02*
X1143Y711D01*
X1369Y711D02*
X1376Y711D01*
X0Y710D02*
X7Y710D01*
X403Y710D02*
X411Y710D01*
X435Y710D02*
X443Y710D01*
X848Y710D02*
X901Y710D01*
X962Y710D02*
X971Y710D01*
X1090Y710D02*
X1096Y710D01*
X1113Y710D02*
X1119Y710D01*
X1137Y710D02*
X1143Y710D01*
X1369Y710D02*
X1376Y710D01*
X0Y709D02*
X7Y709D01*
X402Y709D02*
X410Y709D01*
X435Y709D02*
X444Y709D01*
X848Y709D02*
X901Y709D01*
X962Y709D02*
X971Y709D01*
X1090Y709D02*
X1096Y709D01*
X1113Y709D02*
X1119Y709D01*
X1137Y709D02*
X1143Y709D01*
X1369Y709D02*
X1376Y709D01*
X0Y708D02*
X7Y708D01*
X401Y708D02*
X409Y708D01*
X436Y708D02*
X445Y708D01*
X848Y708D02*
X901Y708D01*
X962Y708D02*
X971Y708D01*
X1090Y708D02*
X1096Y708D01*
X1114Y708D02*
X1119Y708D01*
X1137Y708D02*
X1143Y708D01*
X1369Y708D02*
X1376Y708D01*
X0Y707D02*
X7Y707D01*
X400Y707D02*
X409Y707D01*
X437Y707D02*
X445Y707D01*
X849Y707D02*
X901Y707D01*
X962Y707D02*
X971Y707D01*
X1090Y707D02*
X1096Y707D01*
X1114Y707D02*
X1119Y707D01*
X1137Y707D02*
X1143Y707D01*
X1369Y707D02*
X1376Y707D01*
X0Y706D02*
X7Y706D01*
X399Y706D02*
X408Y706D01*
X438Y706D02*
X446Y706D01*
X877Y706D02*
X884Y706D01*
X895Y706D02*
X901Y706D01*
X962Y706D02*
X971Y706D01*
X1090Y706D02*
X1096Y706D01*
X1115Y706D02*
X1118Y706D01*
X1137Y706D02*
X1143Y706D01*
X1369Y706D02*
X1376Y706D01*
X0Y705D02*
X7Y705D01*
X399Y705D02*
X407Y705D01*
X439Y705D02*
X447Y705D01*
X877Y705D02*
X883Y705D01*
X895Y705D02*
X901Y705D01*
X962Y705D02*
X971Y705D01*
X1090Y705D02*
X1096Y705D01*
X1137Y705D02*
X1143Y705D01*
X1369Y705D02*
X1376Y705D01*
X0Y704D02*
X7Y704D01*
X398Y704D02*
X406Y704D01*
X440Y704D02*
X448Y704D01*
X877Y704D02*
X883Y704D01*
X895Y704D02*
X901Y704D01*
X962Y704D02*
X971Y704D01*
X1090Y704D02*
X1096Y704D01*
X1137Y704D02*
X1143Y704D01*
X1369Y704D02*
X1376Y704D01*
X0Y703D02*
X7Y703D01*
X397Y703D02*
X405Y703D01*
X441Y703D02*
X449Y703D01*
X877Y703D02*
X883Y703D01*
X895Y703D02*
X901Y703D01*
X962Y703D02*
X971Y703D01*
X1090Y703D02*
X1096Y703D01*
X1137Y703D02*
X1143Y703D01*
X1369Y703D02*
X1376Y703D01*
X0Y702D02*
X7Y702D01*
X396Y702D02*
X404Y702D01*
X441Y702D02*
X449Y702D01*
X877Y702D02*
X883Y702D01*
X895Y702D02*
X901Y702D01*
X962Y702D02*
X971Y702D01*
X1090Y702D02*
X1096Y702D01*
X1137Y702D02*
X1143Y702D01*
X1369Y702D02*
X1376Y702D01*
X0Y701D02*
X7Y701D01*
X396Y701D02*
X403Y701D01*
X442Y701D02*
X449Y701D01*
X877Y701D02*
X883Y701D01*
X895Y701D02*
X901Y701D01*
X962Y701D02*
X971Y701D01*
X1090Y701D02*
X1096Y701D01*
X1137Y701D02*
X1143Y701D01*
X1369Y701D02*
X1376Y701D01*
X0Y700D02*
X7Y700D01*
X396Y700D02*
X403Y700D01*
X443Y700D02*
X449Y700D01*
X875Y700D02*
X883Y700D01*
X895Y700D02*
X901Y700D01*
X962Y700D02*
X971Y700D01*
X1090Y700D02*
X1096Y700D01*
X1137Y700D02*
X1143Y700D01*
X1369Y700D02*
X1376Y700D01*
X0Y699D02*
X7Y699D01*
X397Y699D02*
X402Y699D01*
X444Y699D02*
X449Y699D01*
X873Y699D02*
X883Y699D01*
X895Y699D02*
X901Y699D01*
X962Y699D02*
X971Y699D01*
X1090Y699D02*
X1096Y699D01*
X1137Y699D02*
X1143Y699D01*
X1369Y699D02*
X1376Y699D01*
X0Y698D02*
X7Y698D01*
X398Y698D02*
X401Y698D01*
X445Y698D02*
X448Y698D01*
X872Y698D02*
X883Y698D01*
X895Y698D02*
X901Y698D01*
X962Y698D02*
X971Y698D01*
X1090Y698D02*
X1096Y698D01*
X1137Y698D02*
X1143Y698D01*
X1369Y698D02*
X1376Y698D01*
X0Y697D02*
X7Y697D01*
X870Y697D02*
X883Y697D01*
X895Y697D02*
X901Y697D01*
X962Y697D02*
X971Y697D01*
X1090Y697D02*
X1096Y697D01*
X1137Y697D02*
X1143Y697D01*
X1369Y697D02*
X1376Y697D01*
X0Y696D02*
X7Y696D01*
X868Y696D02*
X883Y696D01*
X895Y696D02*
X901Y696D01*
X962Y696D02*
X971Y696D01*
X1090Y696D02*
X1096Y696D01*
X1137Y696D02*
X1143Y696D01*
X1369Y696D02*
X1376Y696D01*
X0Y695D02*
X7Y695D01*
X867Y695D02*
X883Y695D01*
X895Y695D02*
X901Y695D01*
X962Y695D02*
X971Y695D01*
X1090Y695D02*
X1096Y695D01*
X1137Y695D02*
X1143Y695D01*
X1369Y695D02*
X1376Y695D01*
X0Y694D02*
X7Y694D01*
X865Y694D02*
X883Y694D01*
X895Y694D02*
X901Y694D01*
X962Y694D02*
X971Y694D01*
X1090Y694D02*
X1096Y694D01*
X1137Y694D02*
X1143Y694D01*
X1369Y694D02*
X1376Y694D01*
X0Y693D02*
X7Y693D01*
X863Y693D02*
X883Y693D01*
X895Y693D02*
X901Y693D01*
X962Y693D02*
X971Y693D01*
X1090Y693D02*
X1095Y693D01*
X1138Y693D02*
X1142Y693D01*
X1369Y693D02*
X1376Y693D01*
X0Y692D02*
X7Y692D01*
X862Y692D02*
X875Y692D01*
X877Y692D02*
X883Y692D01*
X895Y692D02*
X901Y692D01*
X962Y692D02*
X971Y692D01*
X1091Y692D02*
X1094Y692D01*
X1139Y692D02*
X1141Y692D01*
X1369Y692D02*
X1376Y692D01*
X0Y691D02*
X7Y691D01*
X860Y691D02*
X873Y691D01*
X877Y691D02*
X883Y691D01*
X895Y691D02*
X901Y691D01*
X962Y691D02*
X971Y691D01*
X1369Y691D02*
X1376Y691D01*
X0Y690D02*
X7Y690D01*
X858Y690D02*
X871Y690D01*
X877Y690D02*
X883Y690D01*
X895Y690D02*
X901Y690D01*
X962Y690D02*
X971Y690D01*
X1369Y690D02*
X1376Y690D01*
X0Y689D02*
X7Y689D01*
X60Y689D02*
X64Y689D01*
X99Y689D02*
X103Y689D01*
X856Y689D02*
X869Y689D01*
X877Y689D02*
X883Y689D01*
X895Y689D02*
X901Y689D01*
X962Y689D02*
X971Y689D01*
X1369Y689D02*
X1376Y689D01*
X0Y688D02*
X7Y688D01*
X59Y688D02*
X65Y688D01*
X99Y688D02*
X104Y688D01*
X855Y688D02*
X868Y688D01*
X878Y688D02*
X884Y688D01*
X895Y688D02*
X901Y688D01*
X962Y688D02*
X970Y688D01*
X1369Y688D02*
X1376Y688D01*
X0Y687D02*
X7Y687D01*
X58Y687D02*
X65Y687D01*
X98Y687D02*
X105Y687D01*
X853Y687D02*
X866Y687D01*
X878Y687D02*
X884Y687D01*
X894Y687D02*
X901Y687D01*
X1369Y687D02*
X1376Y687D01*
X0Y686D02*
X7Y686D01*
X58Y686D02*
X66Y686D01*
X98Y686D02*
X105Y686D01*
X851Y686D02*
X864Y686D01*
X878Y686D02*
X885Y686D01*
X893Y686D02*
X901Y686D01*
X1369Y686D02*
X1376Y686D01*
X0Y685D02*
X7Y685D01*
X58Y685D02*
X66Y685D01*
X98Y685D02*
X105Y685D01*
X850Y685D02*
X863Y685D01*
X878Y685D02*
X900Y685D01*
X1369Y685D02*
X1376Y685D01*
X0Y684D02*
X7Y684D01*
X58Y684D02*
X66Y684D01*
X98Y684D02*
X105Y684D01*
X849Y684D02*
X861Y684D01*
X879Y684D02*
X900Y684D01*
X1369Y684D02*
X1376Y684D01*
X0Y683D02*
X7Y683D01*
X58Y683D02*
X66Y683D01*
X98Y683D02*
X105Y683D01*
X848Y683D02*
X859Y683D01*
X879Y683D02*
X899Y683D01*
X1369Y683D02*
X1376Y683D01*
X0Y682D02*
X7Y682D01*
X58Y682D02*
X66Y682D01*
X98Y682D02*
X105Y682D01*
X420Y682D02*
X423Y682D01*
X848Y682D02*
X857Y682D01*
X880Y682D02*
X898Y682D01*
X1369Y682D02*
X1376Y682D01*
X0Y681D02*
X7Y681D01*
X58Y681D02*
X66Y681D01*
X98Y681D02*
X105Y681D01*
X118Y681D02*
X124Y681D01*
X418Y681D02*
X425Y681D01*
X848Y681D02*
X856Y681D01*
X881Y681D02*
X897Y681D01*
X1369Y681D02*
X1376Y681D01*
X0Y680D02*
X7Y680D01*
X58Y680D02*
X66Y680D01*
X98Y680D02*
X105Y680D01*
X117Y680D02*
X126Y680D01*
X417Y680D02*
X426Y680D01*
X849Y680D02*
X854Y680D01*
X883Y680D02*
X896Y680D01*
X1369Y680D02*
X1376Y680D01*
X0Y679D02*
X7Y679D01*
X58Y679D02*
X66Y679D01*
X98Y679D02*
X105Y679D01*
X116Y679D02*
X126Y679D01*
X417Y679D02*
X426Y679D01*
X850Y679D02*
X852Y679D01*
X885Y679D02*
X894Y679D01*
X1369Y679D02*
X1376Y679D01*
X0Y678D02*
X7Y678D01*
X58Y678D02*
X66Y678D01*
X98Y678D02*
X105Y678D01*
X116Y678D02*
X127Y678D01*
X417Y678D02*
X426Y678D01*
X1369Y678D02*
X1376Y678D01*
X0Y677D02*
X7Y677D01*
X58Y677D02*
X105Y677D01*
X116Y677D02*
X127Y677D01*
X417Y677D02*
X426Y677D01*
X1369Y677D02*
X1376Y677D01*
X0Y676D02*
X7Y676D01*
X58Y676D02*
X105Y676D01*
X116Y676D02*
X127Y676D01*
X417Y676D02*
X426Y676D01*
X1369Y676D02*
X1376Y676D01*
X0Y675D02*
X7Y675D01*
X58Y675D02*
X105Y675D01*
X116Y675D02*
X127Y675D01*
X417Y675D02*
X426Y675D01*
X1095Y675D02*
X1101Y675D01*
X1132Y675D02*
X1139Y675D01*
X1369Y675D02*
X1376Y675D01*
X0Y674D02*
X7Y674D01*
X58Y674D02*
X105Y674D01*
X116Y674D02*
X127Y674D01*
X417Y674D02*
X426Y674D01*
X1094Y674D02*
X1101Y674D01*
X1131Y674D02*
X1140Y674D01*
X1369Y674D02*
X1376Y674D01*
X0Y673D02*
X7Y673D01*
X58Y673D02*
X105Y673D01*
X116Y673D02*
X127Y673D01*
X417Y673D02*
X426Y673D01*
X1092Y673D02*
X1102Y673D01*
X1129Y673D02*
X1141Y673D01*
X1369Y673D02*
X1376Y673D01*
X0Y672D02*
X7Y672D01*
X58Y672D02*
X105Y672D01*
X116Y672D02*
X127Y672D01*
X417Y672D02*
X426Y672D01*
X1092Y672D02*
X1102Y672D01*
X1128Y672D02*
X1142Y672D01*
X1369Y672D02*
X1376Y672D01*
X0Y671D02*
X7Y671D01*
X58Y671D02*
X105Y671D01*
X116Y671D02*
X126Y671D01*
X417Y671D02*
X426Y671D01*
X1091Y671D02*
X1101Y671D01*
X1127Y671D02*
X1142Y671D01*
X1369Y671D02*
X1376Y671D01*
X0Y670D02*
X7Y670D01*
X58Y670D02*
X104Y670D01*
X117Y670D02*
X126Y670D01*
X417Y670D02*
X426Y670D01*
X1090Y670D02*
X1101Y670D01*
X1125Y670D02*
X1143Y670D01*
X1369Y670D02*
X1376Y670D01*
X0Y669D02*
X7Y669D01*
X58Y669D02*
X102Y669D01*
X119Y669D02*
X124Y669D01*
X417Y669D02*
X426Y669D01*
X1090Y669D02*
X1098Y669D01*
X1124Y669D02*
X1143Y669D01*
X1369Y669D02*
X1376Y669D01*
X0Y668D02*
X7Y668D01*
X58Y668D02*
X66Y668D01*
X417Y668D02*
X426Y668D01*
X1090Y668D02*
X1096Y668D01*
X1123Y668D02*
X1133Y668D01*
X1137Y668D02*
X1143Y668D01*
X1369Y668D02*
X1376Y668D01*
X0Y667D02*
X7Y667D01*
X58Y667D02*
X66Y667D01*
X417Y667D02*
X426Y667D01*
X1090Y667D02*
X1096Y667D01*
X1122Y667D02*
X1132Y667D01*
X1137Y667D02*
X1143Y667D01*
X1369Y667D02*
X1376Y667D01*
X0Y666D02*
X7Y666D01*
X58Y666D02*
X66Y666D01*
X417Y666D02*
X426Y666D01*
X1090Y666D02*
X1096Y666D01*
X1120Y666D02*
X1131Y666D01*
X1137Y666D02*
X1143Y666D01*
X1369Y666D02*
X1376Y666D01*
X0Y665D02*
X7Y665D01*
X58Y665D02*
X66Y665D01*
X417Y665D02*
X426Y665D01*
X1090Y665D02*
X1096Y665D01*
X1119Y665D02*
X1130Y665D01*
X1137Y665D02*
X1143Y665D01*
X1369Y665D02*
X1376Y665D01*
X0Y664D02*
X7Y664D01*
X58Y664D02*
X66Y664D01*
X417Y664D02*
X426Y664D01*
X1090Y664D02*
X1096Y664D01*
X1118Y664D02*
X1128Y664D01*
X1137Y664D02*
X1143Y664D01*
X1369Y664D02*
X1376Y664D01*
X0Y663D02*
X7Y663D01*
X58Y663D02*
X66Y663D01*
X417Y663D02*
X426Y663D01*
X851Y663D02*
X851Y663D01*
X898Y663D02*
X898Y663D01*
X1090Y663D02*
X1096Y663D01*
X1116Y663D02*
X1127Y663D01*
X1137Y663D02*
X1143Y663D01*
X1369Y663D02*
X1376Y663D01*
X0Y662D02*
X7Y662D01*
X58Y662D02*
X66Y662D01*
X417Y662D02*
X426Y662D01*
X849Y662D02*
X853Y662D01*
X896Y662D02*
X900Y662D01*
X1090Y662D02*
X1096Y662D01*
X1115Y662D02*
X1126Y662D01*
X1137Y662D02*
X1143Y662D01*
X1369Y662D02*
X1376Y662D01*
X0Y661D02*
X7Y661D01*
X58Y661D02*
X66Y661D01*
X417Y661D02*
X426Y661D01*
X848Y661D02*
X854Y661D01*
X895Y661D02*
X901Y661D01*
X1090Y661D02*
X1096Y661D01*
X1114Y661D02*
X1124Y661D01*
X1137Y661D02*
X1143Y661D01*
X1369Y661D02*
X1376Y661D01*
X0Y660D02*
X7Y660D01*
X58Y660D02*
X66Y660D01*
X417Y660D02*
X426Y660D01*
X848Y660D02*
X854Y660D01*
X895Y660D02*
X901Y660D01*
X1090Y660D02*
X1096Y660D01*
X1113Y660D02*
X1123Y660D01*
X1137Y660D02*
X1143Y660D01*
X1369Y660D02*
X1376Y660D01*
X0Y659D02*
X7Y659D01*
X58Y659D02*
X65Y659D01*
X417Y659D02*
X426Y659D01*
X848Y659D02*
X854Y659D01*
X895Y659D02*
X901Y659D01*
X1090Y659D02*
X1096Y659D01*
X1111Y659D02*
X1122Y659D01*
X1137Y659D02*
X1143Y659D01*
X1369Y659D02*
X1376Y659D01*
X0Y658D02*
X7Y658D01*
X59Y658D02*
X65Y658D01*
X417Y658D02*
X426Y658D01*
X848Y658D02*
X854Y658D01*
X895Y658D02*
X901Y658D01*
X1090Y658D02*
X1096Y658D01*
X1110Y658D02*
X1121Y658D01*
X1137Y658D02*
X1143Y658D01*
X1369Y658D02*
X1376Y658D01*
X0Y657D02*
X7Y657D01*
X60Y657D02*
X64Y657D01*
X417Y657D02*
X426Y657D01*
X848Y657D02*
X854Y657D01*
X895Y657D02*
X901Y657D01*
X1090Y657D02*
X1096Y657D01*
X1109Y657D02*
X1119Y657D01*
X1137Y657D02*
X1143Y657D01*
X1369Y657D02*
X1376Y657D01*
X0Y656D02*
X7Y656D01*
X417Y656D02*
X426Y656D01*
X848Y656D02*
X854Y656D01*
X895Y656D02*
X901Y656D01*
X1090Y656D02*
X1096Y656D01*
X1107Y656D02*
X1118Y656D01*
X1137Y656D02*
X1143Y656D01*
X1369Y656D02*
X1376Y656D01*
X0Y655D02*
X7Y655D01*
X417Y655D02*
X426Y655D01*
X848Y655D02*
X854Y655D01*
X895Y655D02*
X901Y655D01*
X1090Y655D02*
X1096Y655D01*
X1106Y655D02*
X1117Y655D01*
X1137Y655D02*
X1143Y655D01*
X1369Y655D02*
X1376Y655D01*
X0Y654D02*
X7Y654D01*
X417Y654D02*
X426Y654D01*
X848Y654D02*
X854Y654D01*
X895Y654D02*
X901Y654D01*
X1090Y654D02*
X1096Y654D01*
X1105Y654D02*
X1115Y654D01*
X1137Y654D02*
X1143Y654D01*
X1369Y654D02*
X1376Y654D01*
X0Y653D02*
X7Y653D01*
X417Y653D02*
X426Y653D01*
X848Y653D02*
X854Y653D01*
X895Y653D02*
X901Y653D01*
X1090Y653D02*
X1096Y653D01*
X1104Y653D02*
X1114Y653D01*
X1137Y653D02*
X1143Y653D01*
X1369Y653D02*
X1376Y653D01*
X0Y652D02*
X7Y652D01*
X417Y652D02*
X426Y652D01*
X848Y652D02*
X854Y652D01*
X895Y652D02*
X901Y652D01*
X1090Y652D02*
X1096Y652D01*
X1102Y652D02*
X1113Y652D01*
X1137Y652D02*
X1143Y652D01*
X1369Y652D02*
X1376Y652D01*
X0Y651D02*
X7Y651D01*
X417Y651D02*
X426Y651D01*
X848Y651D02*
X854Y651D01*
X895Y651D02*
X901Y651D01*
X1090Y651D02*
X1096Y651D01*
X1101Y651D02*
X1112Y651D01*
X1137Y651D02*
X1143Y651D01*
X1369Y651D02*
X1376Y651D01*
X0Y650D02*
X7Y650D01*
X417Y650D02*
X426Y650D01*
X848Y650D02*
X854Y650D01*
X895Y650D02*
X901Y650D01*
X1090Y650D02*
X1096Y650D01*
X1100Y650D02*
X1110Y650D01*
X1137Y650D02*
X1143Y650D01*
X1369Y650D02*
X1376Y650D01*
X0Y649D02*
X7Y649D01*
X418Y649D02*
X425Y649D01*
X848Y649D02*
X901Y649D01*
X1090Y649D02*
X1096Y649D01*
X1098Y649D02*
X1109Y649D01*
X1136Y649D02*
X1143Y649D01*
X1369Y649D02*
X1376Y649D01*
X0Y648D02*
X7Y648D01*
X419Y648D02*
X424Y648D01*
X848Y648D02*
X901Y648D01*
X1090Y648D02*
X1108Y648D01*
X1133Y648D02*
X1142Y648D01*
X1369Y648D02*
X1376Y648D01*
X0Y647D02*
X7Y647D01*
X848Y647D02*
X901Y647D01*
X1090Y647D02*
X1107Y647D01*
X1132Y647D02*
X1142Y647D01*
X1369Y647D02*
X1376Y647D01*
X0Y646D02*
X7Y646D01*
X848Y646D02*
X901Y646D01*
X1091Y646D02*
X1105Y646D01*
X1131Y646D02*
X1142Y646D01*
X1369Y646D02*
X1376Y646D01*
X0Y645D02*
X7Y645D01*
X848Y645D02*
X901Y645D01*
X1091Y645D02*
X1104Y645D01*
X1131Y645D02*
X1141Y645D01*
X1369Y645D02*
X1376Y645D01*
X0Y644D02*
X7Y644D01*
X848Y644D02*
X901Y644D01*
X1092Y644D02*
X1103Y644D01*
X1131Y644D02*
X1140Y644D01*
X1369Y644D02*
X1376Y644D01*
X0Y643D02*
X7Y643D01*
X848Y643D02*
X901Y643D01*
X1093Y643D02*
X1101Y643D01*
X1132Y643D02*
X1139Y643D01*
X1369Y643D02*
X1376Y643D01*
X0Y642D02*
X7Y642D01*
X848Y642D02*
X854Y642D01*
X1095Y642D02*
X1100Y642D01*
X1133Y642D02*
X1137Y642D01*
X1369Y642D02*
X1376Y642D01*
X0Y641D02*
X7Y641D01*
X848Y641D02*
X854Y641D01*
X1369Y641D02*
X1376Y641D01*
X0Y640D02*
X7Y640D01*
X848Y640D02*
X854Y640D01*
X1369Y640D02*
X1376Y640D01*
X0Y639D02*
X7Y639D01*
X848Y639D02*
X854Y639D01*
X1369Y639D02*
X1376Y639D01*
X0Y638D02*
X7Y638D01*
X848Y638D02*
X854Y638D01*
X1369Y638D02*
X1376Y638D01*
X0Y637D02*
X7Y637D01*
X848Y637D02*
X854Y637D01*
X1369Y637D02*
X1376Y637D01*
X0Y636D02*
X7Y636D01*
X848Y636D02*
X854Y636D01*
X1369Y636D02*
X1376Y636D01*
X0Y635D02*
X7Y635D01*
X848Y635D02*
X870Y635D01*
X1369Y635D02*
X1376Y635D01*
X0Y634D02*
X7Y634D01*
X848Y634D02*
X871Y634D01*
X1369Y634D02*
X1376Y634D01*
X0Y633D02*
X7Y633D01*
X848Y633D02*
X872Y633D01*
X1369Y633D02*
X1376Y633D01*
X0Y632D02*
X7Y632D01*
X99Y632D02*
X104Y632D01*
X399Y632D02*
X449Y632D01*
X848Y632D02*
X872Y632D01*
X1369Y632D02*
X1376Y632D01*
X0Y631D02*
X7Y631D01*
X98Y631D02*
X105Y631D01*
X397Y631D02*
X449Y631D01*
X848Y631D02*
X871Y631D01*
X1369Y631D02*
X1376Y631D01*
X0Y630D02*
X7Y630D01*
X98Y630D02*
X105Y630D01*
X397Y630D02*
X449Y630D01*
X849Y630D02*
X871Y630D01*
X1369Y630D02*
X1376Y630D01*
X0Y629D02*
X7Y629D01*
X98Y629D02*
X105Y629D01*
X396Y629D02*
X449Y629D01*
X850Y629D02*
X870Y629D01*
X1369Y629D02*
X1376Y629D01*
X0Y628D02*
X7Y628D01*
X98Y628D02*
X105Y628D01*
X396Y628D02*
X449Y628D01*
X1369Y628D02*
X1376Y628D01*
X0Y627D02*
X7Y627D01*
X98Y627D02*
X105Y627D01*
X397Y627D02*
X449Y627D01*
X1369Y627D02*
X1376Y627D01*
X0Y626D02*
X7Y626D01*
X98Y626D02*
X105Y626D01*
X398Y626D02*
X449Y626D01*
X1093Y626D02*
X1142Y626D01*
X1369Y626D02*
X1376Y626D01*
X0Y625D02*
X7Y625D01*
X98Y625D02*
X105Y625D01*
X417Y625D02*
X423Y625D01*
X443Y625D02*
X449Y625D01*
X1091Y625D02*
X1143Y625D01*
X1369Y625D02*
X1376Y625D01*
X0Y624D02*
X7Y624D01*
X67Y624D02*
X117Y624D01*
X417Y624D02*
X423Y624D01*
X443Y624D02*
X449Y624D01*
X1090Y624D02*
X1143Y624D01*
X1369Y624D02*
X1376Y624D01*
X0Y623D02*
X7Y623D01*
X65Y623D02*
X119Y623D01*
X417Y623D02*
X423Y623D01*
X443Y623D02*
X449Y623D01*
X1090Y623D02*
X1143Y623D01*
X1369Y623D02*
X1376Y623D01*
X0Y622D02*
X7Y622D01*
X63Y622D02*
X119Y622D01*
X417Y622D02*
X423Y622D01*
X443Y622D02*
X449Y622D01*
X1090Y622D02*
X1143Y622D01*
X1369Y622D02*
X1376Y622D01*
X0Y621D02*
X7Y621D01*
X62Y621D02*
X120Y621D01*
X417Y621D02*
X423Y621D01*
X443Y621D02*
X449Y621D01*
X1090Y621D02*
X1143Y621D01*
X1369Y621D02*
X1376Y621D01*
X0Y620D02*
X7Y620D01*
X61Y620D02*
X120Y620D01*
X417Y620D02*
X423Y620D01*
X443Y620D02*
X449Y620D01*
X1091Y620D02*
X1143Y620D01*
X1369Y620D02*
X1376Y620D01*
X0Y619D02*
X7Y619D01*
X60Y619D02*
X119Y619D01*
X417Y619D02*
X423Y619D01*
X443Y619D02*
X449Y619D01*
X1110Y619D02*
X1117Y619D01*
X1136Y619D02*
X1143Y619D01*
X1369Y619D02*
X1376Y619D01*
X0Y618D02*
X7Y618D01*
X60Y618D02*
X119Y618D01*
X417Y618D02*
X423Y618D01*
X443Y618D02*
X449Y618D01*
X1110Y618D02*
X1116Y618D01*
X1137Y618D02*
X1143Y618D01*
X1369Y618D02*
X1376Y618D01*
X0Y617D02*
X7Y617D01*
X59Y617D02*
X118Y617D01*
X417Y617D02*
X423Y617D01*
X443Y617D02*
X449Y617D01*
X1110Y617D02*
X1116Y617D01*
X1137Y617D02*
X1143Y617D01*
X1369Y617D02*
X1376Y617D01*
X0Y616D02*
X7Y616D01*
X59Y616D02*
X69Y616D01*
X97Y616D02*
X106Y616D01*
X417Y616D02*
X423Y616D01*
X443Y616D02*
X449Y616D01*
X1110Y616D02*
X1116Y616D01*
X1137Y616D02*
X1143Y616D01*
X1369Y616D02*
X1376Y616D01*
X0Y615D02*
X7Y615D01*
X59Y615D02*
X67Y615D01*
X98Y615D02*
X105Y615D01*
X417Y615D02*
X423Y615D01*
X443Y615D02*
X449Y615D01*
X1110Y615D02*
X1116Y615D01*
X1137Y615D02*
X1143Y615D01*
X1369Y615D02*
X1376Y615D01*
X0Y614D02*
X7Y614D01*
X58Y614D02*
X66Y614D01*
X98Y614D02*
X105Y614D01*
X417Y614D02*
X423Y614D01*
X443Y614D02*
X449Y614D01*
X1110Y614D02*
X1116Y614D01*
X1137Y614D02*
X1143Y614D01*
X1369Y614D02*
X1376Y614D01*
X0Y613D02*
X7Y613D01*
X58Y613D02*
X66Y613D01*
X98Y613D02*
X105Y613D01*
X417Y613D02*
X423Y613D01*
X443Y613D02*
X449Y613D01*
X1110Y613D02*
X1116Y613D01*
X1137Y613D02*
X1143Y613D01*
X1369Y613D02*
X1376Y613D01*
X0Y612D02*
X7Y612D01*
X58Y612D02*
X66Y612D01*
X98Y612D02*
X105Y612D01*
X417Y612D02*
X423Y612D01*
X443Y612D02*
X449Y612D01*
X1110Y612D02*
X1116Y612D01*
X1137Y612D02*
X1143Y612D01*
X1369Y612D02*
X1376Y612D01*
X0Y611D02*
X7Y611D01*
X58Y611D02*
X66Y611D01*
X98Y611D02*
X105Y611D01*
X417Y611D02*
X423Y611D01*
X443Y611D02*
X449Y611D01*
X1110Y611D02*
X1116Y611D01*
X1137Y611D02*
X1143Y611D01*
X1369Y611D02*
X1376Y611D01*
X0Y610D02*
X7Y610D01*
X58Y610D02*
X66Y610D01*
X98Y610D02*
X105Y610D01*
X417Y610D02*
X423Y610D01*
X443Y610D02*
X449Y610D01*
X1110Y610D02*
X1116Y610D01*
X1137Y610D02*
X1143Y610D01*
X1369Y610D02*
X1376Y610D01*
X0Y609D02*
X7Y609D01*
X58Y609D02*
X66Y609D01*
X98Y609D02*
X105Y609D01*
X417Y609D02*
X423Y609D01*
X443Y609D02*
X449Y609D01*
X1110Y609D02*
X1116Y609D01*
X1137Y609D02*
X1143Y609D01*
X1369Y609D02*
X1376Y609D01*
X0Y608D02*
X7Y608D01*
X58Y608D02*
X66Y608D01*
X98Y608D02*
X105Y608D01*
X417Y608D02*
X423Y608D01*
X443Y608D02*
X449Y608D01*
X1110Y608D02*
X1116Y608D01*
X1137Y608D02*
X1143Y608D01*
X1369Y608D02*
X1376Y608D01*
X0Y607D02*
X7Y607D01*
X58Y607D02*
X66Y607D01*
X98Y607D02*
X105Y607D01*
X417Y607D02*
X423Y607D01*
X443Y607D02*
X449Y607D01*
X1110Y607D02*
X1116Y607D01*
X1137Y607D02*
X1143Y607D01*
X1369Y607D02*
X1376Y607D01*
X0Y606D02*
X7Y606D01*
X58Y606D02*
X66Y606D01*
X98Y606D02*
X105Y606D01*
X417Y606D02*
X424Y606D01*
X443Y606D02*
X449Y606D01*
X1110Y606D02*
X1116Y606D01*
X1137Y606D02*
X1143Y606D01*
X1369Y606D02*
X1376Y606D01*
X0Y605D02*
X7Y605D01*
X58Y605D02*
X66Y605D01*
X98Y605D02*
X105Y605D01*
X417Y605D02*
X425Y605D01*
X441Y605D02*
X449Y605D01*
X1110Y605D02*
X1116Y605D01*
X1137Y605D02*
X1143Y605D01*
X1369Y605D02*
X1376Y605D01*
X0Y604D02*
X7Y604D01*
X58Y604D02*
X66Y604D01*
X98Y604D02*
X105Y604D01*
X418Y604D02*
X449Y604D01*
X1110Y604D02*
X1116Y604D01*
X1137Y604D02*
X1143Y604D01*
X1369Y604D02*
X1376Y604D01*
X0Y603D02*
X7Y603D01*
X58Y603D02*
X66Y603D01*
X98Y603D02*
X105Y603D01*
X418Y603D02*
X448Y603D01*
X1110Y603D02*
X1116Y603D01*
X1137Y603D02*
X1143Y603D01*
X1369Y603D02*
X1376Y603D01*
X0Y602D02*
X7Y602D01*
X58Y602D02*
X66Y602D01*
X98Y602D02*
X105Y602D01*
X419Y602D02*
X447Y602D01*
X1110Y602D02*
X1116Y602D01*
X1137Y602D02*
X1143Y602D01*
X1369Y602D02*
X1376Y602D01*
X0Y601D02*
X7Y601D01*
X58Y601D02*
X67Y601D01*
X98Y601D02*
X105Y601D01*
X420Y601D02*
X447Y601D01*
X1110Y601D02*
X1117Y601D01*
X1137Y601D02*
X1143Y601D01*
X1369Y601D02*
X1376Y601D01*
X0Y600D02*
X7Y600D01*
X59Y600D02*
X68Y600D01*
X98Y600D02*
X105Y600D01*
X421Y600D02*
X446Y600D01*
X1111Y600D02*
X1117Y600D01*
X1136Y600D02*
X1143Y600D01*
X1369Y600D02*
X1376Y600D01*
X0Y599D02*
X7Y599D01*
X59Y599D02*
X70Y599D01*
X98Y599D02*
X105Y599D01*
X422Y599D02*
X444Y599D01*
X1111Y599D02*
X1118Y599D01*
X1135Y599D02*
X1142Y599D01*
X1369Y599D02*
X1376Y599D01*
X0Y598D02*
X7Y598D01*
X59Y598D02*
X72Y598D01*
X98Y598D02*
X105Y598D01*
X425Y598D02*
X442Y598D01*
X1111Y598D02*
X1142Y598D01*
X1369Y598D02*
X1376Y598D01*
X0Y597D02*
X7Y597D01*
X60Y597D02*
X72Y597D01*
X99Y597D02*
X104Y597D01*
X1112Y597D02*
X1142Y597D01*
X1369Y597D02*
X1376Y597D01*
X0Y596D02*
X7Y596D01*
X61Y596D02*
X73Y596D01*
X99Y596D02*
X103Y596D01*
X1112Y596D02*
X1141Y596D01*
X1369Y596D02*
X1376Y596D01*
X0Y595D02*
X7Y595D01*
X62Y595D02*
X73Y595D01*
X1113Y595D02*
X1140Y595D01*
X1369Y595D02*
X1376Y595D01*
X0Y594D02*
X7Y594D01*
X63Y594D02*
X73Y594D01*
X1114Y594D02*
X1139Y594D01*
X1369Y594D02*
X1376Y594D01*
X0Y593D02*
X7Y593D01*
X64Y593D02*
X72Y593D01*
X1116Y593D02*
X1138Y593D01*
X1369Y593D02*
X1376Y593D01*
X0Y592D02*
X7Y592D01*
X66Y592D02*
X71Y592D01*
X1118Y592D02*
X1136Y592D01*
X1369Y592D02*
X1376Y592D01*
X0Y591D02*
X7Y591D01*
X68Y591D02*
X69Y591D01*
X1369Y591D02*
X1376Y591D01*
X0Y590D02*
X7Y590D01*
X1369Y590D02*
X1376Y590D01*
X0Y589D02*
X7Y589D01*
X1369Y589D02*
X1376Y589D01*
X0Y588D02*
X7Y588D01*
X1369Y588D02*
X1376Y588D01*
X0Y587D02*
X7Y587D01*
X1369Y587D02*
X1376Y587D01*
X0Y586D02*
X7Y586D01*
X1369Y586D02*
X1376Y586D01*
X0Y585D02*
X7Y585D01*
X1369Y585D02*
X1376Y585D01*
X0Y584D02*
X7Y584D01*
X1369Y584D02*
X1376Y584D01*
X0Y583D02*
X7Y583D01*
X1369Y583D02*
X1376Y583D01*
X0Y582D02*
X7Y582D01*
X399Y582D02*
X449Y582D01*
X1369Y582D02*
X1376Y582D01*
X0Y581D02*
X7Y581D01*
X397Y581D02*
X449Y581D01*
X1369Y581D02*
X1376Y581D01*
X0Y580D02*
X7Y580D01*
X397Y580D02*
X449Y580D01*
X1369Y580D02*
X1376Y580D01*
X0Y579D02*
X7Y579D01*
X396Y579D02*
X449Y579D01*
X1369Y579D02*
X1376Y579D01*
X0Y578D02*
X7Y578D01*
X396Y578D02*
X449Y578D01*
X1369Y578D02*
X1376Y578D01*
X0Y577D02*
X7Y577D01*
X397Y577D02*
X449Y577D01*
X1369Y577D02*
X1376Y577D01*
X0Y576D02*
X7Y576D01*
X398Y576D02*
X449Y576D01*
X1114Y576D02*
X1116Y576D01*
X1369Y576D02*
X1376Y576D01*
X0Y575D02*
X7Y575D01*
X440Y575D02*
X449Y575D01*
X1111Y575D02*
X1118Y575D01*
X1369Y575D02*
X1376Y575D01*
X0Y574D02*
X7Y574D01*
X439Y574D02*
X449Y574D01*
X1111Y574D02*
X1119Y574D01*
X1369Y574D02*
X1376Y574D01*
X0Y573D02*
X7Y573D01*
X438Y573D02*
X449Y573D01*
X1110Y573D02*
X1119Y573D01*
X1369Y573D02*
X1376Y573D01*
X0Y572D02*
X7Y572D01*
X77Y572D02*
X86Y572D01*
X436Y572D02*
X447Y572D01*
X1110Y572D02*
X1119Y572D01*
X1369Y572D02*
X1376Y572D01*
X0Y571D02*
X7Y571D01*
X72Y571D02*
X91Y571D01*
X435Y571D02*
X446Y571D01*
X1110Y571D02*
X1119Y571D01*
X1369Y571D02*
X1376Y571D01*
X0Y570D02*
X7Y570D01*
X70Y570D02*
X93Y570D01*
X433Y570D02*
X445Y570D01*
X1110Y570D02*
X1119Y570D01*
X1369Y570D02*
X1376Y570D01*
X0Y569D02*
X7Y569D01*
X69Y569D02*
X94Y569D01*
X432Y569D02*
X443Y569D01*
X1110Y569D02*
X1119Y569D01*
X1369Y569D02*
X1376Y569D01*
X0Y568D02*
X7Y568D01*
X68Y568D02*
X96Y568D01*
X428Y568D02*
X442Y568D01*
X1110Y568D02*
X1119Y568D01*
X1369Y568D02*
X1376Y568D01*
X0Y567D02*
X7Y567D01*
X67Y567D02*
X96Y567D01*
X427Y567D02*
X440Y567D01*
X1110Y567D02*
X1119Y567D01*
X1369Y567D02*
X1376Y567D01*
X0Y566D02*
X7Y566D01*
X66Y566D02*
X97Y566D01*
X426Y566D02*
X439Y566D01*
X1110Y566D02*
X1119Y566D01*
X1369Y566D02*
X1376Y566D01*
X0Y565D02*
X7Y565D01*
X65Y565D02*
X98Y565D01*
X426Y565D02*
X438Y565D01*
X1110Y565D02*
X1119Y565D01*
X1369Y565D02*
X1376Y565D01*
X0Y564D02*
X7Y564D01*
X64Y564D02*
X99Y564D01*
X426Y564D02*
X439Y564D01*
X1110Y564D02*
X1119Y564D01*
X1369Y564D02*
X1376Y564D01*
X0Y563D02*
X7Y563D01*
X63Y563D02*
X74Y563D01*
X89Y563D02*
X100Y563D01*
X426Y563D02*
X440Y563D01*
X851Y563D02*
X851Y563D01*
X898Y563D02*
X899Y563D01*
X1110Y563D02*
X1119Y563D01*
X1369Y563D02*
X1376Y563D01*
X0Y562D02*
X7Y562D01*
X63Y562D02*
X73Y562D01*
X90Y562D02*
X101Y562D01*
X427Y562D02*
X441Y562D01*
X849Y562D02*
X853Y562D01*
X896Y562D02*
X900Y562D01*
X1110Y562D02*
X1119Y562D01*
X1369Y562D02*
X1376Y562D01*
X0Y561D02*
X7Y561D01*
X62Y561D02*
X72Y561D01*
X91Y561D02*
X102Y561D01*
X432Y561D02*
X443Y561D01*
X848Y561D02*
X854Y561D01*
X895Y561D02*
X901Y561D01*
X1110Y561D02*
X1119Y561D01*
X1369Y561D02*
X1376Y561D01*
X0Y560D02*
X7Y560D01*
X61Y560D02*
X71Y560D01*
X92Y560D02*
X103Y560D01*
X433Y560D02*
X444Y560D01*
X848Y560D02*
X854Y560D01*
X895Y560D02*
X901Y560D01*
X1110Y560D02*
X1119Y560D01*
X1369Y560D02*
X1376Y560D01*
X0Y559D02*
X7Y559D01*
X60Y559D02*
X70Y559D01*
X93Y559D02*
X103Y559D01*
X434Y559D02*
X446Y559D01*
X848Y559D02*
X854Y559D01*
X895Y559D02*
X901Y559D01*
X1110Y559D02*
X1119Y559D01*
X1369Y559D02*
X1376Y559D01*
X0Y558D02*
X7Y558D01*
X60Y558D02*
X69Y558D01*
X94Y558D02*
X104Y558D01*
X436Y558D02*
X447Y558D01*
X848Y558D02*
X854Y558D01*
X895Y558D02*
X901Y558D01*
X1110Y558D02*
X1119Y558D01*
X1369Y558D02*
X1376Y558D01*
X0Y557D02*
X7Y557D01*
X59Y557D02*
X69Y557D01*
X95Y557D02*
X104Y557D01*
X437Y557D02*
X449Y557D01*
X848Y557D02*
X854Y557D01*
X895Y557D02*
X901Y557D01*
X1110Y557D02*
X1119Y557D01*
X1369Y557D02*
X1376Y557D01*
X0Y556D02*
X7Y556D01*
X59Y556D02*
X68Y556D01*
X96Y556D02*
X105Y556D01*
X439Y556D02*
X449Y556D01*
X848Y556D02*
X854Y556D01*
X895Y556D02*
X901Y556D01*
X1110Y556D02*
X1119Y556D01*
X1369Y556D02*
X1376Y556D01*
X0Y555D02*
X7Y555D01*
X58Y555D02*
X67Y555D01*
X96Y555D02*
X105Y555D01*
X440Y555D02*
X449Y555D01*
X848Y555D02*
X854Y555D01*
X895Y555D02*
X901Y555D01*
X1110Y555D02*
X1119Y555D01*
X1369Y555D02*
X1376Y555D01*
X0Y554D02*
X7Y554D01*
X58Y554D02*
X66Y554D01*
X97Y554D02*
X105Y554D01*
X398Y554D02*
X449Y554D01*
X848Y554D02*
X854Y554D01*
X895Y554D02*
X901Y554D01*
X1110Y554D02*
X1119Y554D01*
X1369Y554D02*
X1376Y554D01*
X0Y553D02*
X7Y553D01*
X58Y553D02*
X66Y553D01*
X98Y553D02*
X105Y553D01*
X397Y553D02*
X449Y553D01*
X848Y553D02*
X854Y553D01*
X895Y553D02*
X901Y553D01*
X1110Y553D02*
X1119Y553D01*
X1369Y553D02*
X1376Y553D01*
X0Y552D02*
X7Y552D01*
X58Y552D02*
X66Y552D01*
X98Y552D02*
X105Y552D01*
X396Y552D02*
X449Y552D01*
X848Y552D02*
X854Y552D01*
X895Y552D02*
X901Y552D01*
X1110Y552D02*
X1119Y552D01*
X1369Y552D02*
X1376Y552D01*
X0Y551D02*
X7Y551D01*
X58Y551D02*
X66Y551D01*
X98Y551D02*
X105Y551D01*
X396Y551D02*
X449Y551D01*
X848Y551D02*
X854Y551D01*
X895Y551D02*
X901Y551D01*
X1110Y551D02*
X1119Y551D01*
X1369Y551D02*
X1376Y551D01*
X0Y550D02*
X7Y550D01*
X58Y550D02*
X66Y550D01*
X98Y550D02*
X105Y550D01*
X397Y550D02*
X449Y550D01*
X848Y550D02*
X854Y550D01*
X895Y550D02*
X901Y550D01*
X1110Y550D02*
X1119Y550D01*
X1369Y550D02*
X1376Y550D01*
X0Y549D02*
X7Y549D01*
X58Y549D02*
X66Y549D01*
X98Y549D02*
X105Y549D01*
X397Y549D02*
X449Y549D01*
X848Y549D02*
X901Y549D01*
X1110Y549D02*
X1119Y549D01*
X1369Y549D02*
X1376Y549D01*
X0Y548D02*
X7Y548D01*
X58Y548D02*
X66Y548D01*
X98Y548D02*
X105Y548D01*
X398Y548D02*
X449Y548D01*
X848Y548D02*
X901Y548D01*
X1110Y548D02*
X1119Y548D01*
X1369Y548D02*
X1376Y548D01*
X0Y547D02*
X7Y547D01*
X58Y547D02*
X66Y547D01*
X98Y547D02*
X105Y547D01*
X848Y547D02*
X901Y547D01*
X1110Y547D02*
X1119Y547D01*
X1369Y547D02*
X1376Y547D01*
X0Y546D02*
X7Y546D01*
X58Y546D02*
X66Y546D01*
X98Y546D02*
X105Y546D01*
X848Y546D02*
X901Y546D01*
X1110Y546D02*
X1119Y546D01*
X1369Y546D02*
X1376Y546D01*
X0Y545D02*
X7Y545D01*
X58Y545D02*
X66Y545D01*
X98Y545D02*
X105Y545D01*
X848Y545D02*
X901Y545D01*
X1110Y545D02*
X1119Y545D01*
X1369Y545D02*
X1376Y545D01*
X0Y544D02*
X7Y544D01*
X58Y544D02*
X66Y544D01*
X98Y544D02*
X105Y544D01*
X848Y544D02*
X901Y544D01*
X1111Y544D02*
X1119Y544D01*
X1369Y544D02*
X1376Y544D01*
X0Y543D02*
X7Y543D01*
X58Y543D02*
X66Y543D01*
X98Y543D02*
X105Y543D01*
X848Y543D02*
X901Y543D01*
X1111Y543D02*
X1119Y543D01*
X1369Y543D02*
X1376Y543D01*
X0Y542D02*
X7Y542D01*
X58Y542D02*
X66Y542D01*
X98Y542D02*
X105Y542D01*
X848Y542D02*
X854Y542D01*
X1112Y542D02*
X1118Y542D01*
X1369Y542D02*
X1376Y542D01*
X0Y541D02*
X7Y541D01*
X58Y541D02*
X66Y541D01*
X98Y541D02*
X105Y541D01*
X848Y541D02*
X854Y541D01*
X1369Y541D02*
X1376Y541D01*
X0Y540D02*
X7Y540D01*
X58Y540D02*
X66Y540D01*
X98Y540D02*
X105Y540D01*
X848Y540D02*
X854Y540D01*
X1369Y540D02*
X1376Y540D01*
X0Y539D02*
X7Y539D01*
X58Y539D02*
X66Y539D01*
X98Y539D02*
X105Y539D01*
X848Y539D02*
X854Y539D01*
X1369Y539D02*
X1376Y539D01*
X0Y538D02*
X7Y538D01*
X58Y538D02*
X66Y538D01*
X98Y538D02*
X105Y538D01*
X848Y538D02*
X854Y538D01*
X1369Y538D02*
X1376Y538D01*
X0Y537D02*
X7Y537D01*
X58Y537D02*
X66Y537D01*
X98Y537D02*
X105Y537D01*
X848Y537D02*
X854Y537D01*
X1369Y537D02*
X1376Y537D01*
X0Y536D02*
X7Y536D01*
X58Y536D02*
X66Y536D01*
X98Y536D02*
X105Y536D01*
X848Y536D02*
X854Y536D01*
X1369Y536D02*
X1376Y536D01*
X0Y535D02*
X7Y535D01*
X58Y535D02*
X66Y535D01*
X98Y535D02*
X105Y535D01*
X848Y535D02*
X870Y535D01*
X1369Y535D02*
X1376Y535D01*
X0Y534D02*
X7Y534D01*
X58Y534D02*
X66Y534D01*
X98Y534D02*
X105Y534D01*
X848Y534D02*
X871Y534D01*
X1369Y534D02*
X1376Y534D01*
X0Y533D02*
X7Y533D01*
X58Y533D02*
X65Y533D01*
X98Y533D02*
X105Y533D01*
X848Y533D02*
X872Y533D01*
X1369Y533D02*
X1376Y533D01*
X0Y532D02*
X7Y532D01*
X59Y532D02*
X65Y532D01*
X98Y532D02*
X105Y532D01*
X399Y532D02*
X400Y532D01*
X446Y532D02*
X447Y532D01*
X848Y532D02*
X872Y532D01*
X1369Y532D02*
X1376Y532D01*
X0Y531D02*
X7Y531D01*
X60Y531D02*
X64Y531D01*
X99Y531D02*
X104Y531D01*
X397Y531D02*
X401Y531D01*
X444Y531D02*
X448Y531D01*
X848Y531D02*
X871Y531D01*
X1369Y531D02*
X1376Y531D01*
X0Y530D02*
X7Y530D01*
X61Y530D02*
X62Y530D01*
X101Y530D02*
X102Y530D01*
X397Y530D02*
X402Y530D01*
X444Y530D02*
X449Y530D01*
X849Y530D02*
X871Y530D01*
X1369Y530D02*
X1376Y530D01*
X0Y529D02*
X7Y529D01*
X396Y529D02*
X402Y529D01*
X443Y529D02*
X449Y529D01*
X850Y529D02*
X870Y529D01*
X1369Y529D02*
X1376Y529D01*
X0Y528D02*
X7Y528D01*
X396Y528D02*
X402Y528D01*
X443Y528D02*
X449Y528D01*
X1369Y528D02*
X1376Y528D01*
X0Y527D02*
X7Y527D01*
X396Y527D02*
X402Y527D01*
X443Y527D02*
X449Y527D01*
X1369Y527D02*
X1376Y527D01*
X0Y526D02*
X7Y526D01*
X396Y526D02*
X402Y526D01*
X443Y526D02*
X449Y526D01*
X1096Y526D02*
X1137Y526D01*
X1369Y526D02*
X1376Y526D01*
X0Y525D02*
X7Y525D01*
X396Y525D02*
X402Y525D01*
X422Y525D02*
X424Y525D01*
X443Y525D02*
X449Y525D01*
X1093Y525D02*
X1140Y525D01*
X1369Y525D02*
X1376Y525D01*
X0Y524D02*
X7Y524D01*
X396Y524D02*
X402Y524D01*
X421Y524D02*
X425Y524D01*
X443Y524D02*
X449Y524D01*
X1092Y524D02*
X1141Y524D01*
X1369Y524D02*
X1376Y524D01*
X0Y523D02*
X7Y523D01*
X396Y523D02*
X402Y523D01*
X420Y523D02*
X426Y523D01*
X443Y523D02*
X449Y523D01*
X1091Y523D02*
X1142Y523D01*
X1369Y523D02*
X1376Y523D01*
X0Y522D02*
X7Y522D01*
X396Y522D02*
X402Y522D01*
X420Y522D02*
X426Y522D01*
X443Y522D02*
X449Y522D01*
X1090Y522D02*
X1142Y522D01*
X1369Y522D02*
X1376Y522D01*
X0Y521D02*
X7Y521D01*
X396Y521D02*
X402Y521D01*
X420Y521D02*
X426Y521D01*
X443Y521D02*
X449Y521D01*
X1090Y521D02*
X1143Y521D01*
X1369Y521D02*
X1376Y521D01*
X0Y520D02*
X7Y520D01*
X396Y520D02*
X402Y520D01*
X420Y520D02*
X426Y520D01*
X443Y520D02*
X449Y520D01*
X1090Y520D02*
X1143Y520D01*
X1369Y520D02*
X1376Y520D01*
X0Y519D02*
X7Y519D01*
X396Y519D02*
X402Y519D01*
X420Y519D02*
X426Y519D01*
X443Y519D02*
X449Y519D01*
X1090Y519D02*
X1096Y519D01*
X1137Y519D02*
X1143Y519D01*
X1369Y519D02*
X1376Y519D01*
X0Y518D02*
X7Y518D01*
X396Y518D02*
X402Y518D01*
X420Y518D02*
X426Y518D01*
X443Y518D02*
X449Y518D01*
X1090Y518D02*
X1096Y518D01*
X1137Y518D02*
X1143Y518D01*
X1369Y518D02*
X1376Y518D01*
X0Y517D02*
X7Y517D01*
X396Y517D02*
X402Y517D01*
X420Y517D02*
X426Y517D01*
X443Y517D02*
X449Y517D01*
X1090Y517D02*
X1096Y517D01*
X1137Y517D02*
X1143Y517D01*
X1369Y517D02*
X1376Y517D01*
X0Y516D02*
X7Y516D01*
X396Y516D02*
X402Y516D01*
X420Y516D02*
X426Y516D01*
X443Y516D02*
X449Y516D01*
X1090Y516D02*
X1096Y516D01*
X1137Y516D02*
X1143Y516D01*
X1369Y516D02*
X1376Y516D01*
X0Y515D02*
X7Y515D01*
X396Y515D02*
X402Y515D01*
X420Y515D02*
X426Y515D01*
X443Y515D02*
X449Y515D01*
X1090Y515D02*
X1096Y515D01*
X1137Y515D02*
X1143Y515D01*
X1369Y515D02*
X1376Y515D01*
X0Y514D02*
X7Y514D01*
X396Y514D02*
X402Y514D01*
X420Y514D02*
X426Y514D01*
X443Y514D02*
X449Y514D01*
X1090Y514D02*
X1096Y514D01*
X1137Y514D02*
X1143Y514D01*
X1369Y514D02*
X1376Y514D01*
X0Y513D02*
X7Y513D01*
X396Y513D02*
X402Y513D01*
X420Y513D02*
X426Y513D01*
X443Y513D02*
X449Y513D01*
X850Y513D02*
X899Y513D01*
X1090Y513D02*
X1096Y513D01*
X1137Y513D02*
X1143Y513D01*
X1369Y513D02*
X1376Y513D01*
X0Y512D02*
X7Y512D01*
X396Y512D02*
X402Y512D01*
X420Y512D02*
X426Y512D01*
X443Y512D02*
X449Y512D01*
X849Y512D02*
X900Y512D01*
X1090Y512D02*
X1096Y512D01*
X1137Y512D02*
X1143Y512D01*
X1369Y512D02*
X1376Y512D01*
X0Y511D02*
X7Y511D01*
X63Y511D02*
X119Y511D01*
X396Y511D02*
X402Y511D01*
X420Y511D02*
X426Y511D01*
X443Y511D02*
X449Y511D01*
X848Y511D02*
X901Y511D01*
X1090Y511D02*
X1096Y511D01*
X1137Y511D02*
X1143Y511D01*
X1369Y511D02*
X1376Y511D01*
X0Y510D02*
X7Y510D01*
X60Y510D02*
X122Y510D01*
X396Y510D02*
X402Y510D01*
X420Y510D02*
X426Y510D01*
X443Y510D02*
X449Y510D01*
X848Y510D02*
X901Y510D01*
X1090Y510D02*
X1096Y510D01*
X1137Y510D02*
X1143Y510D01*
X1369Y510D02*
X1376Y510D01*
X0Y509D02*
X7Y509D01*
X59Y509D02*
X122Y509D01*
X396Y509D02*
X402Y509D01*
X420Y509D02*
X426Y509D01*
X443Y509D02*
X449Y509D01*
X848Y509D02*
X901Y509D01*
X1090Y509D02*
X1096Y509D01*
X1137Y509D02*
X1143Y509D01*
X1369Y509D02*
X1376Y509D01*
X0Y508D02*
X7Y508D01*
X58Y508D02*
X123Y508D01*
X396Y508D02*
X402Y508D01*
X420Y508D02*
X426Y508D01*
X443Y508D02*
X449Y508D01*
X849Y508D02*
X901Y508D01*
X1090Y508D02*
X1096Y508D01*
X1137Y508D02*
X1143Y508D01*
X1369Y508D02*
X1376Y508D01*
X0Y507D02*
X7Y507D01*
X58Y507D02*
X123Y507D01*
X396Y507D02*
X402Y507D01*
X420Y507D02*
X426Y507D01*
X443Y507D02*
X449Y507D01*
X849Y507D02*
X900Y507D01*
X1090Y507D02*
X1096Y507D01*
X1137Y507D02*
X1143Y507D01*
X1369Y507D02*
X1376Y507D01*
X0Y506D02*
X7Y506D01*
X58Y506D02*
X123Y506D01*
X396Y506D02*
X402Y506D01*
X419Y506D02*
X427Y506D01*
X443Y506D02*
X449Y506D01*
X867Y506D02*
X882Y506D01*
X1090Y506D02*
X1096Y506D01*
X1137Y506D02*
X1143Y506D01*
X1369Y506D02*
X1376Y506D01*
X0Y505D02*
X7Y505D01*
X59Y505D02*
X123Y505D01*
X396Y505D02*
X402Y505D01*
X418Y505D02*
X428Y505D01*
X443Y505D02*
X449Y505D01*
X866Y505D02*
X883Y505D01*
X1090Y505D02*
X1096Y505D01*
X1137Y505D02*
X1143Y505D01*
X1369Y505D02*
X1376Y505D01*
X0Y504D02*
X7Y504D01*
X59Y504D02*
X122Y504D01*
X396Y504D02*
X449Y504D01*
X866Y504D02*
X884Y504D01*
X1090Y504D02*
X1096Y504D01*
X1137Y504D02*
X1143Y504D01*
X1369Y504D02*
X1376Y504D01*
X0Y503D02*
X7Y503D01*
X60Y503D02*
X121Y503D01*
X397Y503D02*
X449Y503D01*
X865Y503D02*
X873Y503D01*
X876Y503D02*
X884Y503D01*
X1090Y503D02*
X1096Y503D01*
X1137Y503D02*
X1143Y503D01*
X1369Y503D02*
X1376Y503D01*
X0Y502D02*
X7Y502D01*
X89Y502D02*
X98Y502D01*
X397Y502D02*
X449Y502D01*
X864Y502D02*
X872Y502D01*
X877Y502D02*
X885Y502D01*
X1090Y502D02*
X1096Y502D01*
X1137Y502D02*
X1143Y502D01*
X1369Y502D02*
X1376Y502D01*
X0Y501D02*
X7Y501D01*
X90Y501D02*
X99Y501D01*
X397Y501D02*
X448Y501D01*
X863Y501D02*
X871Y501D01*
X878Y501D02*
X886Y501D01*
X1090Y501D02*
X1096Y501D01*
X1137Y501D02*
X1143Y501D01*
X1369Y501D02*
X1376Y501D01*
X0Y500D02*
X7Y500D01*
X90Y500D02*
X100Y500D01*
X398Y500D02*
X422Y500D01*
X424Y500D02*
X448Y500D01*
X862Y500D02*
X870Y500D01*
X879Y500D02*
X887Y500D01*
X1090Y500D02*
X1096Y500D01*
X1137Y500D02*
X1143Y500D01*
X1369Y500D02*
X1376Y500D01*
X0Y499D02*
X7Y499D01*
X91Y499D02*
X100Y499D01*
X399Y499D02*
X420Y499D01*
X425Y499D02*
X446Y499D01*
X861Y499D02*
X869Y499D01*
X880Y499D02*
X888Y499D01*
X1090Y499D02*
X1096Y499D01*
X1137Y499D02*
X1143Y499D01*
X1369Y499D02*
X1376Y499D01*
X0Y498D02*
X7Y498D01*
X92Y498D02*
X101Y498D01*
X401Y498D02*
X418Y498D01*
X428Y498D02*
X445Y498D01*
X860Y498D02*
X869Y498D01*
X880Y498D02*
X889Y498D01*
X1090Y498D02*
X1143Y498D01*
X1369Y498D02*
X1376Y498D01*
X0Y497D02*
X7Y497D01*
X92Y497D02*
X102Y497D01*
X860Y497D02*
X868Y497D01*
X881Y497D02*
X890Y497D01*
X1090Y497D02*
X1143Y497D01*
X1369Y497D02*
X1376Y497D01*
X0Y496D02*
X7Y496D01*
X93Y496D02*
X102Y496D01*
X859Y496D02*
X867Y496D01*
X882Y496D02*
X890Y496D01*
X1090Y496D02*
X1142Y496D01*
X1369Y496D02*
X1376Y496D01*
X0Y495D02*
X7Y495D01*
X94Y495D02*
X103Y495D01*
X858Y495D02*
X866Y495D01*
X883Y495D02*
X891Y495D01*
X1091Y495D02*
X1142Y495D01*
X1369Y495D02*
X1376Y495D01*
X0Y494D02*
X7Y494D01*
X94Y494D02*
X103Y494D01*
X857Y494D02*
X865Y494D01*
X884Y494D02*
X892Y494D01*
X1092Y494D02*
X1141Y494D01*
X1369Y494D02*
X1376Y494D01*
X0Y493D02*
X7Y493D01*
X95Y493D02*
X104Y493D01*
X856Y493D02*
X864Y493D01*
X885Y493D02*
X893Y493D01*
X1093Y493D02*
X1140Y493D01*
X1369Y493D02*
X1376Y493D01*
X0Y492D02*
X7Y492D01*
X96Y492D02*
X104Y492D01*
X855Y492D02*
X864Y492D01*
X886Y492D02*
X894Y492D01*
X1094Y492D02*
X1138Y492D01*
X1369Y492D02*
X1376Y492D01*
X0Y491D02*
X7Y491D01*
X96Y491D02*
X105Y491D01*
X854Y491D02*
X863Y491D01*
X886Y491D02*
X895Y491D01*
X1369Y491D02*
X1376Y491D01*
X0Y490D02*
X7Y490D01*
X97Y490D02*
X105Y490D01*
X854Y490D02*
X862Y490D01*
X887Y490D02*
X896Y490D01*
X1369Y490D02*
X1376Y490D01*
X0Y489D02*
X7Y489D01*
X97Y489D02*
X105Y489D01*
X853Y489D02*
X861Y489D01*
X888Y489D02*
X896Y489D01*
X1369Y489D02*
X1376Y489D01*
X0Y488D02*
X7Y488D01*
X98Y488D02*
X105Y488D01*
X852Y488D02*
X860Y488D01*
X889Y488D02*
X897Y488D01*
X1369Y488D02*
X1376Y488D01*
X0Y487D02*
X7Y487D01*
X98Y487D02*
X105Y487D01*
X851Y487D02*
X859Y487D01*
X890Y487D02*
X898Y487D01*
X962Y487D02*
X971Y487D01*
X1369Y487D02*
X1376Y487D01*
X0Y486D02*
X7Y486D01*
X98Y486D02*
X105Y486D01*
X850Y486D02*
X858Y486D01*
X891Y486D02*
X899Y486D01*
X962Y486D02*
X971Y486D01*
X1369Y486D02*
X1376Y486D01*
X0Y485D02*
X7Y485D01*
X98Y485D02*
X105Y485D01*
X849Y485D02*
X858Y485D01*
X892Y485D02*
X900Y485D01*
X962Y485D02*
X971Y485D01*
X1369Y485D02*
X1376Y485D01*
X0Y484D02*
X7Y484D01*
X98Y484D02*
X105Y484D01*
X849Y484D02*
X857Y484D01*
X892Y484D02*
X901Y484D01*
X962Y484D02*
X971Y484D01*
X1369Y484D02*
X1376Y484D01*
X0Y483D02*
X7Y483D01*
X98Y483D02*
X105Y483D01*
X848Y483D02*
X856Y483D01*
X893Y483D02*
X901Y483D01*
X962Y483D02*
X971Y483D01*
X1369Y483D02*
X1376Y483D01*
X0Y482D02*
X7Y482D01*
X98Y482D02*
X105Y482D01*
X848Y482D02*
X855Y482D01*
X894Y482D02*
X901Y482D01*
X962Y482D02*
X971Y482D01*
X1369Y482D02*
X1376Y482D01*
X0Y481D02*
X7Y481D01*
X97Y481D02*
X105Y481D01*
X848Y481D02*
X854Y481D01*
X895Y481D02*
X901Y481D01*
X962Y481D02*
X971Y481D01*
X1369Y481D02*
X1376Y481D01*
X0Y480D02*
X7Y480D01*
X97Y480D02*
X105Y480D01*
X849Y480D02*
X853Y480D01*
X896Y480D02*
X900Y480D01*
X962Y480D02*
X971Y480D01*
X1369Y480D02*
X1376Y480D01*
X0Y479D02*
X7Y479D01*
X95Y479D02*
X105Y479D01*
X850Y479D02*
X852Y479D01*
X897Y479D02*
X899Y479D01*
X962Y479D02*
X971Y479D01*
X1369Y479D02*
X1376Y479D01*
X0Y478D02*
X7Y478D01*
X81Y478D02*
X104Y478D01*
X962Y478D02*
X971Y478D01*
X1369Y478D02*
X1376Y478D01*
X0Y477D02*
X7Y477D01*
X61Y477D02*
X104Y477D01*
X962Y477D02*
X971Y477D01*
X1369Y477D02*
X1376Y477D01*
X0Y476D02*
X7Y476D01*
X59Y476D02*
X103Y476D01*
X962Y476D02*
X971Y476D01*
X1093Y476D02*
X1093Y476D01*
X1140Y476D02*
X1140Y476D01*
X1369Y476D02*
X1376Y476D01*
X0Y475D02*
X7Y475D01*
X59Y475D02*
X103Y475D01*
X962Y475D02*
X971Y475D01*
X1091Y475D02*
X1095Y475D01*
X1138Y475D02*
X1142Y475D01*
X1369Y475D02*
X1376Y475D01*
X0Y474D02*
X7Y474D01*
X58Y474D02*
X102Y474D01*
X962Y474D02*
X971Y474D01*
X1090Y474D02*
X1095Y474D01*
X1137Y474D02*
X1143Y474D01*
X1369Y474D02*
X1376Y474D01*
X0Y473D02*
X7Y473D01*
X58Y473D02*
X101Y473D01*
X962Y473D02*
X971Y473D01*
X1090Y473D02*
X1096Y473D01*
X1137Y473D02*
X1143Y473D01*
X1369Y473D02*
X1376Y473D01*
X0Y472D02*
X7Y472D01*
X58Y472D02*
X100Y472D01*
X962Y472D02*
X971Y472D01*
X1090Y472D02*
X1096Y472D01*
X1137Y472D02*
X1143Y472D01*
X1369Y472D02*
X1376Y472D01*
X0Y471D02*
X7Y471D01*
X59Y471D02*
X98Y471D01*
X962Y471D02*
X971Y471D01*
X1090Y471D02*
X1096Y471D01*
X1137Y471D02*
X1143Y471D01*
X1369Y471D02*
X1376Y471D01*
X0Y470D02*
X7Y470D01*
X60Y470D02*
X94Y470D01*
X962Y470D02*
X971Y470D01*
X1090Y470D02*
X1096Y470D01*
X1137Y470D02*
X1143Y470D01*
X1369Y470D02*
X1376Y470D01*
X0Y469D02*
X7Y469D01*
X62Y469D02*
X65Y469D01*
X848Y469D02*
X853Y469D01*
X962Y469D02*
X971Y469D01*
X1090Y469D02*
X1096Y469D01*
X1137Y469D02*
X1143Y469D01*
X1369Y469D02*
X1376Y469D01*
X0Y468D02*
X7Y468D01*
X848Y468D02*
X853Y468D01*
X874Y468D02*
X882Y468D01*
X962Y468D02*
X971Y468D01*
X1090Y468D02*
X1096Y468D01*
X1137Y468D02*
X1143Y468D01*
X1369Y468D02*
X1376Y468D01*
X0Y467D02*
X7Y467D01*
X848Y467D02*
X853Y467D01*
X870Y467D02*
X886Y467D01*
X962Y467D02*
X971Y467D01*
X1090Y467D02*
X1096Y467D01*
X1137Y467D02*
X1143Y467D01*
X1369Y467D02*
X1376Y467D01*
X0Y466D02*
X7Y466D01*
X848Y466D02*
X853Y466D01*
X868Y466D02*
X888Y466D01*
X962Y466D02*
X971Y466D01*
X1090Y466D02*
X1096Y466D01*
X1137Y466D02*
X1143Y466D01*
X1369Y466D02*
X1376Y466D01*
X0Y465D02*
X7Y465D01*
X848Y465D02*
X853Y465D01*
X866Y465D02*
X890Y465D01*
X962Y465D02*
X971Y465D01*
X1090Y465D02*
X1096Y465D01*
X1137Y465D02*
X1143Y465D01*
X1369Y465D02*
X1376Y465D01*
X0Y464D02*
X7Y464D01*
X848Y464D02*
X853Y464D01*
X865Y464D02*
X891Y464D01*
X962Y464D02*
X971Y464D01*
X1090Y464D02*
X1096Y464D01*
X1137Y464D02*
X1143Y464D01*
X1369Y464D02*
X1376Y464D01*
X0Y463D02*
X7Y463D01*
X848Y463D02*
X853Y463D01*
X864Y463D02*
X892Y463D01*
X962Y463D02*
X971Y463D01*
X1090Y463D02*
X1096Y463D01*
X1137Y463D02*
X1143Y463D01*
X1369Y463D02*
X1376Y463D01*
X0Y462D02*
X7Y462D01*
X848Y462D02*
X853Y462D01*
X863Y462D02*
X893Y462D01*
X962Y462D02*
X971Y462D01*
X1090Y462D02*
X1143Y462D01*
X1369Y462D02*
X1376Y462D01*
X0Y461D02*
X7Y461D01*
X848Y461D02*
X853Y461D01*
X862Y461D02*
X872Y461D01*
X883Y461D02*
X894Y461D01*
X962Y461D02*
X971Y461D01*
X1090Y461D02*
X1143Y461D01*
X1369Y461D02*
X1376Y461D01*
X0Y460D02*
X7Y460D01*
X848Y460D02*
X853Y460D01*
X861Y460D02*
X869Y460D01*
X886Y460D02*
X895Y460D01*
X962Y460D02*
X971Y460D01*
X1090Y460D02*
X1143Y460D01*
X1369Y460D02*
X1376Y460D01*
X0Y459D02*
X7Y459D01*
X848Y459D02*
X853Y459D01*
X860Y459D02*
X867Y459D01*
X888Y459D02*
X895Y459D01*
X962Y459D02*
X971Y459D01*
X1090Y459D02*
X1143Y459D01*
X1369Y459D02*
X1376Y459D01*
X0Y458D02*
X7Y458D01*
X848Y458D02*
X853Y458D01*
X859Y458D02*
X866Y458D01*
X889Y458D02*
X896Y458D01*
X962Y458D02*
X971Y458D01*
X1090Y458D02*
X1143Y458D01*
X1369Y458D02*
X1376Y458D01*
X0Y457D02*
X7Y457D01*
X848Y457D02*
X853Y457D01*
X859Y457D02*
X865Y457D01*
X890Y457D02*
X896Y457D01*
X962Y457D02*
X971Y457D01*
X1090Y457D02*
X1143Y457D01*
X1369Y457D02*
X1376Y457D01*
X0Y456D02*
X7Y456D01*
X848Y456D02*
X864Y456D01*
X891Y456D02*
X897Y456D01*
X962Y456D02*
X971Y456D01*
X1090Y456D02*
X1143Y456D01*
X1369Y456D02*
X1376Y456D01*
X0Y455D02*
X7Y455D01*
X848Y455D02*
X863Y455D01*
X891Y455D02*
X897Y455D01*
X962Y455D02*
X971Y455D01*
X1090Y455D02*
X1096Y455D01*
X1369Y455D02*
X1376Y455D01*
X0Y454D02*
X7Y454D01*
X848Y454D02*
X862Y454D01*
X892Y454D02*
X897Y454D01*
X962Y454D02*
X971Y454D01*
X1090Y454D02*
X1096Y454D01*
X1369Y454D02*
X1376Y454D01*
X0Y453D02*
X7Y453D01*
X848Y453D02*
X862Y453D01*
X893Y453D02*
X898Y453D01*
X962Y453D02*
X971Y453D01*
X1090Y453D02*
X1096Y453D01*
X1369Y453D02*
X1376Y453D01*
X0Y452D02*
X7Y452D01*
X848Y452D02*
X861Y452D01*
X893Y452D02*
X898Y452D01*
X962Y452D02*
X971Y452D01*
X1090Y452D02*
X1096Y452D01*
X1369Y452D02*
X1376Y452D01*
X0Y451D02*
X7Y451D01*
X848Y451D02*
X860Y451D01*
X893Y451D02*
X898Y451D01*
X962Y451D02*
X971Y451D01*
X1090Y451D02*
X1096Y451D01*
X1369Y451D02*
X1376Y451D01*
X0Y450D02*
X7Y450D01*
X893Y450D02*
X898Y450D01*
X962Y450D02*
X971Y450D01*
X1090Y450D02*
X1096Y450D01*
X1369Y450D02*
X1376Y450D01*
X0Y449D02*
X7Y449D01*
X893Y449D02*
X898Y449D01*
X962Y449D02*
X971Y449D01*
X1090Y449D02*
X1096Y449D01*
X1369Y449D02*
X1376Y449D01*
X0Y448D02*
X7Y448D01*
X894Y448D02*
X898Y448D01*
X962Y448D02*
X971Y448D01*
X1090Y448D02*
X1112Y448D01*
X1369Y448D02*
X1376Y448D01*
X0Y447D02*
X7Y447D01*
X894Y447D02*
X898Y447D01*
X962Y447D02*
X971Y447D01*
X1090Y447D02*
X1113Y447D01*
X1369Y447D02*
X1376Y447D01*
X0Y446D02*
X7Y446D01*
X894Y446D02*
X898Y446D01*
X962Y446D02*
X971Y446D01*
X1090Y446D02*
X1113Y446D01*
X1369Y446D02*
X1376Y446D01*
X0Y445D02*
X7Y445D01*
X894Y445D02*
X898Y445D01*
X962Y445D02*
X971Y445D01*
X1090Y445D02*
X1113Y445D01*
X1369Y445D02*
X1376Y445D01*
X0Y444D02*
X7Y444D01*
X893Y444D02*
X898Y444D01*
X962Y444D02*
X971Y444D01*
X1090Y444D02*
X1113Y444D01*
X1369Y444D02*
X1376Y444D01*
X0Y443D02*
X7Y443D01*
X893Y443D02*
X898Y443D01*
X962Y443D02*
X971Y443D01*
X1091Y443D02*
X1113Y443D01*
X1369Y443D02*
X1376Y443D01*
X0Y442D02*
X7Y442D01*
X848Y442D02*
X860Y442D01*
X893Y442D02*
X898Y442D01*
X962Y442D02*
X971Y442D01*
X1092Y442D02*
X1112Y442D01*
X1369Y442D02*
X1376Y442D01*
X0Y441D02*
X7Y441D01*
X848Y441D02*
X861Y441D01*
X893Y441D02*
X898Y441D01*
X962Y441D02*
X971Y441D01*
X1369Y441D02*
X1376Y441D01*
X0Y440D02*
X7Y440D01*
X848Y440D02*
X862Y440D01*
X892Y440D02*
X898Y440D01*
X962Y440D02*
X971Y440D01*
X1369Y440D02*
X1376Y440D01*
X0Y439D02*
X7Y439D01*
X848Y439D02*
X863Y439D01*
X892Y439D02*
X897Y439D01*
X962Y439D02*
X971Y439D01*
X1369Y439D02*
X1376Y439D01*
X0Y438D02*
X7Y438D01*
X848Y438D02*
X863Y438D01*
X891Y438D02*
X897Y438D01*
X962Y438D02*
X971Y438D01*
X1369Y438D02*
X1376Y438D01*
X0Y437D02*
X7Y437D01*
X848Y437D02*
X864Y437D01*
X891Y437D02*
X897Y437D01*
X962Y437D02*
X971Y437D01*
X1369Y437D02*
X1376Y437D01*
X0Y436D02*
X7Y436D01*
X848Y436D02*
X853Y436D01*
X859Y436D02*
X865Y436D01*
X890Y436D02*
X896Y436D01*
X962Y436D02*
X971Y436D01*
X1369Y436D02*
X1376Y436D01*
X0Y435D02*
X7Y435D01*
X848Y435D02*
X853Y435D01*
X859Y435D02*
X866Y435D01*
X888Y435D02*
X896Y435D01*
X962Y435D02*
X971Y435D01*
X1369Y435D02*
X1376Y435D01*
X0Y434D02*
X7Y434D01*
X848Y434D02*
X853Y434D01*
X860Y434D02*
X868Y434D01*
X887Y434D02*
X895Y434D01*
X962Y434D02*
X971Y434D01*
X1369Y434D02*
X1376Y434D01*
X0Y433D02*
X7Y433D01*
X848Y433D02*
X853Y433D01*
X861Y433D02*
X870Y433D01*
X885Y433D02*
X894Y433D01*
X962Y433D02*
X971Y433D01*
X1369Y433D02*
X1376Y433D01*
X0Y432D02*
X7Y432D01*
X848Y432D02*
X853Y432D01*
X862Y432D02*
X876Y432D01*
X879Y432D02*
X894Y432D01*
X962Y432D02*
X971Y432D01*
X1369Y432D02*
X1376Y432D01*
X0Y431D02*
X7Y431D01*
X848Y431D02*
X853Y431D01*
X863Y431D02*
X893Y431D01*
X962Y431D02*
X971Y431D01*
X1369Y431D02*
X1376Y431D01*
X0Y430D02*
X7Y430D01*
X848Y430D02*
X853Y430D01*
X864Y430D02*
X892Y430D01*
X962Y430D02*
X971Y430D01*
X1369Y430D02*
X1376Y430D01*
X0Y429D02*
X7Y429D01*
X848Y429D02*
X853Y429D01*
X865Y429D02*
X890Y429D01*
X962Y429D02*
X971Y429D01*
X1369Y429D02*
X1376Y429D01*
X0Y428D02*
X7Y428D01*
X848Y428D02*
X853Y428D01*
X867Y428D02*
X889Y428D01*
X962Y428D02*
X971Y428D01*
X1369Y428D02*
X1376Y428D01*
X0Y427D02*
X7Y427D01*
X848Y427D02*
X853Y427D01*
X869Y427D02*
X887Y427D01*
X962Y427D02*
X971Y427D01*
X1369Y427D02*
X1376Y427D01*
X0Y426D02*
X7Y426D01*
X848Y426D02*
X853Y426D01*
X871Y426D02*
X884Y426D01*
X962Y426D02*
X971Y426D01*
X1369Y426D02*
X1376Y426D01*
X0Y425D02*
X7Y425D01*
X848Y425D02*
X853Y425D01*
X877Y425D02*
X878Y425D01*
X962Y425D02*
X971Y425D01*
X1369Y425D02*
X1376Y425D01*
X0Y424D02*
X7Y424D01*
X848Y424D02*
X853Y424D01*
X962Y424D02*
X971Y424D01*
X1369Y424D02*
X1376Y424D01*
X0Y423D02*
X7Y423D01*
X962Y423D02*
X971Y423D01*
X1369Y423D02*
X1376Y423D01*
X0Y422D02*
X7Y422D01*
X962Y422D02*
X971Y422D01*
X1369Y422D02*
X1376Y422D01*
X0Y421D02*
X7Y421D01*
X962Y421D02*
X965Y421D01*
X967Y421D02*
X971Y421D01*
X1369Y421D02*
X1376Y421D01*
X0Y420D02*
X7Y420D01*
X1369Y420D02*
X1376Y420D01*
X0Y419D02*
X7Y419D01*
X1369Y419D02*
X1376Y419D01*
X0Y418D02*
X7Y418D01*
X1369Y418D02*
X1376Y418D01*
X0Y417D02*
X7Y417D01*
X1369Y417D02*
X1376Y417D01*
X0Y416D02*
X7Y416D01*
X1369Y416D02*
X1376Y416D01*
X0Y415D02*
X7Y415D01*
X1369Y415D02*
X1376Y415D01*
X0Y414D02*
X7Y414D01*
X1369Y414D02*
X1376Y414D01*
X0Y413D02*
X7Y413D01*
X1369Y413D02*
X1376Y413D01*
X0Y412D02*
X7Y412D01*
X1369Y412D02*
X1376Y412D01*
X0Y411D02*
X7Y411D01*
X1369Y411D02*
X1376Y411D01*
X0Y410D02*
X7Y410D01*
X1369Y410D02*
X1376Y410D01*
X0Y409D02*
X7Y409D01*
X1369Y409D02*
X1376Y409D01*
X0Y408D02*
X7Y408D01*
X1369Y408D02*
X1376Y408D01*
X0Y407D02*
X7Y407D01*
X1369Y407D02*
X1376Y407D01*
X0Y406D02*
X7Y406D01*
X1369Y406D02*
X1376Y406D01*
X0Y405D02*
X7Y405D01*
X1369Y405D02*
X1376Y405D01*
X0Y404D02*
X7Y404D01*
X1369Y404D02*
X1376Y404D01*
X0Y403D02*
X7Y403D01*
X1369Y403D02*
X1376Y403D01*
X0Y402D02*
X7Y402D01*
X1369Y402D02*
X1376Y402D01*
X0Y401D02*
X7Y401D01*
X1369Y401D02*
X1376Y401D01*
X0Y400D02*
X7Y400D01*
X1369Y400D02*
X1376Y400D01*
X0Y399D02*
X7Y399D01*
X1369Y399D02*
X1376Y399D01*
X0Y398D02*
X7Y398D01*
X1369Y398D02*
X1376Y398D01*
X0Y397D02*
X7Y397D01*
X1369Y397D02*
X1376Y397D01*
X0Y396D02*
X7Y396D01*
X1369Y396D02*
X1376Y396D01*
X0Y395D02*
X7Y395D01*
X1369Y395D02*
X1376Y395D01*
X0Y394D02*
X7Y394D01*
X1369Y394D02*
X1376Y394D01*
X0Y393D02*
X7Y393D01*
X1369Y393D02*
X1376Y393D01*
X0Y392D02*
X7Y392D01*
X1369Y392D02*
X1376Y392D01*
X0Y391D02*
X7Y391D01*
X1369Y391D02*
X1376Y391D01*
X0Y390D02*
X7Y390D01*
X1369Y390D02*
X1376Y390D01*
X0Y389D02*
X7Y389D01*
X1369Y389D02*
X1376Y389D01*
X0Y388D02*
X7Y388D01*
X1369Y388D02*
X1376Y388D01*
X0Y387D02*
X7Y387D01*
X1369Y387D02*
X1376Y387D01*
X0Y386D02*
X7Y386D01*
X1369Y386D02*
X1376Y386D01*
X0Y385D02*
X7Y385D01*
X1369Y385D02*
X1376Y385D01*
X0Y384D02*
X7Y384D01*
X1369Y384D02*
X1376Y384D01*
X0Y383D02*
X7Y383D01*
X1369Y383D02*
X1376Y383D01*
X0Y382D02*
X7Y382D01*
X1369Y382D02*
X1376Y382D01*
X0Y381D02*
X7Y381D01*
X1369Y381D02*
X1376Y381D01*
X0Y380D02*
X7Y380D01*
X1369Y380D02*
X1376Y380D01*
X0Y379D02*
X7Y379D01*
X1369Y379D02*
X1376Y379D01*
X0Y378D02*
X7Y378D01*
X1369Y378D02*
X1376Y378D01*
X0Y377D02*
X7Y377D01*
X1369Y377D02*
X1376Y377D01*
X0Y376D02*
X7Y376D01*
X1369Y376D02*
X1376Y376D01*
X0Y375D02*
X7Y375D01*
X1369Y375D02*
X1376Y375D01*
X0Y374D02*
X7Y374D01*
X1369Y374D02*
X1376Y374D01*
X0Y373D02*
X7Y373D01*
X1369Y373D02*
X1376Y373D01*
X0Y372D02*
X7Y372D01*
X1369Y372D02*
X1376Y372D01*
X0Y371D02*
X7Y371D01*
X1369Y371D02*
X1376Y371D01*
X0Y370D02*
X7Y370D01*
X1369Y370D02*
X1376Y370D01*
X0Y369D02*
X7Y369D01*
X1369Y369D02*
X1376Y369D01*
X0Y368D02*
X7Y368D01*
X1369Y368D02*
X1376Y368D01*
X0Y367D02*
X7Y367D01*
X1369Y367D02*
X1376Y367D01*
X0Y366D02*
X7Y366D01*
X1369Y366D02*
X1376Y366D01*
X0Y365D02*
X7Y365D01*
X1369Y365D02*
X1376Y365D01*
X0Y364D02*
X7Y364D01*
X1369Y364D02*
X1376Y364D01*
X0Y363D02*
X7Y363D01*
X1369Y363D02*
X1376Y363D01*
X0Y362D02*
X7Y362D01*
X1369Y362D02*
X1376Y362D01*
X0Y361D02*
X7Y361D01*
X1369Y361D02*
X1376Y361D01*
X0Y360D02*
X7Y360D01*
X1369Y360D02*
X1376Y360D01*
X0Y359D02*
X7Y359D01*
X1369Y359D02*
X1376Y359D01*
X0Y358D02*
X7Y358D01*
X1369Y358D02*
X1376Y358D01*
X0Y357D02*
X7Y357D01*
X1369Y357D02*
X1376Y357D01*
X0Y356D02*
X7Y356D01*
X1369Y356D02*
X1376Y356D01*
X0Y355D02*
X7Y355D01*
X1369Y355D02*
X1376Y355D01*
X0Y354D02*
X7Y354D01*
X1369Y354D02*
X1376Y354D01*
X0Y353D02*
X7Y353D01*
X1369Y353D02*
X1376Y353D01*
X0Y352D02*
X7Y352D01*
X1369Y352D02*
X1376Y352D01*
X0Y351D02*
X7Y351D01*
X1369Y351D02*
X1376Y351D01*
X0Y350D02*
X7Y350D01*
X1369Y350D02*
X1376Y350D01*
X0Y349D02*
X7Y349D01*
X1369Y349D02*
X1376Y349D01*
X0Y348D02*
X7Y348D01*
X1369Y348D02*
X1376Y348D01*
X0Y347D02*
X7Y347D01*
X1369Y347D02*
X1376Y347D01*
X0Y346D02*
X7Y346D01*
X1369Y346D02*
X1376Y346D01*
X0Y345D02*
X7Y345D01*
X1369Y345D02*
X1376Y345D01*
X0Y344D02*
X7Y344D01*
X1369Y344D02*
X1376Y344D01*
X0Y343D02*
X7Y343D01*
X1369Y343D02*
X1376Y343D01*
X0Y342D02*
X7Y342D01*
X1369Y342D02*
X1376Y342D01*
X0Y341D02*
X7Y341D01*
X1369Y341D02*
X1376Y341D01*
X0Y340D02*
X7Y340D01*
X1369Y340D02*
X1376Y340D01*
X0Y339D02*
X7Y339D01*
X1369Y339D02*
X1376Y339D01*
X0Y338D02*
X7Y338D01*
X1369Y338D02*
X1376Y338D01*
X0Y337D02*
X7Y337D01*
X1369Y337D02*
X1376Y337D01*
X0Y336D02*
X7Y336D01*
X1369Y336D02*
X1376Y336D01*
X0Y335D02*
X7Y335D01*
X1369Y335D02*
X1376Y335D01*
X0Y334D02*
X7Y334D01*
X1369Y334D02*
X1376Y334D01*
X0Y333D02*
X7Y333D01*
X691Y333D02*
X691Y333D01*
X1369Y333D02*
X1376Y333D01*
X0Y332D02*
X7Y332D01*
X691Y332D02*
X691Y332D01*
X1369Y332D02*
X1376Y332D01*
X0Y331D02*
X7Y331D01*
X691Y331D02*
X691Y331D01*
X1369Y331D02*
X1376Y331D01*
X0Y330D02*
X7Y330D01*
X691Y330D02*
X691Y330D01*
X1369Y330D02*
X1376Y330D01*
X0Y329D02*
X7Y329D01*
X1369Y329D02*
X1376Y329D01*
X0Y328D02*
X7Y328D01*
X86Y328D02*
X89Y328D01*
X693Y328D02*
X693Y328D01*
X1369Y328D02*
X1376Y328D01*
X0Y327D02*
X7Y327D01*
X87Y327D02*
X88Y327D01*
X691Y327D02*
X692Y327D01*
X1369Y327D02*
X1376Y327D01*
X0Y326D02*
X7Y326D01*
X689Y326D02*
X690Y326D01*
X1369Y326D02*
X1376Y326D01*
X0Y325D02*
X7Y325D01*
X690Y325D02*
X692Y325D01*
X1369Y325D02*
X1376Y325D01*
X0Y324D02*
X7Y324D01*
X693Y324D02*
X694Y324D01*
X1369Y324D02*
X1376Y324D01*
X0Y323D02*
X7Y323D01*
X87Y323D02*
X90Y323D01*
X1369Y323D02*
X1376Y323D01*
X0Y322D02*
X7Y322D01*
X85Y322D02*
X86Y322D01*
X690Y322D02*
X691Y322D01*
X1369Y322D02*
X1376Y322D01*
X0Y321D02*
X7Y321D01*
X86Y321D02*
X87Y321D01*
X689Y321D02*
X689Y321D01*
X692Y321D02*
X692Y321D01*
X1369Y321D02*
X1376Y321D01*
X0Y320D02*
X7Y320D01*
X88Y320D02*
X90Y320D01*
X692Y320D02*
X692Y320D01*
X1369Y320D02*
X1376Y320D01*
X0Y319D02*
X7Y319D01*
X689Y319D02*
X689Y319D01*
X692Y319D02*
X692Y319D01*
X1369Y319D02*
X1376Y319D01*
X0Y318D02*
X7Y318D01*
X690Y318D02*
X691Y318D01*
X1369Y318D02*
X1376Y318D01*
X0Y317D02*
X7Y317D01*
X85Y317D02*
X88Y317D01*
X1369Y317D02*
X1376Y317D01*
X0Y316D02*
X7Y316D01*
X85Y316D02*
X85Y316D01*
X1369Y316D02*
X1376Y316D01*
X0Y315D02*
X7Y315D01*
X85Y315D02*
X85Y315D01*
X88Y315D02*
X88Y315D01*
X1369Y315D02*
X1376Y315D01*
X0Y314D02*
X7Y314D01*
X86Y314D02*
X88Y314D01*
X1369Y314D02*
X1376Y314D01*
X0Y313D02*
X7Y313D01*
X1369Y313D02*
X1376Y313D01*
X0Y312D02*
X7Y312D01*
X1369Y312D02*
X1376Y312D01*
X0Y311D02*
X7Y311D01*
X1369Y311D02*
X1376Y311D01*
X0Y310D02*
X7Y310D01*
X1369Y310D02*
X1376Y310D01*
X0Y309D02*
X7Y309D01*
X1369Y309D02*
X1376Y309D01*
X0Y308D02*
X7Y308D01*
X1369Y308D02*
X1376Y308D01*
X0Y307D02*
X7Y307D01*
X1369Y307D02*
X1376Y307D01*
X0Y306D02*
X7Y306D01*
X1369Y306D02*
X1376Y306D01*
X0Y305D02*
X7Y305D01*
X1369Y305D02*
X1376Y305D01*
X0Y304D02*
X7Y304D01*
X1369Y304D02*
X1376Y304D01*
X0Y303D02*
X7Y303D01*
X1369Y303D02*
X1376Y303D01*
X0Y302D02*
X7Y302D01*
X1369Y302D02*
X1376Y302D01*
X0Y301D02*
X7Y301D01*
X1369Y301D02*
X1376Y301D01*
X0Y300D02*
X7Y300D01*
X1369Y300D02*
X1376Y300D01*
X0Y299D02*
X7Y299D01*
X1369Y299D02*
X1376Y299D01*
X0Y298D02*
X7Y298D01*
X1369Y298D02*
X1376Y298D01*
X0Y297D02*
X7Y297D01*
X1369Y297D02*
X1376Y297D01*
X0Y296D02*
X7Y296D01*
X1369Y296D02*
X1376Y296D01*
X0Y295D02*
X7Y295D01*
X1369Y295D02*
X1376Y295D01*
X0Y294D02*
X7Y294D01*
X1369Y294D02*
X1376Y294D01*
X0Y293D02*
X7Y293D01*
X1369Y293D02*
X1376Y293D01*
X0Y292D02*
X7Y292D01*
X1369Y292D02*
X1376Y292D01*
X0Y291D02*
X7Y291D01*
X1369Y291D02*
X1376Y291D01*
X0Y290D02*
X7Y290D01*
X1369Y290D02*
X1376Y290D01*
X0Y289D02*
X7Y289D01*
X1369Y289D02*
X1376Y289D01*
X0Y288D02*
X7Y288D01*
X1369Y288D02*
X1376Y288D01*
X0Y287D02*
X7Y287D01*
X1369Y287D02*
X1376Y287D01*
X0Y286D02*
X7Y286D01*
X1369Y286D02*
X1376Y286D01*
X0Y285D02*
X7Y285D01*
X1369Y285D02*
X1376Y285D01*
X0Y284D02*
X7Y284D01*
X1369Y284D02*
X1376Y284D01*
X0Y283D02*
X7Y283D01*
X1369Y283D02*
X1376Y283D01*
X0Y282D02*
X7Y282D01*
X1369Y282D02*
X1376Y282D01*
X0Y281D02*
X7Y281D01*
X1369Y281D02*
X1376Y281D01*
X0Y280D02*
X7Y280D01*
X1369Y280D02*
X1376Y280D01*
X0Y279D02*
X7Y279D01*
X1369Y279D02*
X1376Y279D01*
X0Y278D02*
X7Y278D01*
X1369Y278D02*
X1376Y278D01*
X0Y277D02*
X7Y277D01*
X1369Y277D02*
X1376Y277D01*
X0Y276D02*
X7Y276D01*
X1369Y276D02*
X1376Y276D01*
X0Y275D02*
X7Y275D01*
X1369Y275D02*
X1376Y275D01*
X0Y274D02*
X7Y274D01*
X1369Y274D02*
X1376Y274D01*
X0Y273D02*
X7Y273D01*
X1369Y273D02*
X1376Y273D01*
X0Y272D02*
X7Y272D01*
X1369Y272D02*
X1376Y272D01*
X0Y271D02*
X7Y271D01*
X1369Y271D02*
X1376Y271D01*
X0Y270D02*
X7Y270D01*
X1369Y270D02*
X1376Y270D01*
X0Y269D02*
X7Y269D01*
X1369Y269D02*
X1376Y269D01*
X0Y268D02*
X7Y268D01*
X1369Y268D02*
X1376Y268D01*
X0Y267D02*
X7Y267D01*
X1369Y267D02*
X1376Y267D01*
X0Y266D02*
X7Y266D01*
X1369Y266D02*
X1376Y266D01*
X0Y265D02*
X7Y265D01*
X1369Y265D02*
X1376Y265D01*
X0Y264D02*
X7Y264D01*
X1369Y264D02*
X1376Y264D01*
X0Y263D02*
X7Y263D01*
X1369Y263D02*
X1376Y263D01*
X0Y262D02*
X7Y262D01*
X1369Y262D02*
X1376Y262D01*
X0Y261D02*
X7Y261D01*
X1369Y261D02*
X1376Y261D01*
X0Y260D02*
X7Y260D01*
X1369Y260D02*
X1376Y260D01*
X0Y259D02*
X7Y259D01*
X1369Y259D02*
X1376Y259D01*
X0Y258D02*
X7Y258D01*
X1369Y258D02*
X1376Y258D01*
X0Y257D02*
X7Y257D01*
X1369Y257D02*
X1376Y257D01*
X0Y256D02*
X7Y256D01*
X1369Y256D02*
X1376Y256D01*
X0Y255D02*
X7Y255D01*
X1369Y255D02*
X1376Y255D01*
X0Y254D02*
X7Y254D01*
X1369Y254D02*
X1376Y254D01*
X0Y253D02*
X7Y253D01*
X1369Y253D02*
X1376Y253D01*
X0Y252D02*
X7Y252D01*
X1369Y252D02*
X1376Y252D01*
X0Y251D02*
X7Y251D01*
X1369Y251D02*
X1376Y251D01*
X0Y250D02*
X7Y250D01*
X1369Y250D02*
X1376Y250D01*
X0Y249D02*
X7Y249D01*
X1369Y249D02*
X1376Y249D01*
X0Y248D02*
X7Y248D01*
X1369Y248D02*
X1376Y248D01*
X0Y247D02*
X7Y247D01*
X1369Y247D02*
X1376Y247D01*
X0Y246D02*
X7Y246D01*
X1369Y246D02*
X1376Y246D01*
X0Y245D02*
X7Y245D01*
X1369Y245D02*
X1376Y245D01*
X0Y244D02*
X7Y244D01*
X1369Y244D02*
X1376Y244D01*
X0Y243D02*
X7Y243D01*
X1369Y243D02*
X1376Y243D01*
X0Y242D02*
X7Y242D01*
X1369Y242D02*
X1376Y242D01*
X0Y241D02*
X7Y241D01*
X1369Y241D02*
X1376Y241D01*
X0Y240D02*
X7Y240D01*
X1369Y240D02*
X1376Y240D01*
X0Y239D02*
X7Y239D01*
X1369Y239D02*
X1376Y239D01*
X0Y238D02*
X7Y238D01*
X1369Y238D02*
X1376Y238D01*
X0Y237D02*
X7Y237D01*
X1369Y237D02*
X1376Y237D01*
X0Y236D02*
X7Y236D01*
X1369Y236D02*
X1376Y236D01*
X0Y235D02*
X7Y235D01*
X1369Y235D02*
X1376Y235D01*
X0Y234D02*
X7Y234D01*
X1369Y234D02*
X1376Y234D01*
X0Y233D02*
X7Y233D01*
X1369Y233D02*
X1376Y233D01*
X0Y232D02*
X7Y232D01*
X1369Y232D02*
X1376Y232D01*
X0Y231D02*
X7Y231D01*
X1369Y231D02*
X1376Y231D01*
X0Y230D02*
X7Y230D01*
X1369Y230D02*
X1376Y230D01*
X0Y229D02*
X7Y229D01*
X1369Y229D02*
X1376Y229D01*
X0Y228D02*
X7Y228D01*
X1369Y228D02*
X1376Y228D01*
X0Y227D02*
X7Y227D01*
X1369Y227D02*
X1376Y227D01*
X0Y226D02*
X7Y226D01*
X1369Y226D02*
X1376Y226D01*
X0Y225D02*
X7Y225D01*
X1369Y225D02*
X1376Y225D01*
X0Y224D02*
X7Y224D01*
X1369Y224D02*
X1376Y224D01*
X0Y223D02*
X7Y223D01*
X1369Y223D02*
X1376Y223D01*
X0Y222D02*
X7Y222D01*
X1369Y222D02*
X1376Y222D01*
X0Y221D02*
X7Y221D01*
X1369Y221D02*
X1376Y221D01*
X0Y220D02*
X7Y220D01*
X1369Y220D02*
X1376Y220D01*
X0Y219D02*
X7Y219D01*
X1369Y219D02*
X1376Y219D01*
X0Y218D02*
X7Y218D01*
X1369Y218D02*
X1376Y218D01*
X0Y217D02*
X7Y217D01*
X1369Y217D02*
X1376Y217D01*
X0Y216D02*
X7Y216D01*
X1369Y216D02*
X1376Y216D01*
X0Y215D02*
X7Y215D01*
X1369Y215D02*
X1376Y215D01*
X0Y214D02*
X7Y214D01*
X1369Y214D02*
X1376Y214D01*
X0Y213D02*
X7Y213D01*
X1369Y213D02*
X1376Y213D01*
X0Y212D02*
X7Y212D01*
X1369Y212D02*
X1376Y212D01*
X0Y211D02*
X7Y211D01*
X1369Y211D02*
X1376Y211D01*
X0Y210D02*
X7Y210D01*
X1369Y210D02*
X1376Y210D01*
X0Y209D02*
X7Y209D01*
X1369Y209D02*
X1376Y209D01*
X0Y208D02*
X7Y208D01*
X1369Y208D02*
X1376Y208D01*
X0Y207D02*
X7Y207D01*
X1369Y207D02*
X1376Y207D01*
X0Y206D02*
X7Y206D01*
X1369Y206D02*
X1376Y206D01*
X0Y205D02*
X7Y205D01*
X1369Y205D02*
X1376Y205D01*
X0Y204D02*
X7Y204D01*
X1369Y204D02*
X1376Y204D01*
X0Y203D02*
X7Y203D01*
X1369Y203D02*
X1376Y203D01*
X0Y202D02*
X7Y202D01*
X1369Y202D02*
X1376Y202D01*
X0Y201D02*
X7Y201D01*
X1369Y201D02*
X1376Y201D01*
X0Y200D02*
X7Y200D01*
X1369Y200D02*
X1376Y200D01*
X0Y199D02*
X7Y199D01*
X1369Y199D02*
X1376Y199D01*
X0Y198D02*
X7Y198D01*
X1369Y198D02*
X1376Y198D01*
X0Y197D02*
X7Y197D01*
X1369Y197D02*
X1376Y197D01*
X0Y196D02*
X7Y196D01*
X1369Y196D02*
X1376Y196D01*
X0Y195D02*
X7Y195D01*
X1369Y195D02*
X1376Y195D01*
X0Y194D02*
X7Y194D01*
X1369Y194D02*
X1376Y194D01*
X0Y193D02*
X7Y193D01*
X1369Y193D02*
X1376Y193D01*
X0Y192D02*
X7Y192D01*
X1369Y192D02*
X1376Y192D01*
X0Y191D02*
X7Y191D01*
X1369Y191D02*
X1376Y191D01*
X0Y190D02*
X7Y190D01*
X1369Y190D02*
X1376Y190D01*
X0Y189D02*
X7Y189D01*
X1369Y189D02*
X1376Y189D01*
X0Y188D02*
X7Y188D01*
X1369Y188D02*
X1376Y188D01*
X0Y187D02*
X7Y187D01*
X1369Y187D02*
X1376Y187D01*
X0Y186D02*
X7Y186D01*
X1369Y186D02*
X1376Y186D01*
X0Y185D02*
X7Y185D01*
X1369Y185D02*
X1376Y185D01*
X0Y184D02*
X7Y184D01*
X1369Y184D02*
X1376Y184D01*
X0Y183D02*
X7Y183D01*
X1369Y183D02*
X1376Y183D01*
X0Y182D02*
X7Y182D01*
X1369Y182D02*
X1376Y182D01*
X0Y181D02*
X7Y181D01*
X1369Y181D02*
X1376Y181D01*
X0Y180D02*
X7Y180D01*
X1369Y180D02*
X1376Y180D01*
X0Y179D02*
X7Y179D01*
X1369Y179D02*
X1376Y179D01*
X0Y178D02*
X7Y178D01*
X1369Y178D02*
X1376Y178D01*
X0Y177D02*
X7Y177D01*
X815Y177D02*
X831Y177D01*
X1369Y177D02*
X1376Y177D01*
X0Y176D02*
X7Y176D01*
X814Y176D02*
X832Y176D01*
X1369Y176D02*
X1376Y176D01*
X0Y175D02*
X7Y175D01*
X812Y175D02*
X833Y175D01*
X1369Y175D02*
X1376Y175D01*
X0Y174D02*
X7Y174D01*
X812Y174D02*
X833Y174D01*
X1369Y174D02*
X1376Y174D01*
X0Y173D02*
X7Y173D01*
X811Y173D02*
X832Y173D01*
X1369Y173D02*
X1376Y173D01*
X0Y172D02*
X7Y172D01*
X810Y172D02*
X832Y172D01*
X1369Y172D02*
X1376Y172D01*
X0Y171D02*
X7Y171D01*
X810Y171D02*
X830Y171D01*
X1369Y171D02*
X1376Y171D01*
X0Y170D02*
X7Y170D01*
X809Y170D02*
X816Y170D01*
X1369Y170D02*
X1376Y170D01*
X0Y169D02*
X7Y169D01*
X809Y169D02*
X815Y169D01*
X1369Y169D02*
X1376Y169D01*
X0Y168D02*
X7Y168D01*
X809Y168D02*
X815Y168D01*
X1369Y168D02*
X1376Y168D01*
X0Y167D02*
X7Y167D01*
X809Y167D02*
X815Y167D01*
X1369Y167D02*
X1376Y167D01*
X0Y166D02*
X7Y166D01*
X809Y166D02*
X815Y166D01*
X1369Y166D02*
X1376Y166D01*
X0Y165D02*
X7Y165D01*
X809Y165D02*
X815Y165D01*
X1369Y165D02*
X1376Y165D01*
X0Y164D02*
X7Y164D01*
X809Y164D02*
X815Y164D01*
X1369Y164D02*
X1376Y164D01*
X0Y163D02*
X7Y163D01*
X809Y163D02*
X815Y163D01*
X1369Y163D02*
X1376Y163D01*
X0Y162D02*
X7Y162D01*
X809Y162D02*
X815Y162D01*
X1369Y162D02*
X1376Y162D01*
X0Y161D02*
X7Y161D01*
X809Y161D02*
X815Y161D01*
X1369Y161D02*
X1376Y161D01*
X0Y160D02*
X7Y160D01*
X809Y160D02*
X815Y160D01*
X1369Y160D02*
X1376Y160D01*
X0Y159D02*
X7Y159D01*
X809Y159D02*
X815Y159D01*
X1369Y159D02*
X1376Y159D01*
X0Y158D02*
X7Y158D01*
X809Y158D02*
X816Y158D01*
X1369Y158D02*
X1376Y158D01*
X0Y157D02*
X7Y157D01*
X810Y157D02*
X859Y157D01*
X1369Y157D02*
X1376Y157D01*
X0Y156D02*
X7Y156D01*
X810Y156D02*
X861Y156D01*
X1369Y156D02*
X1376Y156D01*
X0Y155D02*
X7Y155D01*
X811Y155D02*
X862Y155D01*
X1369Y155D02*
X1376Y155D01*
X0Y154D02*
X7Y154D01*
X811Y154D02*
X862Y154D01*
X1369Y154D02*
X1376Y154D01*
X0Y153D02*
X7Y153D01*
X812Y153D02*
X862Y153D01*
X1369Y153D02*
X1376Y153D01*
X0Y152D02*
X7Y152D01*
X814Y152D02*
X862Y152D01*
X1369Y152D02*
X1376Y152D01*
X0Y151D02*
X7Y151D01*
X815Y151D02*
X861Y151D01*
X1369Y151D02*
X1376Y151D01*
X0Y150D02*
X7Y150D01*
X1369Y150D02*
X1376Y150D01*
X0Y149D02*
X7Y149D01*
X1369Y149D02*
X1376Y149D01*
X0Y148D02*
X7Y148D01*
X1369Y148D02*
X1376Y148D01*
X0Y147D02*
X7Y147D01*
X1369Y147D02*
X1376Y147D01*
X0Y146D02*
X7Y146D01*
X1369Y146D02*
X1376Y146D01*
X0Y145D02*
X7Y145D01*
X1369Y145D02*
X1376Y145D01*
X0Y144D02*
X7Y144D01*
X1369Y144D02*
X1376Y144D01*
X0Y143D02*
X7Y143D01*
X1369Y143D02*
X1376Y143D01*
X0Y142D02*
X7Y142D01*
X1369Y142D02*
X1376Y142D01*
X0Y141D02*
X7Y141D01*
X1369Y141D02*
X1376Y141D01*
X0Y140D02*
X7Y140D01*
X1369Y140D02*
X1376Y140D01*
X0Y139D02*
X7Y139D01*
X1369Y139D02*
X1376Y139D01*
X0Y138D02*
X7Y138D01*
X1369Y138D02*
X1376Y138D01*
X0Y137D02*
X7Y137D01*
X1369Y137D02*
X1376Y137D01*
X0Y136D02*
X7Y136D01*
X1369Y136D02*
X1376Y136D01*
X0Y135D02*
X7Y135D01*
X1369Y135D02*
X1376Y135D01*
X0Y134D02*
X7Y134D01*
X1369Y134D02*
X1376Y134D01*
X0Y133D02*
X7Y133D01*
X1369Y133D02*
X1376Y133D01*
X0Y132D02*
X7Y132D01*
X1369Y132D02*
X1376Y132D01*
X0Y131D02*
X7Y131D01*
X809Y131D02*
X833Y131D01*
X858Y131D02*
X860Y131D01*
X1369Y131D02*
X1376Y131D01*
X0Y130D02*
X7Y130D01*
X809Y130D02*
X835Y130D01*
X857Y130D02*
X861Y130D01*
X1369Y130D02*
X1376Y130D01*
X0Y129D02*
X7Y129D01*
X809Y129D02*
X837Y129D01*
X856Y129D02*
X862Y129D01*
X1369Y129D02*
X1376Y129D01*
X0Y128D02*
X7Y128D01*
X809Y128D02*
X837Y128D01*
X856Y128D02*
X862Y128D01*
X1369Y128D02*
X1376Y128D01*
X0Y127D02*
X7Y127D01*
X809Y127D02*
X838Y127D01*
X856Y127D02*
X862Y127D01*
X1369Y127D02*
X1376Y127D01*
X0Y126D02*
X7Y126D01*
X809Y126D02*
X838Y126D01*
X856Y126D02*
X862Y126D01*
X1369Y126D02*
X1376Y126D01*
X0Y125D02*
X7Y125D01*
X809Y125D02*
X838Y125D01*
X856Y125D02*
X862Y125D01*
X1369Y125D02*
X1376Y125D01*
X0Y124D02*
X7Y124D01*
X809Y124D02*
X815Y124D01*
X832Y124D02*
X839Y124D01*
X856Y124D02*
X862Y124D01*
X1369Y124D02*
X1376Y124D01*
X0Y123D02*
X7Y123D01*
X809Y123D02*
X815Y123D01*
X833Y123D02*
X839Y123D01*
X856Y123D02*
X862Y123D01*
X1369Y123D02*
X1376Y123D01*
X0Y122D02*
X7Y122D01*
X809Y122D02*
X815Y122D01*
X833Y122D02*
X839Y122D01*
X856Y122D02*
X862Y122D01*
X1369Y122D02*
X1376Y122D01*
X0Y121D02*
X7Y121D01*
X809Y121D02*
X815Y121D01*
X833Y121D02*
X839Y121D01*
X856Y121D02*
X862Y121D01*
X1369Y121D02*
X1376Y121D01*
X0Y120D02*
X7Y120D01*
X809Y120D02*
X815Y120D01*
X833Y120D02*
X839Y120D01*
X856Y120D02*
X862Y120D01*
X1369Y120D02*
X1376Y120D01*
X0Y119D02*
X7Y119D01*
X809Y119D02*
X815Y119D01*
X833Y119D02*
X839Y119D01*
X856Y119D02*
X862Y119D01*
X1369Y119D02*
X1376Y119D01*
X0Y118D02*
X7Y118D01*
X809Y118D02*
X815Y118D01*
X833Y118D02*
X839Y118D01*
X856Y118D02*
X862Y118D01*
X1369Y118D02*
X1376Y118D01*
X0Y117D02*
X7Y117D01*
X809Y117D02*
X815Y117D01*
X833Y117D02*
X839Y117D01*
X856Y117D02*
X862Y117D01*
X1369Y117D02*
X1376Y117D01*
X0Y116D02*
X7Y116D01*
X809Y116D02*
X815Y116D01*
X833Y116D02*
X839Y116D01*
X856Y116D02*
X862Y116D01*
X1369Y116D02*
X1376Y116D01*
X0Y115D02*
X7Y115D01*
X809Y115D02*
X815Y115D01*
X833Y115D02*
X839Y115D01*
X856Y115D02*
X862Y115D01*
X1369Y115D02*
X1376Y115D01*
X0Y114D02*
X7Y114D01*
X809Y114D02*
X815Y114D01*
X833Y114D02*
X839Y114D01*
X856Y114D02*
X862Y114D01*
X1369Y114D02*
X1376Y114D01*
X0Y113D02*
X7Y113D01*
X809Y113D02*
X815Y113D01*
X833Y113D02*
X839Y113D01*
X856Y113D02*
X862Y113D01*
X1369Y113D02*
X1376Y113D01*
X0Y112D02*
X7Y112D01*
X809Y112D02*
X815Y112D01*
X833Y112D02*
X839Y112D01*
X856Y112D02*
X862Y112D01*
X1369Y112D02*
X1376Y112D01*
X0Y111D02*
X7Y111D01*
X809Y111D02*
X815Y111D01*
X833Y111D02*
X839Y111D01*
X856Y111D02*
X862Y111D01*
X1369Y111D02*
X1376Y111D01*
X0Y110D02*
X7Y110D01*
X809Y110D02*
X815Y110D01*
X833Y110D02*
X839Y110D01*
X856Y110D02*
X862Y110D01*
X1369Y110D02*
X1376Y110D01*
X0Y109D02*
X7Y109D01*
X809Y109D02*
X815Y109D01*
X833Y109D02*
X839Y109D01*
X856Y109D02*
X862Y109D01*
X1369Y109D02*
X1376Y109D01*
X0Y108D02*
X7Y108D01*
X809Y108D02*
X815Y108D01*
X833Y108D02*
X839Y108D01*
X856Y108D02*
X862Y108D01*
X1369Y108D02*
X1376Y108D01*
X0Y107D02*
X7Y107D01*
X809Y107D02*
X815Y107D01*
X833Y107D02*
X839Y107D01*
X856Y107D02*
X862Y107D01*
X1369Y107D02*
X1376Y107D01*
X0Y106D02*
X7Y106D01*
X809Y106D02*
X815Y106D01*
X833Y106D02*
X839Y106D01*
X856Y106D02*
X862Y106D01*
X1369Y106D02*
X1376Y106D01*
X0Y105D02*
X7Y105D01*
X809Y105D02*
X815Y105D01*
X833Y105D02*
X839Y105D01*
X856Y105D02*
X862Y105D01*
X1369Y105D02*
X1376Y105D01*
X0Y104D02*
X7Y104D01*
X809Y104D02*
X815Y104D01*
X833Y104D02*
X839Y104D01*
X856Y104D02*
X862Y104D01*
X1369Y104D02*
X1376Y104D01*
X0Y103D02*
X7Y103D01*
X809Y103D02*
X815Y103D01*
X833Y103D02*
X862Y103D01*
X1369Y103D02*
X1376Y103D01*
X0Y102D02*
X7Y102D01*
X809Y102D02*
X815Y102D01*
X833Y102D02*
X862Y102D01*
X1369Y102D02*
X1376Y102D01*
X0Y101D02*
X7Y101D01*
X809Y101D02*
X815Y101D01*
X833Y101D02*
X862Y101D01*
X1369Y101D02*
X1376Y101D01*
X0Y100D02*
X7Y100D01*
X809Y100D02*
X815Y100D01*
X834Y100D02*
X861Y100D01*
X1369Y100D02*
X1376Y100D01*
X0Y99D02*
X7Y99D01*
X809Y99D02*
X815Y99D01*
X834Y99D02*
X860Y99D01*
X1369Y99D02*
X1376Y99D01*
X0Y98D02*
X7Y98D01*
X810Y98D02*
X814Y98D01*
X836Y98D02*
X859Y98D01*
X1369Y98D02*
X1376Y98D01*
X0Y97D02*
X7Y97D01*
X811Y97D02*
X813Y97D01*
X838Y97D02*
X857Y97D01*
X1369Y97D02*
X1376Y97D01*
X0Y96D02*
X7Y96D01*
X1369Y96D02*
X1376Y96D01*
X0Y95D02*
X7Y95D01*
X1369Y95D02*
X1376Y95D01*
X0Y94D02*
X7Y94D01*
X1369Y94D02*
X1376Y94D01*
X0Y93D02*
X7Y93D01*
X1369Y93D02*
X1376Y93D01*
X0Y92D02*
X7Y92D01*
X1369Y92D02*
X1376Y92D01*
X0Y91D02*
X7Y91D01*
X1369Y91D02*
X1376Y91D01*
X0Y90D02*
X7Y90D01*
X1369Y90D02*
X1376Y90D01*
X0Y89D02*
X7Y89D01*
X1369Y89D02*
X1376Y89D01*
X0Y88D02*
X7Y88D01*
X1369Y88D02*
X1376Y88D01*
X0Y87D02*
X7Y87D01*
X1369Y87D02*
X1376Y87D01*
X0Y86D02*
X7Y86D01*
X1369Y86D02*
X1376Y86D01*
X0Y85D02*
X7Y85D01*
X1369Y85D02*
X1376Y85D01*
X0Y84D02*
X7Y84D01*
X1369Y84D02*
X1376Y84D01*
X0Y83D02*
X7Y83D01*
X1369Y83D02*
X1376Y83D01*
X0Y82D02*
X7Y82D01*
X1369Y82D02*
X1376Y82D01*
X0Y81D02*
X7Y81D01*
X1369Y81D02*
X1376Y81D01*
X0Y80D02*
X7Y80D01*
X1369Y80D02*
X1376Y80D01*
X0Y79D02*
X7Y79D01*
X1369Y79D02*
X1376Y79D01*
X0Y78D02*
X7Y78D01*
X1369Y78D02*
X1376Y78D01*
X0Y77D02*
X7Y77D01*
X1369Y77D02*
X1376Y77D01*
X0Y76D02*
X7Y76D01*
X1369Y76D02*
X1376Y76D01*
X0Y75D02*
X7Y75D01*
X1369Y75D02*
X1376Y75D01*
X0Y74D02*
X7Y74D01*
X1369Y74D02*
X1376Y74D01*
X0Y73D02*
X7Y73D01*
X1369Y73D02*
X1376Y73D01*
X0Y72D02*
X7Y72D01*
X1369Y72D02*
X1376Y72D01*
X0Y71D02*
X7Y71D01*
X1369Y71D02*
X1376Y71D01*
X0Y70D02*
X7Y70D01*
X1369Y70D02*
X1376Y70D01*
X0Y69D02*
X7Y69D01*
X1369Y69D02*
X1376Y69D01*
X0Y68D02*
X7Y68D01*
X1369Y68D02*
X1376Y68D01*
X0Y67D02*
X7Y67D01*
X1369Y67D02*
X1376Y67D01*
X0Y66D02*
X7Y66D01*
X1369Y66D02*
X1376Y66D01*
X0Y65D02*
X7Y65D01*
X1369Y65D02*
X1376Y65D01*
X0Y64D02*
X7Y64D01*
X1369Y64D02*
X1376Y64D01*
X0Y63D02*
X7Y63D01*
X1369Y63D02*
X1376Y63D01*
X0Y62D02*
X7Y62D01*
X1369Y62D02*
X1376Y62D01*
X0Y61D02*
X7Y61D01*
X1369Y61D02*
X1376Y61D01*
X0Y60D02*
X7Y60D01*
X1369Y60D02*
X1376Y60D01*
X0Y59D02*
X7Y59D01*
X1369Y59D02*
X1376Y59D01*
X0Y58D02*
X7Y58D01*
X1369Y58D02*
X1376Y58D01*
X0Y57D02*
X7Y57D01*
X1369Y57D02*
X1376Y57D01*
X0Y56D02*
X7Y56D01*
X1369Y56D02*
X1376Y56D01*
X0Y55D02*
X7Y55D01*
X1369Y55D02*
X1376Y55D01*
X0Y54D02*
X7Y54D01*
X1369Y54D02*
X1376Y54D01*
X0Y53D02*
X7Y53D01*
X1369Y53D02*
X1376Y53D01*
X0Y52D02*
X7Y52D01*
X1369Y52D02*
X1376Y52D01*
X0Y51D02*
X7Y51D01*
X1369Y51D02*
X1376Y51D01*
X0Y50D02*
X7Y50D01*
X1369Y50D02*
X1376Y50D01*
X0Y49D02*
X7Y49D01*
X1369Y49D02*
X1376Y49D01*
X0Y48D02*
X7Y48D01*
X1369Y48D02*
X1376Y48D01*
X0Y47D02*
X7Y47D01*
X1369Y47D02*
X1376Y47D01*
X0Y46D02*
X7Y46D01*
X1369Y46D02*
X1376Y46D01*
X0Y45D02*
X7Y45D01*
X1369Y45D02*
X1376Y45D01*
X0Y44D02*
X7Y44D01*
X1369Y44D02*
X1376Y44D01*
X0Y43D02*
X7Y43D01*
X1369Y43D02*
X1376Y43D01*
X0Y42D02*
X7Y42D01*
X1369Y42D02*
X1376Y42D01*
X0Y41D02*
X7Y41D01*
X1369Y41D02*
X1376Y41D01*
X0Y40D02*
X7Y40D01*
X1369Y40D02*
X1376Y40D01*
X0Y39D02*
X7Y39D01*
X1369Y39D02*
X1376Y39D01*
X0Y38D02*
X7Y38D01*
X1369Y38D02*
X1376Y38D01*
X0Y37D02*
X7Y37D01*
X1369Y37D02*
X1376Y37D01*
X0Y36D02*
X7Y36D01*
X1369Y36D02*
X1376Y36D01*
X0Y35D02*
X7Y35D01*
X1369Y35D02*
X1376Y35D01*
X0Y34D02*
X7Y34D01*
X1369Y34D02*
X1376Y34D01*
X0Y33D02*
X7Y33D01*
X1369Y33D02*
X1376Y33D01*
X0Y32D02*
X7Y32D01*
X1369Y32D02*
X1376Y32D01*
X0Y31D02*
X7Y31D01*
X1369Y31D02*
X1376Y31D01*
X0Y30D02*
X7Y30D01*
X1369Y30D02*
X1376Y30D01*
X0Y29D02*
X7Y29D01*
X1369Y29D02*
X1376Y29D01*
X0Y28D02*
X7Y28D01*
X1369Y28D02*
X1376Y28D01*
X0Y27D02*
X7Y27D01*
X1369Y27D02*
X1376Y27D01*
X0Y26D02*
X7Y26D01*
X1369Y26D02*
X1376Y26D01*
X0Y25D02*
X7Y25D01*
X1369Y25D02*
X1376Y25D01*
X0Y24D02*
X7Y24D01*
X1369Y24D02*
X1376Y24D01*
X0Y23D02*
X7Y23D01*
X1369Y23D02*
X1376Y23D01*
X0Y22D02*
X7Y22D01*
X1369Y22D02*
X1376Y22D01*
X0Y21D02*
X7Y21D01*
X1369Y21D02*
X1376Y21D01*
X0Y20D02*
X7Y20D01*
X1369Y20D02*
X1376Y20D01*
X0Y19D02*
X7Y19D01*
X1369Y19D02*
X1376Y19D01*
X0Y18D02*
X7Y18D01*
X1369Y18D02*
X1376Y18D01*
X0Y17D02*
X7Y17D01*
X1369Y17D02*
X1376Y17D01*
X0Y16D02*
X7Y16D01*
X1369Y16D02*
X1376Y16D01*
X0Y15D02*
X7Y15D01*
X1369Y15D02*
X1376Y15D01*
X0Y14D02*
X7Y14D01*
X1369Y14D02*
X1376Y14D01*
X0Y13D02*
X7Y13D01*
X1369Y13D02*
X1376Y13D01*
X0Y12D02*
X7Y12D01*
X1369Y12D02*
X1376Y12D01*
X0Y11D02*
X7Y11D01*
X1369Y11D02*
X1376Y11D01*
X0Y10D02*
X7Y10D01*
X1369Y10D02*
X1376Y10D01*
X0Y9D02*
X1376Y9D01*
X0Y8D02*
X1376Y8D01*
X0Y7D02*
X1376Y7D01*
X0Y6D02*
X1376Y6D01*
X0Y5D02*
X1376Y5D01*
X0Y4D02*
X1376Y4D01*
X0Y3D02*
X1376Y3D01*
X0Y2D02*
X1376Y2D01*
D02*
G04 End of Silk1*
M02*